<svg width="30" height="30" viewBox="0 0 30 30" fill="none" xmlns="http://www.w3.org/2000/svg">
<g clip-path="url(#clip0)">
<path d="M1.55022 30.0001C1.15504 30.0001 0.759868 29.8498 0.459626 29.5473C-0.143118 28.9445 -0.143118 27.9673 0.459626 27.3646L27.3721 0.452058C27.9749 -0.150686 28.9521 -0.150686 29.5548 0.452058C30.1576 1.0548 30.1576 2.032 29.5548 2.63512L2.64269 29.5473C2.34019 29.8479 1.94501 30.0001 1.55022 30.0001Z" fill="white"/>
<path d="M28.4646 30.0001C28.0694 30.0001 27.6746 29.8498 27.374 29.5473L0.459626 2.63512C-0.143118 2.032 -0.143118 1.0548 0.459626 0.452058C1.06237 -0.150686 2.03957 -0.150686 2.64269 0.452058L29.5548 27.3646C30.1576 27.9673 30.1576 28.9445 29.5548 29.5473C29.2523 29.8479 28.8575 30.0001 28.4646 30.0001Z" fill="white"/>
</g>
<defs>
<clipPath id="clip0">
<rect width="30" height="30" fill="white"/>
</clipPath>
</defs>
</svg>
