<svg width="20" height="20" viewBox="0 0 20 20" fill="none" xmlns="http://www.w3.org/2000/svg">
<path d="M15.2055 13.0674C14.5521 12.4302 13.7363 12.4302 13.0871 13.0674C12.5918 13.5524 12.0965 14.0375 11.6096 14.5307C11.4764 14.6664 11.364 14.6951 11.2017 14.6047C10.8813 14.4321 10.54 14.2923 10.232 14.1032C8.79614 13.2112 7.59335 12.0644 6.5279 10.7737C5.99933 10.1325 5.52904 9.44599 5.20025 8.67321C5.13365 8.51701 5.14614 8.41425 5.27516 8.28682C5.77043 7.81411 6.25321 7.32907 6.74016 6.84402C7.41855 6.1699 7.41855 5.38068 6.73599 4.70244C6.34894 4.31605 5.96188 3.93788 5.57482 3.55149C5.17527 3.15688 4.77989 2.75816 4.37619 2.36766C3.72276 1.73874 2.90703 1.73874 2.25777 2.37177C1.75834 2.85681 1.27972 3.35418 0.771964 3.831C0.301667 4.27083 0.0644374 4.80931 0.0144944 5.43822C-0.0645821 6.46174 0.189295 7.42772 0.54722 8.36903C1.27972 10.3174 2.39511 12.048 3.74774 13.6346C5.57482 15.7803 7.75566 17.478 10.3069 18.7029C11.4556 19.2537 12.6459 19.6771 13.9403 19.747C14.8309 19.7963 15.605 19.5743 16.2252 18.8879C16.6497 18.4193 17.1283 17.9918 17.5778 17.5437C18.2437 16.8778 18.2479 16.0722 17.5861 15.4145C16.7954 14.6294 16.0004 13.8484 15.2055 13.0674Z" fill="url(#paint0_linear)"/>
<path d="M14.4104 9.79146L15.9462 9.5325C15.7048 8.13903 15.0389 6.8771 14.0275 5.87413C12.9579 4.81772 11.6053 4.15182 10.1153 3.94629L9.89893 5.4713C11.0518 5.63161 12.1006 6.14542 12.9288 6.96342C13.7112 7.7362 14.2231 8.7145 14.4104 9.79146Z" fill="url(#paint1_linear)"/>
<path d="M16.812 3.19799C15.039 1.44691 12.7957 0.341174 10.3193 0L10.1029 1.52501C12.2421 1.82096 14.1816 2.77872 15.7132 4.28728C17.1657 5.72186 18.1188 7.5346 18.4642 9.52821L20 9.26925C19.5963 6.95913 18.4934 4.86276 16.812 3.19799Z" fill="url(#paint2_linear)"/>
<defs>
<linearGradient id="paint0_linear" x1="9.03992" y1="1.89648" x2="9.03992" y2="19.7536" gradientUnits="userSpaceOnUse">
<stop stop-color="#F2DF9A"/>
<stop offset="1" stop-color="#DABB68"/>
</linearGradient>
<linearGradient id="paint1_linear" x1="12.9225" y1="3.94629" x2="12.9225" y2="9.79146" gradientUnits="userSpaceOnUse">
<stop stop-color="#F2DF9A"/>
<stop offset="1" stop-color="#DABB68"/>
</linearGradient>
<linearGradient id="paint2_linear" x1="15.0515" y1="0" x2="15.0515" y2="9.52821" gradientUnits="userSpaceOnUse">
<stop stop-color="#F2DF9A"/>
<stop offset="1" stop-color="#DABB68"/>
</linearGradient>
</defs>
</svg>
