<svg width="40" height="40" viewBox="0 0 40 40" fill="none" xmlns="http://www.w3.org/2000/svg">
<path d="M20 0.3125C11.5566 0.3125 4.6875 7.18164 4.6875 15.625C4.6875 19.7266 7.17242 24.9937 12.0732 31.2795C14.3185 34.1519 16.75 36.8738 19.352 39.4275C19.5265 39.5944 19.7586 39.6875 20 39.6875C20.2414 39.6875 20.4735 39.5944 20.648 39.4275C23.25 36.8738 25.6815 34.1519 27.9268 31.2795C32.8276 24.9937 35.3125 19.7266 35.3125 15.625C35.3125 7.18164 28.4434 0.3125 20 0.3125ZM20 26.5625C13.9688 26.5625 9.0625 21.6562 9.0625 15.625C9.0625 9.59375 13.9688 4.6875 20 4.6875C26.0312 4.6875 30.9375 9.59375 30.9375 15.625C30.9375 21.6562 26.0312 26.5625 20 26.5625Z" fill="url(#paint0_linear)"/>
<defs>
<linearGradient id="paint0_linear" x1="20" y1="0.3125" x2="20" y2="39.6875" gradientUnits="userSpaceOnUse">
<stop stop-color="#F2DF9A"/>
<stop offset="1" stop-color="#DABB68"/>
</linearGradient>
</defs>
</svg>
