<svg width="26" height="26" viewBox="0 0 26 26" fill="none" xmlns="http://www.w3.org/2000/svg">
<path d="M19.7671 16.9875C18.9177 16.1592 17.8572 16.1592 17.0132 16.9875C16.3694 17.618 15.7255 18.2486 15.0925 18.8898C14.9193 19.0662 14.7733 19.1036 14.5623 18.986C14.1456 18.7616 13.702 18.5799 13.3016 18.3341C11.435 17.1745 9.87135 15.6836 8.48627 14.0057C7.79913 13.1721 7.18775 12.2797 6.76032 11.2751C6.67375 11.072 6.68998 10.9384 6.85771 10.7728C7.50156 10.1582 8.12917 9.52769 8.7622 8.89713C9.64411 8.02077 9.64411 6.99478 8.75679 6.11307C8.25362 5.61076 7.75044 5.11914 7.24726 4.61684C6.72786 4.10384 6.21386 3.5855 5.68904 3.07785C4.83959 2.26027 3.77914 2.26027 2.9351 3.0832C2.28584 3.71375 1.66363 4.36034 1.00355 4.98021C0.392167 5.55198 0.0837687 6.25201 0.0188427 7.06959C-0.0839567 8.40017 0.246083 9.65594 0.711386 10.8796C1.66363 13.4126 3.11365 15.6622 4.87206 17.7249C7.24726 20.5143 10.0824 22.7213 13.399 24.3137C14.8923 25.0297 16.4397 25.5801 18.1224 25.671C19.2802 25.7351 20.2866 25.4465 21.0927 24.5541C21.6446 23.945 22.2668 23.3892 22.8511 22.8068C23.7168 21.9411 23.7222 20.8937 22.8619 20.0387C21.834 19.0181 20.8006 18.0028 19.7671 16.9875Z" fill="url(#paint0_linear)"/>
<path d="M18.7337 12.7286L20.7302 12.392C20.4164 10.5804 19.5507 8.93993 18.236 7.63607C16.8455 6.26274 15.0871 5.39707 13.1501 5.12988L12.8688 7.11239C14.3675 7.3208 15.7309 7.98876 16.8076 9.05215C17.8248 10.0568 18.4903 11.3286 18.7337 12.7286Z" fill="url(#paint1_linear)"/>
<path d="M21.8556 4.15739C19.5507 1.88098 16.6345 0.443526 13.4152 0L13.1339 1.98251C15.9149 2.36725 18.4362 3.61233 20.4272 5.57347C22.3155 7.43842 23.5545 9.79498 24.0036 12.3867L26.0001 12.05C25.4753 9.04687 24.0415 6.32159 21.8556 4.15739Z" fill="url(#paint2_linear)"/>
<defs>
<linearGradient id="paint0_linear" x1="11.7519" y1="2.46533" x2="11.7519" y2="25.6795" gradientUnits="userSpaceOnUse">
<stop stop-color="#F2DF9A"/>
<stop offset="1" stop-color="#DABB68"/>
</linearGradient>
<linearGradient id="paint1_linear" x1="16.7995" y1="5.12988" x2="16.7995" y2="12.7286" gradientUnits="userSpaceOnUse">
<stop stop-color="#F2DF9A"/>
<stop offset="1" stop-color="#DABB68"/>
</linearGradient>
<linearGradient id="paint2_linear" x1="19.567" y1="0" x2="19.567" y2="12.3867" gradientUnits="userSpaceOnUse">
<stop stop-color="#F2DF9A"/>
<stop offset="1" stop-color="#DABB68"/>
</linearGradient>
</defs>
</svg>
