<svg width="24" height="24" viewBox="0 0 24 24" fill="none" xmlns="http://www.w3.org/2000/svg">
<path d="M18.2466 15.6812C17.4625 14.9166 16.4836 14.9166 15.7045 15.6812C15.1102 16.2632 14.5159 16.8453 13.9315 17.4372C13.7717 17.6 13.6369 17.6345 13.4421 17.526C13.0575 17.3188 12.648 17.1511 12.2784 16.9242C10.5554 15.8538 9.11202 14.4776 7.83348 12.9288C7.1992 12.1593 6.63484 11.3355 6.24029 10.4082C6.16039 10.2208 6.17537 10.0974 6.33019 9.94453C6.92451 9.37727 7.50385 8.79522 8.08819 8.21317C8.90226 7.40422 8.90226 6.45715 8.08319 5.64327C7.61872 5.1796 7.15425 4.7258 6.68978 4.26213C6.21033 3.78859 5.73587 3.31013 5.25142 2.84153C4.46732 2.08683 3.48843 2.08683 2.70932 2.84646C2.11001 3.42851 1.53566 4.02536 0.926356 4.59755C0.362 5.12534 0.0773249 5.77152 0.0173933 6.52621C-0.0774985 7.75444 0.227154 8.91361 0.656664 10.0432C1.53566 12.3813 2.87413 14.4579 4.49728 16.3619C6.68978 18.9367 9.3068 20.9739 12.3683 22.4438C13.7467 23.1048 15.1751 23.6129 16.7283 23.6967C17.7971 23.7559 18.7261 23.4895 19.4702 22.6658C19.9796 22.1035 20.554 21.5905 21.0934 21.0528C21.8924 20.2537 21.8974 19.2869 21.1033 18.4977C20.1544 17.5556 19.2005 16.6184 18.2466 15.6812Z" fill="white"/>
<path d="M17.2926 11.7504L19.1355 11.4397C18.8459 9.76749 18.0468 8.25317 16.8332 7.04961C15.5496 5.78192 13.9265 4.98284 12.1385 4.73621L11.8788 6.56621C13.2623 6.75859 14.5208 7.37517 15.5147 8.35676C16.4536 9.2841 17.0679 10.4581 17.2926 11.7504Z" fill="white"/>
<path d="M20.1743 3.83759C18.0467 1.73629 15.3547 0.409409 12.3831 0L12.1234 1.83001C14.6905 2.18516 17.0179 3.33446 18.8558 5.14474C20.5988 6.86623 21.7425 9.04152 22.157 11.4339L23.9999 11.1231C23.5155 8.35095 22.192 5.83531 20.1743 3.83759Z" fill="white"/>
</svg>
