<svg width="161" height="32" viewBox="0 0 161 32" fill="none" xmlns="http://www.w3.org/2000/svg">
<path d="M0.41225 2.6V5.384H5.46825V25H8.63625V2.6H0.41225ZM22.688 25.256C27.904 25.256 31.808 21.096 31.808 13.8C31.808 6.504 27.904 2.344 22.688 2.344C17.44 2.344 13.536 6.504 13.536 13.8C13.536 21.096 17.44 25.256 22.688 25.256ZM22.688 22.408C19.168 22.408 16.736 19.528 16.736 13.8C16.736 8.072 19.168 5.192 22.688 5.192C26.176 5.192 28.608 8.072 28.608 13.8C28.608 19.528 26.176 22.408 22.688 22.408ZM44.0318 25.256C49.2478 25.256 53.1518 21.096 53.1518 13.8C53.1518 6.504 49.2478 2.344 44.0318 2.344C38.7838 2.344 34.8798 6.504 34.8798 13.8C34.8798 21.096 38.7838 25.256 44.0318 25.256ZM44.0318 22.408C40.5118 22.408 38.0798 19.528 38.0798 13.8C38.0798 8.072 40.5118 5.192 44.0318 5.192C47.5198 5.192 49.9518 8.072 49.9518 13.8C49.9518 19.528 47.5198 22.408 44.0318 22.408ZM75.2493 7.88C72.7533 7.88 70.5773 8.84 69.2013 10.728V8.04H66.2573V31.208H69.3293V22.44C70.7373 24.264 72.8493 25.192 75.2493 25.192C80.2093 25.192 83.8253 21.736 83.8253 16.52C83.8253 11.336 80.2093 7.88 75.2493 7.88ZM74.9933 22.504C71.7613 22.504 69.2973 20.136 69.2973 16.52C69.2973 12.936 71.7613 10.568 74.9933 10.568C78.2573 10.568 80.7213 12.936 80.7213 16.52C80.7213 20.136 78.2573 22.504 74.9933 22.504ZM94.1803 7.88C91.4603 7.88 88.9323 8.648 87.1723 10.056L88.4523 12.36C89.7643 11.24 91.8123 10.536 93.8283 10.536C96.8683 10.536 98.3723 12.04 98.3723 14.632V15.24H93.5083C88.4523 15.24 86.6923 17.48 86.6923 20.2C86.6923 23.144 89.1243 25.192 92.9643 25.192C95.6203 25.192 97.5083 24.296 98.5323 22.76V25H101.444V14.76C101.444 10.12 98.8203 7.88 94.1803 7.88ZM93.4763 22.824C91.1403 22.824 89.7323 21.768 89.7323 20.072C89.7323 18.632 90.5963 17.448 93.6363 17.448H98.3723V19.816C97.6043 21.768 95.7803 22.824 93.4763 22.824ZM115.616 8.616C112.768 8.616 110.368 9.864 108.928 12.04C109.248 7.624 111.328 5.448 115.744 4.488L122.88 2.952L122.432 0.136L114.688 1.864C108.832 3.144 105.984 6.952 105.984 13.96C105.984 21.096 109.216 25.256 115.008 25.256C120.192 25.256 123.776 21.864 123.776 16.872C123.776 12.008 120.416 8.616 115.616 8.616ZM115.072 22.696C111.808 22.696 109.472 20.328 109.472 16.968C109.472 13.608 111.744 11.368 115.072 11.368C118.4 11.368 120.64 13.608 120.64 16.968C120.64 20.328 118.368 22.696 115.072 22.696ZM135.428 25.192C140.516 25.192 144.228 21.576 144.228 16.52C144.228 11.464 140.516 7.88 135.428 7.88C130.34 7.88 126.596 11.464 126.596 16.52C126.596 21.576 130.34 25.192 135.428 25.192ZM135.428 22.504C132.164 22.504 129.7 20.136 129.7 16.52C129.7 12.904 132.164 10.568 135.428 10.568C138.692 10.568 141.124 12.904 141.124 16.52C141.124 20.136 138.692 22.504 135.428 22.504ZM160.679 8.04H145.191V10.728H151.399V25H154.47V10.728H160.679V8.04Z" fill="#DDBF6E"/>
</svg>
