<svg width="188" height="24" viewBox="0 0 188 24" fill="none" xmlns="http://www.w3.org/2000/svg">
<path d="M14.232 11.256C16.28 10.296 17.4 8.632 17.4 6.424C17.4 2.68 14.136 0.344 9.272 0.344C4.44 0.344 1.208 2.68 1.208 6.424C1.208 8.632 2.296 10.296 4.344 11.256C1.816 12.216 0.408 14.104 0.408 16.664C0.408 20.728 3.832 23.256 9.272 23.256C14.744 23.256 18.2 20.728 18.2 16.664C18.2 14.104 16.792 12.248 14.232 11.256ZM9.272 2.936C12.28 2.936 14.264 4.312 14.264 6.552C14.264 8.76 12.376 10.136 9.272 10.136C6.2 10.136 4.376 8.76 4.376 6.552C4.376 4.312 6.264 2.936 9.272 2.936ZM9.272 20.664C5.72 20.664 3.608 19.096 3.608 16.568C3.608 14.104 5.72 12.568 9.272 12.568C12.824 12.568 15 14.104 15 16.568C15 19.096 12.824 20.664 9.272 20.664ZM30.2818 23.256C35.4978 23.256 39.4018 19.096 39.4018 11.8C39.4018 4.504 35.4978 0.344 30.2818 0.344C25.0338 0.344 21.1298 4.504 21.1298 11.8C21.1298 19.096 25.0338 23.256 30.2818 23.256ZM30.2818 20.408C26.7618 20.408 24.3298 17.528 24.3298 11.8C24.3298 6.072 26.7618 3.192 30.2818 3.192C33.7698 3.192 36.2018 6.072 36.2018 11.8C36.2018 17.528 33.7698 20.408 30.2818 20.408ZM51.6255 23.256C56.8415 23.256 60.7455 19.096 60.7455 11.8C60.7455 4.504 56.8415 0.344 51.6255 0.344C46.3775 0.344 42.4735 4.504 42.4735 11.8C42.4735 19.096 46.3775 23.256 51.6255 23.256ZM51.6255 20.408C48.1055 20.408 45.6735 17.528 45.6735 11.8C45.6735 6.072 48.1055 3.192 51.6255 3.192C55.1135 3.192 57.5455 6.072 57.5455 11.8C57.5455 17.528 55.1135 20.408 51.6255 20.408ZM72.9693 23.256C78.1853 23.256 82.0893 19.096 82.0893 11.8C82.0893 4.504 78.1853 0.344 72.9693 0.344C67.7213 0.344 63.8173 4.504 63.8173 11.8C63.8173 19.096 67.7213 23.256 72.9693 23.256ZM72.9693 20.408C69.4493 20.408 67.0173 17.528 67.0173 11.8C67.0173 6.072 69.4493 3.192 72.9693 3.192C76.4573 3.192 78.8893 6.072 78.8893 11.8C78.8893 17.528 76.4573 20.408 72.9693 20.408ZM107.835 6.04H92.3468V8.728H98.5548V23H101.627V8.728H107.835V6.04ZM118.624 11.8L114.048 11.768V6.04H110.976V23L118.112 23.032C122.656 23.064 125.216 21.016 125.216 17.336C125.216 13.848 122.912 11.832 118.624 11.8ZM127.744 23H130.816V6.04H127.744V23ZM117.888 20.696L114.048 20.664V14.008L117.888 14.072C120.672 14.104 122.112 15.064 122.112 17.304C122.112 19.576 120.64 20.728 117.888 20.696ZM144.181 23.192C147.221 23.192 149.749 21.912 151.093 19.544L148.757 18.072C147.669 19.736 146.005 20.504 144.149 20.504C140.821 20.504 138.325 18.2 138.325 14.52C138.325 10.904 140.821 8.568 144.149 8.568C146.005 8.568 147.669 9.336 148.757 11L151.093 9.496C149.749 7.128 147.221 5.88 144.181 5.88C138.965 5.88 135.221 9.464 135.221 14.52C135.221 19.576 138.965 23.192 144.181 23.192ZM160.715 6.04C156.171 6.04 153.259 8.056 153.259 11.992C153.259 14.68 154.699 16.44 157.227 17.208L153.099 23H156.395L160.107 17.624H160.459H165.387V23H168.139V6.04H160.715ZM156.395 12.088C156.395 9.72 157.995 8.728 160.811 8.728H165.387V15.416H160.683C157.835 15.416 156.395 14.36 156.395 12.088ZM184.596 6.04V13.784C182.964 14.488 181.3 14.904 179.764 14.904C177.172 14.904 175.572 13.752 175.572 11.352V6.04H172.5V11.544C172.5 15.576 174.996 17.432 179.124 17.432C181.012 17.432 182.868 16.952 184.596 16.152V23H187.668V6.04H184.596Z" fill="#DDBF6E"/>
</svg>
