<svg width="200" height="24" viewBox="0 0 200 24" fill="none" xmlns="http://www.w3.org/2000/svg">
<path d="M8.01413 9.528H5.51813L6.12613 3.384H16.0781V0.599998H3.43813L2.25413 12.312H7.34213C12.5261 12.312 14.1261 13.88 14.1261 16.408C14.1261 18.84 12.2061 20.408 8.81413 20.408C6.09413 20.408 3.59813 19.416 2.09413 18.008L0.622125 20.536C2.54213 22.232 5.67813 23.256 8.84613 23.256C14.5741 23.256 17.3261 20.152 17.3261 16.28C17.3261 12.312 14.7021 9.528 8.01413 9.528ZM29.1411 23.256C34.3571 23.256 38.2611 19.096 38.2611 11.8C38.2611 4.504 34.3571 0.344 29.1411 0.344C23.8931 0.344 19.9891 4.504 19.9891 11.8C19.9891 19.096 23.8931 23.256 29.1411 23.256ZM29.1411 20.408C25.6211 20.408 23.1891 17.528 23.1891 11.8C23.1891 6.072 25.6211 3.192 29.1411 3.192C32.6291 3.192 35.0611 6.072 35.0611 11.8C35.0611 17.528 32.6291 20.408 29.1411 20.408ZM50.4849 23.256C55.7009 23.256 59.6049 19.096 59.6049 11.8C59.6049 4.504 55.7009 0.344 50.4849 0.344C45.2369 0.344 41.3329 4.504 41.3329 11.8C41.3329 19.096 45.2369 23.256 50.4849 23.256ZM50.4849 20.408C46.9649 20.408 44.5329 17.528 44.5329 11.8C44.5329 6.072 46.9649 3.192 50.4849 3.192C53.9729 3.192 56.4049 6.072 56.4049 11.8C56.4049 17.528 53.9729 20.408 50.4849 20.408ZM81.8944 14.168C83.7504 13.496 84.9664 12.12 84.9664 10.424C84.9664 7.672 81.9264 5.816 77.7984 5.816C75.6224 5.816 73.5104 6.264 71.3024 7.384L72.1344 9.752C73.9904 8.888 75.7504 8.44 77.4784 8.44C80.0704 8.44 81.7984 9.336 81.7984 10.872C81.7984 12.312 80.3584 13.144 78.0864 13.144H75.2064V15.352H78.3104C80.8064 15.352 82.2784 16.248 82.2784 17.816C82.2784 19.544 80.3904 20.6 77.5104 20.6C75.4304 20.6 73.1904 20.024 71.5584 18.968L70.6304 21.304C72.5184 22.52 75.0144 23.224 77.5424 23.224C82.0544 23.224 85.4464 21.144 85.4464 18.072C85.4464 16.12 84.1664 14.744 81.8944 14.168ZM96.1646 5.88C93.4446 5.88 90.9166 6.648 89.1566 8.056L90.4366 10.36C91.7486 9.24 93.7966 8.536 95.8126 8.536C98.8526 8.536 100.357 10.04 100.357 12.632V13.24H95.4926C90.4366 13.24 88.6766 15.48 88.6766 18.2C88.6766 21.144 91.1086 23.192 94.9486 23.192C97.6046 23.192 99.4926 22.296 100.517 20.76V23H103.429V12.76C103.429 8.12 100.805 5.88 96.1646 5.88ZM95.4606 20.824C93.1246 20.824 91.7166 19.768 91.7166 18.072C91.7166 16.632 92.5806 15.448 95.6206 15.448H100.357V17.816C99.5886 19.768 97.7646 20.824 95.4606 20.824ZM121.248 23H124.864L117.984 14.2L124.416 6.04H121.12L115.616 13.208H112.032V6.04H108.96V23H112.032V15.832H115.552L121.248 23ZM133.821 5.88C131.101 5.88 128.573 6.648 126.813 8.056L128.093 10.36C129.405 9.24 131.453 8.536 133.469 8.536C136.509 8.536 138.013 10.04 138.013 12.632V13.24H133.149C128.093 13.24 126.333 15.48 126.333 18.2C126.333 21.144 128.765 23.192 132.605 23.192C135.261 23.192 137.149 22.296 138.173 20.76V23H141.085V12.76C141.085 8.12 138.461 5.88 133.821 5.88ZM133.117 20.824C130.781 20.824 129.373 19.768 129.373 18.072C129.373 16.632 130.237 15.448 133.277 15.448H138.013V17.816C137.245 19.768 135.421 20.824 133.117 20.824ZM155.519 14.168C157.375 13.496 158.591 12.12 158.591 10.424C158.591 7.672 155.551 5.816 151.423 5.816C149.247 5.816 147.135 6.264 144.927 7.384L145.759 9.752C147.615 8.888 149.375 8.44 151.103 8.44C153.695 8.44 155.423 9.336 155.423 10.872C155.423 12.312 153.983 13.144 151.711 13.144H148.831V15.352H151.935C154.431 15.352 155.903 16.248 155.903 17.816C155.903 19.544 154.015 20.6 151.135 20.6C149.055 20.6 146.815 20.024 145.183 18.968L144.255 21.304C146.143 22.52 148.639 23.224 151.167 23.224C155.679 23.224 159.071 21.144 159.071 18.072C159.071 16.12 157.791 14.744 155.519 14.168ZM171.006 23.192C176.094 23.192 179.806 19.576 179.806 14.52C179.806 9.464 176.094 5.88 171.006 5.88C165.918 5.88 162.174 9.464 162.174 14.52C162.174 19.576 165.918 23.192 171.006 23.192ZM171.006 20.504C167.742 20.504 165.278 18.136 165.278 14.52C165.278 10.904 167.742 8.568 171.006 8.568C174.27 8.568 176.702 10.904 176.702 14.52C176.702 18.136 174.27 20.504 171.006 20.504ZM195.794 14.2C197.49 13.528 198.514 12.216 198.514 10.392C198.514 7.608 196.114 6.04 192.114 6.04H184.242V23H192.402C196.914 23 199.09 21.272 199.09 18.328C199.09 16.184 198.034 14.776 195.794 14.2ZM187.25 8.408H191.858C194.194 8.408 195.442 9.208 195.442 10.84C195.442 12.472 194.194 13.336 191.858 13.336H187.25V8.408ZM192.178 20.632H187.25V15.544H192.37C194.898 15.544 196.018 16.376 196.018 18.136C196.018 19.864 194.706 20.632 192.178 20.632Z" fill="#DDBF6E"/>
</svg>
