<svg width="96" height="24" viewBox="0 0 96 24" fill="none" xmlns="http://www.w3.org/2000/svg">
<path d="M0.334125 0.599998V3.384H5.39013V23H8.55813V0.599998H0.334125ZM23.1219 9.4C20.3379 9.4 17.9699 10.424 16.6899 12.344C16.6579 12.056 16.6579 11.8 16.6579 11.544C16.6579 5.944 19.5699 3.096 24.1139 3.096C25.7139 3.096 27.2499 3.384 28.4019 4.152L29.6179 1.656C28.1779 0.759998 26.1619 0.344 24.0499 0.344C17.7779 0.344 13.4579 4.44 13.4579 12.088C13.4579 19.224 16.8499 23.256 22.8659 23.256C27.3139 23.256 30.8019 20.504 30.8019 16.184C30.8019 12.056 27.5699 9.4 23.1219 9.4ZM22.7379 20.664C19.2819 20.664 17.4259 18.648 17.4259 16.344C17.4259 13.88 19.5379 11.992 22.5779 11.992C25.7139 11.992 27.6979 13.688 27.6979 16.312C27.6979 18.968 25.6499 20.664 22.7379 20.664ZM44.7776 6.04L44.4896 12.312C44.2656 16.312 44.1376 20.472 41.3856 20.472C41.1616 20.472 40.9056 20.44 40.6176 20.376L40.4256 22.968C41.1296 23.16 41.7376 23.256 42.3136 23.256C46.1536 23.256 46.9536 18.488 47.2416 12.504L47.4336 8.728H54.7296V23H57.8016V6.04H44.7776ZM79.0696 14.616C79.0696 9.4 75.5816 5.88 70.6856 5.88C65.7896 5.88 62.1736 9.496 62.1736 14.52C62.1736 19.576 65.8216 23.192 71.2936 23.192C74.1096 23.192 76.4456 22.232 77.9816 20.44L76.2856 18.456C75.0376 19.832 73.3736 20.504 71.3896 20.504C68.0296 20.504 65.6296 18.52 65.2456 15.544H79.0056C79.0376 15.256 79.0696 14.872 79.0696 14.616ZM70.6856 8.472C73.6616 8.472 75.8056 10.488 76.1256 13.336H65.2456C65.5656 10.456 67.7416 8.472 70.6856 8.472ZM95.7566 6.04H80.2686V8.728H86.4766V23H89.5486V8.728H95.7566V6.04Z" fill="#DDBF6E"/>
</svg>
