<svg width="40" height="40" viewBox="0 0 40 40" fill="none" xmlns="http://www.w3.org/2000/svg">
<path d="M24.0405 36.4331C23.7107 36.5153 23.3744 36.5883 23.0406 36.6497C22.168 36.812 21.5911 37.6512 21.7525 38.5246C21.8322 38.9542 22.0763 39.3121 22.4076 39.5457C22.749 39.786 23.1836 39.8945 23.6264 39.8122C24.0239 39.7384 24.4245 39.6516 24.8176 39.5535C25.6793 39.3391 26.2042 38.4662 25.9893 37.6049C25.7748 36.7429 24.9027 36.2184 24.0405 36.4331Z" fill="url(#paint0_linear)"/>
<path d="M35.9318 14.8796C36.0444 15.219 36.2594 15.4962 36.5311 15.6876C36.9338 15.9713 37.4608 16.0667 37.9638 15.9005C38.8069 15.6205 39.2638 14.7113 38.9848 13.8686C38.8577 13.4844 38.7167 13.099 38.5665 12.7238C38.2367 11.8992 37.3013 11.4977 36.4763 11.8275C35.6521 12.1572 35.2505 13.0928 35.5806 13.9177C35.7068 14.233 35.8251 14.5568 35.9318 14.8796Z" fill="url(#paint1_linear)"/>
<path d="M29.2656 34.1373C28.9819 34.3246 28.6892 34.5058 28.3942 34.6757C27.6248 35.1195 27.3612 36.1031 27.8049 36.8722C27.9254 37.0814 28.0858 37.2524 28.2706 37.3831C28.7666 37.7322 29.4403 37.7844 30.0012 37.4613C30.3519 37.2591 30.7005 37.0439 31.0383 36.8205C31.779 36.3312 31.9829 35.3335 31.4933 34.5925C31.0038 33.8512 30.0065 33.6476 29.2656 34.1373Z" fill="url(#paint2_linear)"/>
<path d="M39.9848 19.3706C39.9498 18.4831 39.2022 17.7923 38.3144 17.8269C37.4278 17.8619 36.7365 18.6097 36.7713 19.4969C36.7846 19.8361 36.788 20.1804 36.7802 20.5193C36.7678 21.0759 37.04 21.572 37.463 21.8702C37.715 22.0477 38.0209 22.155 38.3525 22.1626C39.24 22.1823 39.9756 21.4783 39.9952 20.5904C40.0041 20.1855 40.0007 19.7753 39.9848 19.3706Z" fill="url(#paint3_linear)"/>
<path d="M35.6693 29.9069C34.9576 29.373 33.9508 29.5179 33.4178 30.2284C33.2136 30.5004 32.9987 30.7691 32.7785 31.0278C32.2033 31.7037 32.2846 32.7188 32.9604 33.2945C32.9989 33.3271 33.0379 33.3572 33.0783 33.3854C33.7502 33.859 34.684 33.7502 35.2272 33.1127C35.4901 32.804 35.7463 32.483 35.9902 32.1581C36.5233 31.4477 36.379 30.4401 35.6693 29.9069Z" fill="url(#paint4_linear)"/>
<path d="M38.033 24.0943C37.1857 23.8286 36.2833 24.3003 36.0177 25.1477C35.9161 25.4715 35.8035 25.7967 35.6819 26.1153C35.4149 26.8166 35.6707 27.5882 36.2571 28.0017C36.3647 28.0773 36.4832 28.1414 36.6119 28.19C37.4416 28.5066 38.3706 28.0904 38.6869 27.2604C38.8312 26.8816 38.9652 26.4946 39.0864 26.1097C39.3516 25.2622 38.8803 24.36 38.033 24.0943Z" fill="url(#paint5_linear)"/>
<path d="M17.0248 36.6644C15.5872 36.4062 14.208 35.9667 12.9003 35.3536C12.8848 35.3455 12.871 35.3363 12.8547 35.3289C12.5466 35.1839 12.2389 35.0285 11.9407 34.8662C11.9397 34.865 11.9378 34.8642 11.9362 34.8635C11.389 34.5622 10.8551 34.2289 10.3363 33.8637C2.77211 28.5352 0.953363 18.0461 6.28217 10.482C7.4409 8.8378 8.84313 7.46609 10.4064 6.3789C10.4257 6.36549 10.4449 6.35216 10.464 6.33866C15.9728 2.54296 23.4528 2.28715 29.3023 6.18758L28.046 8.0028C27.6967 8.50805 27.9116 8.87623 28.523 8.8212L33.9802 8.33264C34.5924 8.27761 34.9585 7.74803 34.7939 7.1568L33.3284 1.87684C33.1644 1.28492 32.7443 1.21407 32.3947 1.71923L31.1355 3.53874C26.8428 0.657145 21.6941 -0.441651 16.5838 0.444505C16.0691 0.533585 15.5616 0.642614 15.0611 0.769527C15.0572 0.770215 15.0541 0.770644 15.051 0.771332C15.0317 0.776061 15.0121 0.782338 14.9933 0.787583C10.5866 1.91923 6.74176 4.48939 3.99825 8.15646C3.97512 8.18389 3.9513 8.21071 3.92946 8.24055C3.83823 8.36342 3.74769 8.48913 3.65904 8.61484C3.51407 8.82086 3.37116 9.03204 3.23445 9.24322C3.21734 9.26867 3.20427 9.29455 3.18931 9.32026C0.925333 12.8285 -0.166671 16.8844 0.0206037 21.0135C0.0210336 21.0271 0.0202597 21.0408 0.0206037 21.0547C0.0387464 21.4581 0.0707327 21.867 0.114155 22.2696C0.116476 22.2956 0.122237 22.3202 0.126623 22.3461C0.171507 22.751 0.227826 23.1567 0.29842 23.5624C1.01587 27.7015 2.96841 31.4261 5.89421 34.3242C5.901 34.331 5.90805 34.3384 5.91493 34.3455C5.91734 34.3481 5.92 34.3495 5.92232 34.352C6.70839 35.1273 7.56342 35.8444 8.48406 36.4928C10.8933 38.1905 13.5761 39.3127 16.4573 39.8297C17.3315 39.9868 18.1666 39.4049 18.3234 38.5311C18.4802 37.6567 17.8988 36.8209 17.0248 36.6644Z" fill="url(#paint6_linear)"/>
<path d="M19.0132 7.15356C18.2941 7.15356 17.7117 7.73654 17.7117 8.4546V21.4165L29.5664 27.5447C29.7572 27.6435 29.9615 27.69 30.1625 27.69C30.6334 27.69 31.0881 27.4336 31.3193 26.9862C31.6491 26.3477 31.3996 25.5633 30.761 25.2335L20.3133 19.8322V8.4546C20.3132 7.73654 19.7314 7.15356 19.0132 7.15356Z" fill="url(#paint7_linear)"/>
<defs>
<linearGradient id="paint0_linear" x1="23.8814" y1="36.385" x2="23.8814" y2="39.8395" gradientUnits="userSpaceOnUse">
<stop stop-color="#F2DF9A"/>
<stop offset="1" stop-color="#DABB68"/>
</linearGradient>
<linearGradient id="paint1_linear" x1="37.2659" y1="11.7122" x2="37.2659" y2="15.9822" gradientUnits="userSpaceOnUse">
<stop stop-color="#F2DF9A"/>
<stop offset="1" stop-color="#DABB68"/>
</linearGradient>
<linearGradient id="paint2_linear" x1="29.6747" y1="33.8706" x2="29.6747" y2="37.6766" gradientUnits="userSpaceOnUse">
<stop stop-color="#F2DF9A"/>
<stop offset="1" stop-color="#DABB68"/>
</linearGradient>
<linearGradient id="paint3_linear" x1="38.385" y1="17.8257" x2="38.385" y2="22.163" gradientUnits="userSpaceOnUse">
<stop stop-color="#F2DF9A"/>
<stop offset="1" stop-color="#DABB68"/>
</linearGradient>
<linearGradient id="paint4_linear" x1="34.3536" y1="29.5847" x2="34.3536" y2="33.678" gradientUnits="userSpaceOnUse">
<stop stop-color="#F2DF9A"/>
<stop offset="1" stop-color="#DABB68"/>
</linearGradient>
<linearGradient id="paint5_linear" x1="37.3682" y1="24.0203" x2="37.3682" y2="28.2961" gradientUnits="userSpaceOnUse">
<stop stop-color="#F2DF9A"/>
<stop offset="1" stop-color="#DABB68"/>
</linearGradient>
<linearGradient id="paint6_linear" x1="17.4167" y1="0.145508" x2="17.4167" y2="39.8553" gradientUnits="userSpaceOnUse">
<stop stop-color="#F2DF9A"/>
<stop offset="1" stop-color="#DABB68"/>
</linearGradient>
<linearGradient id="paint7_linear" x1="24.5883" y1="7.15356" x2="24.5883" y2="27.69" gradientUnits="userSpaceOnUse">
<stop stop-color="#F2DF9A"/>
<stop offset="1" stop-color="#DABB68"/>
</linearGradient>
</defs>
</svg>
