<svg width="40" height="40" viewBox="0 0 40 40" fill="none" xmlns="http://www.w3.org/2000/svg">
<path d="M30.4109 26.1347C29.1041 24.8604 27.4726 24.8604 26.1741 26.1347C25.1836 27.1047 24.193 28.0748 23.2191 29.0614C22.9528 29.3327 22.728 29.3902 22.4034 29.2093C21.7625 28.8641 21.0799 28.5845 20.4639 28.2064C17.5922 26.4224 15.1867 24.1287 13.0558 21.5473C11.9986 20.2648 11.058 18.8919 10.4005 17.3464C10.2673 17.034 10.2922 16.8285 10.5503 16.5736C11.5408 15.6282 12.5064 14.6581 13.4803 13.688C14.8371 12.3398 14.8371 10.7613 13.4719 9.40486C12.6978 8.63208 11.9237 7.87574 11.1496 7.10297C10.3505 6.31375 9.55975 5.51631 8.75234 4.73531C7.44551 3.47749 5.81404 3.47749 4.51552 4.74353C3.51667 5.71361 2.55943 6.70836 1.54392 7.662C0.603332 8.54165 0.128874 9.6186 0.0289887 10.8764C-0.129164 12.9235 0.378589 14.8554 1.09444 16.738C2.55943 20.6348 4.79021 24.0959 7.49545 27.2692C11.1496 31.5606 15.5113 34.9558 20.6138 37.4057C22.9111 38.5073 25.2918 39.3541 27.8805 39.4939C29.6618 39.5925 31.21 39.1486 32.4502 37.7757C33.2993 36.8385 34.2565 35.9835 35.1555 35.0874C36.4873 33.7556 36.4956 32.1442 35.1721 30.8289C33.5906 29.2587 32.0008 27.6967 30.4109 26.1347Z" fill="url(#paint0_linear)"/>
<path d="M28.8212 19.5836L31.8927 19.0657C31.4099 16.2788 30.0781 13.7549 28.0554 11.749C25.9162 9.63617 23.211 8.30436 20.2311 7.89331L19.7982 10.9433C22.1039 11.2639 24.2015 12.2916 25.8579 13.9275C27.4228 15.4731 28.4466 17.4297 28.8212 19.5836Z" fill="url(#paint1_linear)"/>
<path d="M33.6237 6.39597C30.0778 2.89381 25.5912 0.682346 20.6385 0L20.2057 3.05C24.4842 3.64192 28.3631 5.55742 31.4262 8.57454C34.3313 11.4437 36.2374 15.0692 36.9283 19.0564L39.9998 18.5384C39.1924 13.9182 36.9866 9.72549 33.6237 6.39597Z" fill="url(#paint2_linear)"/>
<defs>
<linearGradient id="paint0_linear" x1="18.0798" y1="3.79297" x2="18.0798" y2="39.507" gradientUnits="userSpaceOnUse">
<stop stop-color="#F2DF9A"/>
<stop offset="1" stop-color="#DABB68"/>
</linearGradient>
<linearGradient id="paint1_linear" x1="25.8454" y1="7.89331" x2="25.8454" y2="19.5836" gradientUnits="userSpaceOnUse">
<stop stop-color="#F2DF9A"/>
<stop offset="1" stop-color="#DABB68"/>
</linearGradient>
<linearGradient id="paint2_linear" x1="30.1028" y1="0" x2="30.1028" y2="19.0564" gradientUnits="userSpaceOnUse">
<stop stop-color="#F2DF9A"/>
<stop offset="1" stop-color="#DABB68"/>
</linearGradient>
</defs>
</svg>
