<svg width="60" height="60" viewBox="0 0 60 60" fill="none" xmlns="http://www.w3.org/2000/svg">
<g clip-path="url(#clip0)">
<path d="M31.6465 45.5186L59.3215 17.7668C60.2277 16.8576 60.2262 15.3855 59.3168 14.4778C58.4076 13.5707 56.9346 13.5731 56.0277 14.4824L29.9999 40.5823L3.97219 14.4815C3.06517 13.5722 1.59318 13.5699 0.683807 14.4768C0.227951 14.9319 1.90735e-05 15.528 1.90735e-05 16.1241C1.90735e-05 16.7187 0.226425 17.3125 0.679119 17.7667L28.3534 45.5186C28.7891 45.9565 29.3821 46.2023 29.9999 46.2023C30.6177 46.2023 31.21 45.9558 31.6465 45.5186Z" fill="#08597D"/>
</g>
<defs>
<clipPath id="clip0">
<rect width="60" height="60" fill="white" transform="translate(60) rotate(90)"/>
</clipPath>
</defs>
</svg>
