<svg width="75" height="59" viewBox="0 0 75 59" fill="none" xmlns="http://www.w3.org/2000/svg">
<path d="M39 29.24C39 38.5733 37.2933 45.7467 33.88 50.76C30.4667 55.72 25.7467 58.2 19.72 58.2C13.6933 58.2 8.97333 55.72 5.56 50.76C2.14667 45.7467 0.44 38.5733 0.44 29.24C0.44 24.6 0.866667 20.4933 1.72 16.92C2.62667 13.2933 3.90667 10.2533 5.56 7.8C7.26667 5.34667 9.29333 3.48 11.64 2.2C14.04 0.919996 16.7333 0.279996 19.72 0.279996C25.7467 0.279996 30.4667 2.78666 33.88 7.8C37.2933 12.76 39 19.9067 39 29.24ZM29 29.24C29 26.36 28.84 23.6667 28.52 21.16C28.2 18.6533 27.6667 16.4933 26.92 14.68C26.2267 12.8133 25.2933 11.3467 24.12 10.28C22.9467 9.21333 21.48 8.68 19.72 8.68C17.96 8.68 16.4667 9.21333 15.24 10.28C14.0667 11.3467 13.1067 12.8133 12.36 14.68C11.6667 16.4933 11.16 18.6533 10.84 21.16C10.5733 23.6667 10.44 26.36 10.44 29.24C10.44 32.12 10.5733 34.8133 10.84 37.32C11.16 39.8267 11.6667 42.0133 12.36 43.88C13.1067 45.6933 14.0667 47.1333 15.24 48.2C16.4667 49.2667 17.96 49.8 19.72 49.8C21.48 49.8 22.9467 49.2667 24.12 48.2C25.2933 47.1333 26.2267 45.6933 26.92 43.88C27.6667 42.0133 28.2 39.8267 28.52 37.32C28.84 34.8133 29 32.12 29 29.24ZM49.6688 13.08C52.7621 11.8533 55.8554 10.28 58.9488 8.36C62.0954 6.44 64.8688 4.17333 67.2688 1.56H74.0688V57H64.3888V14.52C62.9488 15.64 61.1354 16.7333 58.9488 17.8C56.7621 18.8667 54.6554 19.7467 52.6288 20.44L49.6688 13.08Z" fill="url(#paint0_linear)"/>
<defs>
<linearGradient id="paint0_linear" x1="42.5" y1="-19" x2="42.5" y2="73" gradientUnits="userSpaceOnUse">
<stop stop-color="#F2DF9A"/>
<stop offset="1" stop-color="#DABB68"/>
</linearGradient>
</defs>
</svg>
