<svg width="83" height="59" viewBox="0 0 83 59" fill="none" xmlns="http://www.w3.org/2000/svg">
<path d="M39 29.24C39 38.5733 37.2933 45.7467 33.88 50.76C30.4667 55.72 25.7467 58.2 19.72 58.2C13.6933 58.2 8.97333 55.72 5.56 50.76C2.14667 45.7467 0.44 38.5733 0.44 29.24C0.44 24.6 0.866667 20.4933 1.72 16.92C2.62667 13.2933 3.90667 10.2533 5.56 7.8C7.26667 5.34667 9.29333 3.48 11.64 2.2C14.04 0.919996 16.7333 0.279996 19.72 0.279996C25.7467 0.279996 30.4667 2.78666 33.88 7.8C37.2933 12.76 39 19.9067 39 29.24ZM29 29.24C29 26.36 28.84 23.6667 28.52 21.16C28.2 18.6533 27.6667 16.4933 26.92 14.68C26.2267 12.8133 25.2933 11.3467 24.12 10.28C22.9467 9.21333 21.48 8.68 19.72 8.68C17.96 8.68 16.4667 9.21333 15.24 10.28C14.0667 11.3467 13.1067 12.8133 12.36 14.68C11.6667 16.4933 11.16 18.6533 10.84 21.16C10.5733 23.6667 10.44 26.36 10.44 29.24C10.44 32.12 10.5733 34.8133 10.84 37.32C11.16 39.8267 11.6667 42.0133 12.36 43.88C13.1067 45.6933 14.0667 47.1333 15.24 48.2C16.4667 49.2667 17.96 49.8 19.72 49.8C21.48 49.8 22.9467 49.2667 24.12 48.2C25.2933 47.1333 26.2267 45.6933 26.92 43.88C27.6667 42.0133 28.2 39.8267 28.52 37.32C28.84 34.8133 29 32.12 29 29.24ZM61.3488 58.2C59.9088 58.2 58.4154 58.0933 56.8688 57.88C55.3754 57.72 53.9354 57.48 52.5488 57.16C51.2154 56.8933 49.9888 56.6 48.8688 56.28C47.7488 55.9067 46.8954 55.56 46.3088 55.24L48.2288 47C49.3488 47.5333 50.9754 48.1467 53.1088 48.84C55.2421 49.48 57.8821 49.8 61.0288 49.8C65.2421 49.8 68.2821 49 70.1488 47.4C72.0154 45.7467 72.9488 43.56 72.9488 40.84C72.9488 39.08 72.5754 37.6133 71.8288 36.44C71.1354 35.2667 70.1488 34.3333 68.8688 33.64C67.6421 32.8933 66.2021 32.3867 64.5488 32.12C62.9488 31.8 61.2421 31.64 59.4288 31.64H56.1488V23.8H60.1488C61.3754 23.8 62.6021 23.6933 63.8288 23.48C65.1088 23.2133 66.2554 22.7867 67.2688 22.2C68.2821 21.56 69.1088 20.7333 69.7488 19.72C70.3888 18.7067 70.7088 17.4 70.7088 15.8C70.7088 14.52 70.4688 13.4267 69.9888 12.52C69.5088 11.6133 68.8688 10.8667 68.0688 10.28C67.3221 9.69333 66.4421 9.26666 65.4288 9C64.4154 8.73333 63.3488 8.6 62.2288 8.6C59.8288 8.6 57.6954 8.97333 55.8288 9.72C53.9621 10.4133 52.3088 11.2133 50.8688 12.12L47.3488 4.92C48.0954 4.44 49.0021 3.93333 50.0688 3.4C51.1354 2.86667 52.3088 2.36 53.5888 1.88C54.9221 1.4 56.3354 1.02667 57.8288 0.759999C59.3221 0.439997 60.8954 0.279996 62.5488 0.279996C65.6421 0.279996 68.3088 0.653329 70.5488 1.4C72.7888 2.14666 74.6288 3.21333 76.0688 4.6C77.5621 5.93333 78.6554 7.53333 79.3488 9.4C80.0954 11.2133 80.4688 13.2133 80.4688 15.4C80.4688 17.96 79.7488 20.2533 78.3088 22.28C76.9221 24.3067 75.1088 25.8533 72.8688 26.92C75.7488 27.9333 78.1221 29.6133 79.9888 31.96C81.9088 34.3067 82.8687 37.32 82.8687 41C82.8687 43.4533 82.4421 45.7467 81.5888 47.88C80.7354 49.96 79.4288 51.7733 77.6688 53.32C75.9088 54.8133 73.6688 56.0133 70.9488 56.92C68.2821 57.7733 65.0821 58.2 61.3488 58.2Z" fill="url(#paint0_linear)"/>
<defs>
<linearGradient id="paint0_linear" x1="42.5" y1="-19" x2="42.5" y2="73" gradientUnits="userSpaceOnUse">
<stop stop-color="#F2DF9A"/>
<stop offset="1" stop-color="#DABB68"/>
</linearGradient>
</defs>
</svg>
