<svg width="83" height="59" viewBox="0 0 83 59" fill="none" xmlns="http://www.w3.org/2000/svg">
<path d="M39 29.24C39 38.5733 37.2933 45.7467 33.88 50.76C30.4667 55.72 25.7467 58.2 19.72 58.2C13.6933 58.2 8.97333 55.72 5.56 50.76C2.14667 45.7467 0.44 38.5733 0.44 29.24C0.44 24.6 0.866667 20.4933 1.72 16.92C2.62667 13.2933 3.90667 10.2533 5.56 7.8C7.26667 5.34667 9.29333 3.48 11.64 2.2C14.04 0.919996 16.7333 0.279996 19.72 0.279996C25.7467 0.279996 30.4667 2.78666 33.88 7.8C37.2933 12.76 39 19.9067 39 29.24ZM29 29.24C29 26.36 28.84 23.6667 28.52 21.16C28.2 18.6533 27.6667 16.4933 26.92 14.68C26.2267 12.8133 25.2933 11.3467 24.12 10.28C22.9467 9.21333 21.48 8.68 19.72 8.68C17.96 8.68 16.4667 9.21333 15.24 10.28C14.0667 11.3467 13.1067 12.8133 12.36 14.68C11.6667 16.4933 11.16 18.6533 10.84 21.16C10.5733 23.6667 10.44 26.36 10.44 29.24C10.44 32.12 10.5733 34.8133 10.84 37.32C11.16 39.8267 11.6667 42.0133 12.36 43.88C13.1067 45.6933 14.0667 47.1333 15.24 48.2C16.4667 49.2667 17.96 49.8 19.72 49.8C21.48 49.8 22.9467 49.2667 24.12 48.2C25.2933 47.1333 26.2267 45.6933 26.92 43.88C27.6667 42.0133 28.2 39.8267 28.52 37.32C28.84 34.8133 29 32.12 29 29.24ZM80.9488 15.96C80.9488 17.88 80.5488 19.7733 79.7488 21.64C78.9488 23.4533 77.9088 25.24 76.6288 27C75.4021 28.7067 73.9888 30.3867 72.3888 32.04C70.7888 33.64 69.1888 35.2133 67.5888 36.76C66.7354 37.56 65.7754 38.52 64.7088 39.64C63.6421 40.76 62.6288 41.88 61.6688 43C60.7088 44.12 59.8821 45.2133 59.1888 46.28C58.4954 47.2933 58.1221 48.1467 58.0688 48.84H82.7088V57H47.4288C47.3754 56.5733 47.3488 56.0667 47.3488 55.48C47.3488 54.84 47.3488 54.36 47.3488 54.04C47.3488 51.48 47.7488 49.1333 48.5488 47C49.4021 44.8133 50.4954 42.7867 51.8288 40.92C53.1621 39.0533 54.6554 37.2933 56.3088 35.64C57.9621 33.9867 59.6154 32.36 61.2688 30.76C62.5488 29.5333 63.7754 28.3333 64.9488 27.16C66.1221 25.9867 67.1354 24.84 67.9888 23.72C68.8954 22.5467 69.6154 21.3733 70.1488 20.2C70.6821 18.9733 70.9488 17.72 70.9488 16.44C70.9488 13.6667 70.1488 11.6933 68.5488 10.52C66.9488 9.34666 65.0021 8.76 62.7088 8.76C61.2154 8.76 59.8288 8.97333 58.5488 9.4C57.2688 9.82667 56.1221 10.3333 55.1088 10.92C54.1488 11.5067 53.2954 12.12 52.5488 12.76C51.8021 13.3467 51.2421 13.8267 50.8688 14.2L46.0688 7.4C48.3088 5.26667 50.9221 3.56 53.9088 2.28C56.9488 0.946664 60.2021 0.279996 63.6688 0.279996C69.5888 0.279996 73.9354 1.69333 76.7088 4.52C79.5354 7.29333 80.9488 11.1067 80.9488 15.96Z" fill="url(#paint0_linear)"/>
<defs>
<linearGradient id="paint0_linear" x1="42.5" y1="-19" x2="42.5" y2="73" gradientUnits="userSpaceOnUse">
<stop stop-color="#F2DF9A"/>
<stop offset="1" stop-color="#DABB68"/>
</linearGradient>
</defs>
</svg>
