<svg width="60" height="60" viewBox="0 0 60 60" fill="none" xmlns="http://www.w3.org/2000/svg">
<path d="M48.5742 22.0927H44.7967L45.9349 9.02519C45.937 9.00151 45.9373 8.97819 45.9374 8.95487C45.9374 8.95288 45.9377 8.95101 45.9377 8.94901C45.9377 8.94937 45.9377 8.94866 45.9377 8.94901C45.9377 8.59335 45.7231 8.27893 45.4078 8.14264C45.4051 8.14147 45.4025 8.14007 45.3998 8.13889C45.3802 8.13069 45.3599 8.12366 45.3396 8.11686C45.3319 8.1144 45.3247 8.11135 45.3171 8.10901C45.3004 8.10397 45.2833 8.09999 45.2663 8.09589C45.2544 8.09307 45.2429 8.08967 45.2308 8.08733C45.2159 8.0844 45.2005 8.08253 45.1852 8.0803C45.1709 8.07819 45.1569 8.07573 45.1424 8.07444C45.14 8.07421 45.1378 8.07374 45.1353 8.0735C45.1198 8.0721 45.1046 8.07233 45.0892 8.07174C45.0789 8.07139 45.0688 8.07022 45.0585 8.07022H45.0475C45.0466 8.07022 45.0456 8.07022 45.0448 8.07022H27.0716C26.5864 8.07022 26.1927 8.46397 26.1927 8.94913C26.1927 9.43312 26.5864 9.82804 27.0716 9.82804H44.1005L42.3514 29.9111C42.3511 29.9126 42.3511 29.9142 42.3509 29.9157L41.9096 34.983H11.3693L11.8802 29.7098H17.6951C18.1807 29.7098 18.5741 29.3163 18.5741 28.8309C18.5741 28.3455 18.1807 27.952 17.6951 27.952H12.0506L13.1292 16.8197H22.3841C22.8696 16.8197 23.263 16.4262 23.263 15.9408C23.263 15.4554 22.8696 15.0619 22.3841 15.0619H13.2995L13.8067 9.82804H23.556C24.0399 9.82804 24.4349 9.43312 24.4349 8.94913C24.4349 8.46397 24.0399 8.07022 23.556 8.07022H13.009C13.0086 8.07022 13.0082 8.07034 13.0077 8.07034C12.5949 8.07022 12.2368 8.36085 12.1502 8.76374C12.1496 8.76667 12.1485 8.76948 12.1479 8.77241C12.1435 8.79433 12.1406 8.81671 12.1376 8.83921C12.1368 8.84636 12.1353 8.85315 12.1346 8.8603C12.1345 8.86171 12.1341 8.863 12.134 8.8644L11.5335 15.0619H0.87891C0.3934 15.0619 0 15.4554 0 15.9408C0 16.4262 0.3934 16.8197 0.87891 16.8197H11.3631L10.2845 27.952H7.1487C6.66319 27.952 6.26979 28.3455 6.26979 28.8309C6.26979 29.3163 6.66319 29.7098 7.1487 29.7098H10.1143L9.52691 35.7709C9.5268 35.7718 9.5268 35.7728 9.52668 35.7736L8.61859 45.1461C8.61847 45.1472 8.61835 45.1484 8.61824 45.1493L8.61789 45.1527C8.61671 45.1649 8.61683 45.1768 8.61613 45.189C8.61531 45.2052 8.61367 45.221 8.61367 45.2374C8.61367 45.2381 8.61378 45.2388 8.61378 45.2397C8.61378 45.2623 8.61542 45.2845 8.61706 45.3068C8.61777 45.314 8.61753 45.3212 8.61835 45.3283C8.6207 45.351 8.62457 45.3734 8.62867 45.3956C8.62984 45.4022 8.63042 45.4089 8.63171 45.4153C8.63511 45.4322 8.63992 45.4485 8.64437 45.465C8.64742 45.4766 8.64988 45.4885 8.65339 45.4998C8.65445 45.503 8.65586 45.506 8.65679 45.5093C8.69933 45.6401 8.77152 45.7575 8.86574 45.8534C8.8675 45.8551 8.8689 45.8571 8.87066 45.8588C8.88003 45.8681 8.89023 45.8766 8.90007 45.8855C8.96066 45.941 9.0291 45.9881 9.10398 46.0251C9.11957 46.0328 9.13492 46.0409 9.15086 46.0476C9.15566 46.0497 9.16082 46.0511 9.16574 46.0529C9.18777 46.0617 9.20992 46.0702 9.23277 46.0773C9.23488 46.0779 9.23687 46.0783 9.23898 46.079C9.265 46.0867 9.29125 46.0935 9.31808 46.099C9.3216 46.0997 9.32523 46.0999 9.32863 46.1006C9.35418 46.1054 9.37984 46.1095 9.40597 46.1121C9.40656 46.1121 9.40703 46.1122 9.40762 46.1124C9.43644 46.1152 9.46504 46.1166 9.4934 46.1166C9.49375 46.1166 9.49422 46.1165 9.49469 46.1165H13.4074C13.8394 49.3922 16.6478 51.9293 20.0398 51.9293C23.4316 51.9293 26.24 49.3922 26.6721 46.1165H40.7697C41.2019 49.3922 44.0102 51.9293 47.4021 51.9293C50.7938 51.9293 53.6025 49.3922 54.0347 46.1165H57.9483C57.9489 46.1165 57.9496 46.1166 57.9502 46.1166C57.9795 46.1166 58.0083 46.1148 58.0369 46.112C58.042 46.1115 58.0469 46.1105 58.0521 46.1099C58.075 46.1072 58.0977 46.104 58.12 46.0996C58.1296 46.0977 58.1388 46.0951 58.1483 46.0929C58.1655 46.0889 58.1829 46.0847 58.1998 46.0797C58.2112 46.0763 58.2224 46.0723 58.2336 46.0684C58.248 46.0635 58.2625 46.0583 58.2766 46.0526C58.2888 46.0478 58.3004 46.0425 58.3123 46.0372C58.3252 46.0313 58.338 46.0252 58.3506 46.0187C58.3625 46.0126 58.374 46.0063 58.3855 45.9997C58.3976 45.9927 58.4095 45.9854 58.4214 45.9779C58.4324 45.9709 58.4434 45.9638 58.4539 45.9563C58.4659 45.9479 58.4773 45.9392 58.4889 45.9302C58.4985 45.9226 58.5082 45.9151 58.5176 45.9072C58.5296 45.897 58.541 45.8863 58.5525 45.8754C58.5605 45.8678 58.5688 45.8603 58.5765 45.8523C58.5887 45.8399 58.6003 45.8268 58.6119 45.8135C58.6181 45.8064 58.6246 45.7995 58.6305 45.7922C58.6434 45.7763 58.6552 45.7599 58.6669 45.7433C58.6709 45.7376 58.6753 45.7322 58.6792 45.7263C58.6935 45.7049 58.707 45.6829 58.7194 45.6601C58.7203 45.6587 58.7212 45.6574 58.7218 45.6559C58.7351 45.6315 58.7473 45.6066 58.7582 45.5808C58.7612 45.5734 58.7635 45.5658 58.7665 45.5584C58.7736 45.5402 58.7807 45.5221 58.7866 45.5032C58.7905 45.491 58.7933 45.4785 58.7967 45.4662C58.8006 45.4515 58.8047 45.437 58.808 45.4221C58.8109 45.4089 58.8128 45.3953 58.815 45.3818C58.817 45.37 58.8196 45.3584 58.8211 45.3463C58.8584 45.0477 59.5466 39.5259 59.854 35.9554C59.8543 35.952 59.8545 35.9485 59.8548 35.9451C59.9433 34.9159 60 34.0491 60 33.5185C60 27.2184 54.8744 22.0927 48.5742 22.0927ZM44.6436 23.8508H48.2393L47.78 29.1237H44.1843L44.6436 23.8508ZM20.0401 50.1714C17.3193 50.1714 15.1059 47.958 15.1059 45.2373C15.1059 42.5167 17.3194 40.3032 20.0401 40.3032C22.7607 40.3032 24.9742 42.5167 24.9742 45.2373C24.9742 47.958 22.7607 50.1714 20.0401 50.1714ZM47.4021 50.1714C44.6814 50.1714 42.4681 47.958 42.4681 45.2373C42.4681 42.5167 44.6815 40.3032 47.4021 40.3032C50.1228 40.3032 52.3363 42.5167 52.3363 45.2373C52.3363 47.958 50.1228 50.1714 47.4021 50.1714ZM57.1717 44.3581H54.0349C53.6029 41.0821 50.7944 38.5448 47.4023 38.5448C44.0104 38.5448 41.2019 41.0822 40.7699 44.3581H26.6724C26.2405 41.0821 23.4321 38.5448 20.0401 38.5448C16.6481 38.5448 13.8394 41.0822 13.4075 44.3581H10.4609L11.1991 36.7404H42.715C42.7155 36.7404 42.7158 36.7408 42.7163 36.7408C42.7457 36.7408 42.7749 36.7392 42.8037 36.7363C42.8091 36.7358 42.8144 36.7346 42.8198 36.7339C42.8427 36.7312 42.8656 36.7279 42.8881 36.7235C42.8978 36.7215 42.9073 36.7188 42.9169 36.7165C42.9345 36.7122 42.9521 36.7081 42.9692 36.703C42.9809 36.6995 42.992 36.6953 43.0034 36.6913C43.0182 36.6861 43.0329 36.6811 43.0472 36.6752C43.0595 36.6702 43.0714 36.6645 43.0833 36.6589C43.0963 36.6529 43.1093 36.647 43.1219 36.6404C43.1338 36.6341 43.1456 36.6273 43.1574 36.6205C43.1695 36.6135 43.1814 36.6063 43.1931 36.5988C43.2045 36.5914 43.2153 36.5837 43.2262 36.576C43.2378 36.5678 43.249 36.5593 43.2603 36.5505C43.2704 36.5424 43.2803 36.5341 43.2902 36.5256C43.3013 36.516 43.3122 36.5061 43.3228 36.4959C43.3317 36.4874 43.3406 36.4786 43.3492 36.4695C43.3598 36.4585 43.37 36.4472 43.3801 36.4356C43.3879 36.4264 43.3956 36.4173 43.4031 36.4079C43.4129 36.3956 43.4221 36.3829 43.4313 36.3702C43.4382 36.3606 43.4449 36.351 43.4514 36.3411C43.46 36.3279 43.4682 36.3143 43.476 36.3004C43.482 36.2901 43.4881 36.2798 43.4935 36.2693C43.5009 36.2554 43.5072 36.2414 43.5139 36.2272C43.519 36.2158 43.5243 36.2047 43.529 36.193C43.5347 36.1792 43.5395 36.165 43.5446 36.1508C43.5489 36.1383 43.5535 36.1257 43.5574 36.1128C43.5612 36.0992 43.5644 36.0853 43.5679 36.0715C43.5713 36.0575 43.5751 36.0437 43.5778 36.0295C43.5804 36.0157 43.5821 36.0016 43.5842 35.9876C43.5863 35.973 43.5888 35.9587 43.5902 35.944C43.5904 35.9419 43.5909 35.9399 43.591 35.9378L44.0315 30.8811H48.5739C51.2668 30.8811 52.4813 32.2763 53.767 33.7536C54.8279 34.9725 56.0123 36.3324 58.0256 36.6642C57.7699 39.3677 57.3566 42.8384 57.1717 44.3581ZM58.1759 34.9029C56.8698 34.6366 56.0662 33.7184 55.0928 32.6C53.8753 31.2014 52.389 29.4945 49.5398 29.1765L49.9945 23.956C54.6544 24.6452 58.2422 28.6703 58.2422 33.5188C58.2422 33.8482 58.2176 34.3268 58.1759 34.9029Z" fill="#08597D"/>
<path d="M20.0401 42.0147C18.2631 42.0147 16.8174 43.4603 16.8174 45.2374C16.8174 47.0144 18.2631 48.46 20.0401 48.46C21.817 48.46 23.2627 47.0144 23.2627 45.2374C23.2627 43.4605 21.817 42.0147 20.0401 42.0147ZM20.0401 46.7022C19.2323 46.7022 18.5752 46.0452 18.5752 45.2374C18.5752 44.4296 19.2323 43.7725 20.0401 43.7725C20.8478 43.7725 21.5049 44.4296 21.5049 45.2374C21.5049 46.0452 20.8477 46.7022 20.0401 46.7022Z" fill="#08597D"/>
<path d="M47.4021 42.0147C45.6252 42.0147 44.1794 43.4603 44.1794 45.2374C44.1794 47.0144 45.6252 48.46 47.4021 48.46C49.179 48.46 50.6248 47.0144 50.6248 45.2374C50.6248 43.4605 49.179 42.0147 47.4021 42.0147ZM47.4021 46.7022C46.5943 46.7022 45.9373 46.0452 45.9373 45.2374C45.9373 44.4296 46.5943 43.7725 47.4021 43.7725C48.2099 43.7725 48.867 44.4296 48.867 45.2374C48.867 46.0452 48.2099 46.7022 47.4021 46.7022Z" fill="#08597D"/>
<path d="M8.32038 22.093H4.02356C3.53805 22.093 3.14465 22.4865 3.14465 22.9719C3.14465 23.4573 3.53805 23.8508 4.02356 23.8508H8.32038C8.80589 23.8508 9.19929 23.4573 9.19929 22.9719C9.19929 22.4865 8.80589 22.093 8.32038 22.093Z" fill="#08597D"/>
</svg>
