<svg width="40" height="40" viewBox="0 0 40 40" fill="none" xmlns="http://www.w3.org/2000/svg">
<g clip-path="url(#clip0)">
<path d="M35.5253 12.2186L36.3433 11.2671L37.1404 11.9525C37.2477 12.0448 37.3843 12.095 37.5249 12.095C37.5397 12.095 37.5545 12.0945 37.5693 12.0934C37.7253 12.0816 37.8702 12.0084 37.9722 11.8897L39.2386 10.4167C39.4509 10.1697 39.4228 9.79734 39.1758 9.58501L34.8203 5.84051C34.7017 5.73851 34.5475 5.68724 34.3914 5.69958C34.2355 5.7113 34.0905 5.7846 33.9885 5.90319L32.7222 7.37617C32.5098 7.62319 32.5379 7.99556 32.7849 8.20789L33.582 8.89327L32.7015 9.91751C30.8977 8.76539 28.8451 7.97 26.6436 7.63223V5.85003H28.675C29.6231 5.85003 30.3943 5.0787 30.3943 4.13058V2.75826C30.3943 1.81015 29.623 1.03882 28.675 1.03882H19.8133C18.8651 1.03882 18.0938 1.81015 18.0938 2.75826V4.13058C18.0938 5.0787 18.8651 5.85003 19.8133 5.85003H21.8447V7.63223C19.5998 7.97668 17.51 8.7974 15.6807 9.98648L14.7408 8.89327L15.538 8.20789C15.6566 8.10589 15.7298 7.96096 15.7416 7.80501C15.7533 7.64906 15.7027 7.49476 15.6007 7.37609L14.3343 5.90311C14.1219 5.65617 13.7496 5.62802 13.5025 5.84043L9.1471 9.58493C9.0285 9.68693 8.95529 9.83187 8.94349 9.98782C8.93177 10.1438 8.98242 10.2981 9.08442 10.4167L10.3508 11.8897C10.4674 12.0254 10.6324 12.095 10.7983 12.095C10.9344 12.095 11.0713 12.0481 11.1825 11.9524L11.9797 11.2671L12.8752 12.3086C12.1002 13.1169 11.4106 14.0075 10.8204 14.9655C10.8005 14.9635 10.7803 14.9624 10.7597 14.9624H7.03499C6.70925 14.9624 6.44517 15.2265 6.44517 15.5523C6.44517 15.878 6.70925 16.1421 7.03499 16.1421H10.1633C9.85276 16.7586 9.5816 17.3982 9.35298 18.0575H3.39351C3.06778 18.0575 2.80369 18.3216 2.80369 18.6473C2.80369 18.9731 3.06778 19.2372 3.39351 19.2372H8.99492C8.78196 20.0547 8.63411 20.8982 8.55523 21.7613H0.589821C0.264082 21.7613 0 22.0254 0 22.3512C0 22.6769 0.264082 22.941 0.589821 22.941H8.49177C8.49027 23.0291 8.48839 23.1171 8.48839 23.2057C8.48839 23.9729 8.54462 24.727 8.6511 25.4652H2.84301C2.51728 25.4652 2.25319 25.7293 2.25319 26.055C2.25319 26.3807 2.51728 26.6448 2.84301 26.6448H8.86752C9.0138 27.2994 9.20057 27.9389 9.42581 28.5602H6.48449C6.15875 28.5602 5.89467 28.8243 5.89467 29.15C5.89467 29.4757 6.15875 29.7398 6.48449 29.7398H9.9086C12.3961 35.1755 17.886 38.9615 24.2442 38.9615C27.5651 38.9615 30.7412 37.9404 33.4294 36.0086C33.6939 35.8185 33.7543 35.4499 33.5642 35.1854C33.3739 34.9208 33.0054 34.8606 32.741 35.0507C30.2547 36.8375 27.3165 37.7819 24.2442 37.7819C16.2069 37.7819 9.66803 31.2431 9.66803 23.2058C9.66803 15.1684 16.2069 8.62958 24.2442 8.62958C28.1349 8.62958 31.6745 10.1619 34.2912 12.6547C34.2965 12.6604 34.3025 12.6656 34.3081 12.6711C37.0869 15.3269 38.8204 19.0677 38.8204 23.2058C38.8204 27.1039 37.301 30.7676 34.542 33.5217C34.3114 33.7519 34.3111 34.1253 34.5413 34.3558C34.7714 34.5863 35.1449 34.5867 35.3754 34.3565C38.3576 31.3795 40 27.4195 40 23.2057C40 18.9363 38.2924 15.059 35.5253 12.2186ZM34.4986 7.11948L37.9596 10.0949L37.4623 10.6733L34.0013 7.6979L34.4986 7.11948ZM34.4767 9.66231L35.4488 10.498L34.6702 11.4037C34.3501 11.1206 34.0191 10.8496 33.6766 10.5928L34.4767 9.66231ZM21.6357 4.67038V2.21846H22.5882V4.67038H21.6357ZM23.7679 2.21846H24.7204V4.67038H23.7679V2.21846ZM25.9001 4.67038V2.21846H26.8527V4.67038H25.9001ZM29.2148 2.75826V4.13058C29.2148 4.42824 28.9727 4.67038 28.6751 4.67038H28.0324V2.21846H28.6751C28.9727 2.21846 29.2148 2.4606 29.2148 2.75826ZM19.2735 4.13058V2.75826C19.2735 2.4606 19.5157 2.21846 19.8133 2.21846H20.4561V4.67038H19.8133C19.5157 4.67038 19.2735 4.42824 19.2735 4.13058ZM10.8607 10.6734L10.3634 10.095L13.8243 7.11956L14.3216 7.69797L13.5246 8.38327C13.5246 8.38327 13.5245 8.38335 13.5244 8.38335L11.6578 9.98813C11.6578 9.98821 11.6578 9.98821 11.6577 9.98829L10.8607 10.6734ZM12.8918 10.4829L13.8462 9.66231L14.712 10.6693C14.3717 10.9287 14.0421 11.2014 13.7243 11.487L12.8741 10.4981L12.8918 10.4829ZM23.0243 7.49665V5.85003H25.4641V7.49673C25.0614 7.46574 24.6546 7.44986 24.2442 7.44986C23.8337 7.44986 23.427 7.46574 23.0243 7.49665Z" fill="#08597D"/>
<path d="M19.3044 12.4602C19.1535 12.1715 18.7971 12.0598 18.5085 12.2107C14.9225 14.0851 12.47 17.5965 11.9478 21.6036C11.0642 28.3839 15.8616 34.6189 22.6419 35.5024C23.1835 35.573 23.7207 35.6073 24.2529 35.6072C30.3831 35.6067 35.7276 31.0469 36.5406 24.8083C36.9686 21.5238 36.092 18.2692 34.072 15.6441C32.0522 13.019 29.131 11.3375 25.8464 10.9095C24.244 10.7006 22.6459 10.8013 21.0961 11.2085C20.7811 11.2913 20.5928 11.6139 20.6755 11.9289C20.7584 12.2439 21.081 12.4321 21.3959 12.3495C22.1381 12.1544 22.893 12.038 23.6543 11.9989V13.5485C23.6543 13.8743 23.9183 14.1384 24.2441 14.1384C24.5699 14.1384 24.8339 13.8743 24.8339 13.5485V12.0003C25.1203 12.0158 25.407 12.0418 25.6941 12.0791C27.9911 12.3784 30.0914 13.3558 31.7709 14.8808L30.7027 15.9489C30.4723 16.1792 30.4723 16.5526 30.7027 16.783C30.8179 16.8982 30.9688 16.9557 31.1198 16.9557C31.2707 16.9557 31.4217 16.8982 31.5368 16.783L32.602 15.7178C32.7872 15.9253 32.9658 16.1405 33.1372 16.3633C34.5475 18.1962 35.3412 20.3683 35.4525 22.6302H33.9895C33.6636 22.6302 33.3996 22.8943 33.3996 23.22C33.3996 23.5458 33.6636 23.8099 33.9895 23.8099H35.4493C35.4337 24.0912 35.4077 24.3733 35.3709 24.6557C35.067 26.9873 34.0633 29.0594 32.5994 30.6891L31.589 29.6786C31.3585 29.4482 30.9851 29.4482 30.7548 29.6786C30.5245 29.9089 30.5245 30.2824 30.7548 30.5127L31.7664 31.5242C29.9086 33.2017 27.503 34.2544 24.9076 34.4071V32.9652C24.9076 32.6395 24.6436 32.3754 24.3178 32.3754C23.992 32.3754 23.728 32.6395 23.728 32.9652V34.4144C23.4184 34.3999 23.107 34.3732 22.7943 34.3324C20.4883 34.0319 18.4359 33.0472 16.8145 31.6094L17.8592 30.5647C18.0895 30.3344 18.0895 29.961 17.8592 29.7306C17.6288 29.5003 17.2554 29.5003 17.0251 29.7306L15.9744 30.7812C14.2718 28.9196 13.2009 26.4981 13.0437 23.8834H14.5726C14.8983 23.8834 15.1624 23.6193 15.1624 23.2936C15.1624 22.9678 14.8983 22.7037 14.5726 22.7037H13.035C13.0493 22.3895 13.0761 22.0733 13.1175 21.7559C13.4128 19.4901 14.3903 17.3994 15.8738 15.7358L16.973 16.835C17.0882 16.9502 17.2392 17.0077 17.3901 17.0077C17.541 17.0077 17.692 16.9502 17.8071 16.835C18.0375 16.6046 18.0375 16.2311 17.8071 16.0009L16.7049 14.8986C17.4075 14.2601 18.1947 13.7055 19.0549 13.2559C19.3436 13.1052 19.4553 12.7488 19.3044 12.4602Z" fill="#08597D"/>
<path d="M24.2443 17.7951C23.9185 17.7951 23.6545 18.0592 23.6545 18.3849V21.8885C23.1515 22.1146 22.7999 22.6193 22.7999 23.2056C22.7999 24.002 23.4479 24.6499 24.2443 24.6499C24.4626 24.6499 24.669 24.5998 24.8547 24.5127L28.7898 28.4477C28.905 28.563 29.0559 28.6205 29.2069 28.6205C29.3578 28.6205 29.5088 28.563 29.624 28.4477C29.8543 28.2174 29.8543 27.8439 29.624 27.6137L25.628 23.6176C25.667 23.4869 25.6886 23.3488 25.6886 23.2056C25.6886 22.6194 25.337 22.1146 24.8342 21.8885V18.385C24.8341 18.0592 24.57 17.7951 24.2443 17.7951ZM23.9796 23.2055C23.9796 23.0595 24.0983 22.9408 24.2443 22.9408C24.3902 22.9408 24.5089 23.0595 24.5089 23.2055C24.5089 23.3515 24.3902 23.4702 24.2443 23.4702C24.0982 23.4702 23.9796 23.3515 23.9796 23.2055Z" fill="#08597D"/>
</g>
<defs>
<clipPath id="clip0">
<rect width="40" height="40" rx="3" fill="white"/>
</clipPath>
</defs>
</svg>
