<svg width="60" height="60" viewBox="0 0 60 60" fill="none" xmlns="http://www.w3.org/2000/svg">
<path d="M52.6252 45.4686C53.1105 45.4686 53.5041 45.0751 53.5041 44.5897V23.496C53.5041 22.4469 53.0952 21.3738 52.3528 20.4744L45.8345 12.5767C45.493 12.1629 45.1004 11.8141 44.6741 11.5364C44.7002 11.2678 44.7151 10.9965 44.7151 10.7227V0.878906C44.7151 0.393516 44.3216 0 43.8362 0C43.3508 0 42.9573 0.393516 42.9573 0.878906C42.9573 0.878906 42.9555 10.8064 42.9548 10.8484C42.7048 10.8041 42.4509 10.7813 42.1956 10.7813H30.8284C30.0281 10.7813 29.2437 11.0058 28.5414 11.4184C28.511 11.4293 28.4809 11.4415 28.4514 11.4559L19.8837 15.6292C18.9344 16.1053 18.1754 16.9039 17.7462 17.8779C17.7415 17.8886 17.737 17.8992 17.7328 17.91L14.1905 26.895C14.0125 27.3466 14.2342 27.857 14.6858 28.0351C14.7916 28.0768 14.9006 28.0965 15.008 28.0965C15.3584 28.0965 15.6895 27.8855 15.8258 27.5398L19.3612 18.5721C19.6271 17.9781 20.092 17.4914 20.6626 17.205L25.1893 15.0001L20.6711 20.4745C19.9945 21.2941 19.637 22.3391 19.637 23.4962V53.8478C19.637 54.2012 19.668 54.5473 19.7244 54.8845L10.6679 50.8716C8.62207 49.9651 7.69488 47.5573 8.60144 45.5041C8.60531 45.4952 8.60906 45.4862 8.61281 45.4773L14.3413 31.2409C14.5225 30.7905 14.3044 30.2787 13.854 30.0974C13.4034 29.9162 12.8918 30.1344 12.7105 30.5846L6.98707 44.8078C5.70011 47.7434 7.02949 51.1819 9.95578 52.4784L20.5758 57.1842C20.5888 57.19 20.602 57.1942 20.6152 57.1992C21.693 58.8834 23.5566 59.9999 25.6721 59.9999H47.3518C50.6868 59.9999 53.5042 57.1825 53.5042 53.8475V48.6913C53.5042 48.2059 53.1107 47.8124 52.6253 47.8124C52.1399 47.8124 51.7464 48.2059 51.7464 48.6913V53.8475C51.7464 56.2296 49.7339 58.2421 47.3518 58.2421H25.6721C23.3136 58.2421 21.3948 56.2707 21.3948 53.8475V23.496C21.3948 22.7415 21.6074 22.1013 22.0268 21.5933L28.5451 13.6956C29.1518 12.9606 29.9841 12.5389 30.8284 12.5389H42.1956C42.3612 12.5389 42.5262 12.5557 42.6892 12.5873C42.139 14.4636 40.7761 16.0293 38.9357 16.8138C38.4544 16.0089 37.5745 15.4686 36.5705 15.4686C35.052 15.4686 33.8166 16.704 33.8166 18.2225C33.8166 19.7411 35.052 20.9764 36.5705 20.9764C37.9747 20.9764 39.1361 19.9196 39.303 18.5597C41.6701 17.6644 43.46 15.7673 44.2575 13.4518C44.334 13.5288 44.4081 13.6098 44.4789 13.6956L50.9972 21.5934C51.4802 22.1787 51.7464 22.8544 51.7464 23.4961V44.5898C51.7462 45.0751 52.1398 45.4686 52.6252 45.4686ZM36.5705 19.2186C36.0212 19.2186 35.5744 18.7718 35.5744 18.2225C35.5744 17.6733 36.0212 17.2264 36.5705 17.2264C37.1197 17.2264 37.5666 17.6733 37.5666 18.2225C37.5666 18.7718 37.1197 19.2186 36.5705 19.2186Z" fill="#08597D"/>
<path d="M28.9533 46.7578C29.1782 46.7578 29.4032 46.672 29.5747 46.5003L44.5747 31.5003C44.918 31.1571 44.918 30.6005 44.5747 30.2574C44.2315 29.9142 43.675 29.9142 43.3318 30.2574L28.3318 45.2574C27.7714 45.7797 28.2014 46.7844 28.9533 46.7578Z" fill="#08597D"/>
<path d="M30.8283 37.5C32.9283 37.5 34.6369 35.7914 34.6369 33.6914C34.6369 31.5914 32.9283 29.8828 30.8283 29.8828H30.7111C28.6111 29.8828 26.9025 31.5914 26.9025 33.6914C26.9025 35.7914 28.6111 37.5 30.7111 37.5H30.8283ZM28.6603 33.6914C28.6603 32.5606 29.5804 31.6406 30.7111 31.6406H30.8283C31.9591 31.6406 32.8791 32.5606 32.8791 33.6914C32.8791 34.8221 31.9591 35.7422 30.8283 35.7422H30.7111C29.5804 35.7422 28.6603 34.8221 28.6603 33.6914Z" fill="#08597D"/>
<path d="M42.1955 46.7578H42.3127C44.4127 46.7578 46.1213 45.0492 46.1213 42.9492C46.1213 40.8492 44.4127 39.1406 42.3127 39.1406H42.1955C40.0955 39.1406 38.3869 40.8492 38.3869 42.9492C38.3869 45.0492 40.0955 46.7578 42.1955 46.7578ZM42.1955 40.8984H42.3127C43.4434 40.8984 44.3635 41.8185 44.3635 42.9492C44.3635 44.08 43.4434 45 42.3127 45H42.1955C41.0648 45 40.1447 44.08 40.1447 42.9492C40.1447 41.8185 41.0648 40.8984 42.1955 40.8984Z" fill="#08597D"/>
</svg>
