<svg width="60" height="60" viewBox="0 0 60 60" fill="none" xmlns="http://www.w3.org/2000/svg">
<g clip-path="url(#clip0)">
<path d="M28.9874 22.8778C29.3784 23.2491 30.0284 23.174 30.3255 22.7258L36.1752 13.8974C36.4435 13.4927 36.3327 12.9471 35.928 12.6788C35.5238 12.411 34.9782 12.5218 34.7099 12.926L29.4383 20.882L26.5091 18.1006C26.1571 17.7664 25.6009 17.7811 25.2663 18.1331C24.9321 18.4851 24.9468 19.0413 25.2988 19.3755C25.2983 19.3755 28.9842 22.8751 28.9874 22.8778Z" fill="#08597D"/>
<path d="M29.5871 36.2832C29.7551 36.3601 29.941 36.4009 30.1259 36.4009H30.1332C30.3214 36.4 30.51 36.3569 30.6784 36.2764C44.0433 29.9203 46.3083 16.2066 46.6837 12.155C46.7698 11.2298 46.2488 10.3683 45.3878 10.0113C42.7272 8.90668 40.9186 6.43659 40.6678 3.56503C40.5904 2.68109 39.8351 1.99216 38.9452 1.99216H38.9347L20.929 2.0979C20.0212 2.10294 19.2838 2.79279 19.2142 3.70236C18.9926 6.57483 17.2106 9.06278 14.5633 10.1953C13.711 10.5597 13.2028 11.4258 13.2999 12.3504C13.7229 16.3975 16.1486 30.0842 29.5871 36.2832ZM15.2545 11.8112C18.5006 10.4233 20.6873 7.37592 20.9652 3.85526L38.9191 3.74997C39.2382 7.26285 41.456 10.2823 44.7139 11.6345C44.8595 11.6954 44.9479 11.8391 44.9337 11.9929C44.5812 15.7901 42.4723 28.5933 30.1227 34.5932C17.7022 28.7393 15.445 15.9608 15.0476 12.1678C15.0316 12.0144 15.1149 11.8712 15.2545 11.8112Z" fill="#08597D"/>
<path d="M17.449 16.6837C17.5552 17.0746 18.0509 17.4326 18.5279 17.3012C18.9958 17.1721 19.2727 16.691 19.1455 16.2227C18.9216 15.3978 18.7335 14.5615 18.5856 13.7329C20.9733 12.177 22.7453 9.85474 23.6146 7.14249L36.3075 7.06787C37.2084 9.76914 39.0074 12.0712 41.4134 13.5988C41.2756 14.4296 41.0971 15.2687 40.8824 16.0968C40.7606 16.5669 41.043 17.0467 41.5127 17.1684C41.9833 17.2902 42.4626 17.0078 42.5843 16.5376C42.8361 15.5653 43.0412 14.5784 43.1932 13.6043C43.2783 13.06 43.0293 12.5249 42.5596 12.2411C40.3184 10.8875 38.6618 8.76389 37.895 6.26175C37.7224 5.69916 37.1919 5.30823 36.6032 5.30823H36.595L23.3061 5.38605C22.7137 5.38971 22.1836 5.78842 22.0175 6.35513C21.2805 8.86597 19.6485 11.0088 17.4234 12.3889C16.9569 12.6778 16.7147 13.2156 16.8058 13.7595C16.9697 14.7313 17.1858 15.715 17.449 16.6837Z" fill="#08597D"/>
<path d="M40.8078 19.2896C40.3592 19.1038 39.8456 19.318 39.6602 19.7666C37.6291 24.6894 34.4138 28.4321 30.1007 30.8953C25.7543 28.4797 22.4923 24.7686 20.4039 19.8614C20.2135 19.415 19.6971 19.2072 19.2508 19.3972C18.804 19.5872 18.5962 20.1035 18.7862 20.5498C21.0654 25.9048 24.6561 29.9418 29.4585 32.5478C29.6608 32.6581 29.8824 32.7126 30.1035 32.7126C30.3301 32.7126 30.5562 32.6554 30.7622 32.5405C35.5284 29.8814 39.0688 25.8091 41.2853 20.4368C41.4707 19.9882 41.2569 19.4746 40.8078 19.2896Z" fill="#08597D"/>
<path d="M5.63913 46.9657C3.9248 46.9657 2.52954 48.3605 2.52954 50.0753C2.52954 51.79 3.9248 53.1848 5.63913 53.1848C7.35391 53.1848 8.74918 51.79 8.74918 50.0753C8.74918 48.3605 7.35437 46.9657 5.63913 46.9657ZM5.63913 51.427C4.89389 51.427 4.28735 50.821 4.28735 50.0753C4.28735 49.33 4.89389 48.7235 5.63913 48.7235C6.38483 48.7235 6.99136 49.33 6.99136 50.0753C6.99136 50.821 6.38483 51.427 5.63913 51.427Z" fill="#08597D"/>
<path d="M59.3697 38.3612C58.2431 36.706 55.9749 36.2674 54.3137 37.3835L42.8238 45.0734L40.3711 44.9356L40.3084 44.3076C40.0639 41.848 38.1839 39.8883 35.7367 39.5423C35.7211 39.54 35.706 39.5381 35.6905 39.5368L23.3098 38.4519C22.8909 38.3864 21.5501 38.0014 17.8661 35.8884C15.9512 34.7902 13.7938 34.1704 11.602 34.0862V31.7868C11.602 30.6328 10.6636 29.6944 9.50958 29.6944H2.09244C0.938873 29.6944 0 30.6333 0 31.7868V54.4329C0 55.5864 0.938873 56.5253 2.09244 56.5253H9.50958C10.6631 56.5253 11.602 55.5864 11.602 54.4329V53.8089L22.4245 57.9073C22.4483 57.9164 23.3272 58.2451 24.9431 58.0927C24.9477 58.0922 42.9254 55.5004 42.9254 55.5004C42.93 55.4999 42.9341 55.499 42.9387 55.4981C44.4749 55.2532 45.9238 54.6036 47.1291 53.6208C47.14 53.6116 47.1506 53.6025 47.1611 53.5933L58.775 43.1476C60.1437 41.9323 60.3996 39.8746 59.3697 38.3612ZM57.6036 41.837L46.002 52.2718C45.0417 53.0504 43.889 53.5654 42.6677 53.7613L24.6986 56.3518C24.6945 56.3523 24.6886 56.3532 24.6831 56.3541C24.6803 56.3546 24.6771 56.355 24.6744 56.3555C24.137 56.4402 23.5771 56.4045 23.0099 56.2493L11.602 51.9294V41.892C11.602 41.4063 11.2083 41.0131 10.7231 41.0131C10.2374 41.0131 9.84421 41.4063 9.84421 41.892V54.4329C9.84421 54.6173 9.69406 54.7675 9.50958 54.7675H2.09244C1.90796 54.7675 1.75781 54.6173 1.75781 54.4329V31.7868C1.75781 31.6024 1.90796 31.4522 2.09244 31.4522H9.50958C9.69406 31.4522 9.84421 31.6024 9.84421 31.7868V37.9218C9.84421 38.4075 10.2379 38.8007 10.7231 38.8007C11.2088 38.8007 11.602 38.407 11.602 37.9218V35.8458C13.4875 35.9291 15.3424 36.4675 16.9913 37.4137C21.4348 39.962 22.6758 40.1378 23.0836 40.1955C23.0992 40.1978 23.1143 40.1992 23.1299 40.201L35.5119 41.2859C37.1443 41.5271 38.3958 42.8382 38.5593 44.4815L38.606 44.9498L22.029 45.9734C22.0175 45.9725 22.0061 45.9716 21.996 45.9706C21.4586 45.9221 20.9734 45.6681 20.6287 45.2552C20.3178 44.8821 19.7635 44.8317 19.3909 45.143C19.0178 45.4538 18.9674 46.0082 19.2787 46.3808C19.9237 47.1544 20.8337 47.6172 21.8394 47.7216C22.3824 47.7784 39.5728 46.6513 39.5728 46.6513L43.0188 46.845C43.2092 46.856 43.3983 46.8038 43.5567 46.6976L55.2928 38.8433C56.1548 38.2642 57.3317 38.4912 57.9163 39.35C58.4505 40.1355 58.3177 41.203 57.6036 41.837Z" fill="#08597D"/>
</g>
<defs>
<clipPath id="clip0">
<rect width="60" height="60" rx="3" fill="white"/>
</clipPath>
</defs>
</svg>
