<svg width="60" height="60" viewBox="0 0 60 60" fill="none" xmlns="http://www.w3.org/2000/svg">
<g clip-path="url(#clip0)">
<path d="M51.4421 48.2482C49.7314 48.2482 48.3396 49.6399 48.3396 51.3508C48.3396 53.0615 49.7313 54.4532 51.4421 54.4532C53.1528 54.4532 54.5446 53.0615 54.5446 51.3508C54.5446 49.6401 53.1528 48.2482 51.4421 48.2482ZM51.442 52.6145C50.7452 52.6145 50.1783 52.0476 50.1783 51.3508C50.1783 50.654 50.7452 50.087 51.442 50.087C52.1388 50.087 52.7058 50.654 52.7058 51.3508C52.7058 52.0476 52.1388 52.6145 51.442 52.6145Z" fill="#08597D"/>
<path d="M59.8011 51.19C59.7425 48.9185 58.7811 46.8293 57.0938 45.3074L38.5838 28.6123L54.95 12.2461C55.0576 12.214 55.1639 12.174 55.2664 12.1199L58.8105 10.2493C59.3001 9.99081 59.6285 9.52839 59.7111 8.98101C59.7938 8.43351 59.6168 7.89491 59.2253 7.50304L55.2348 3.51269C54.8431 3.12116 54.3049 2.94409 53.7569 3.02683C53.2095 3.10945 52.7472 3.43781 52.4886 3.92753L50.6179 7.4714C50.5633 7.57488 50.5214 7.68187 50.4892 7.7905L42.7642 15.5155C42.4051 15.8747 42.4051 16.4566 42.7642 16.8158C43.1233 17.1746 43.7053 17.1746 44.0645 16.8158L51.1534 9.72679L53.0112 11.5846L34.8822 29.7135L33.0245 27.8557L40.9376 19.9427C41.2966 19.5835 41.2966 19.0016 40.9376 18.6424C40.5784 18.2836 39.9964 18.2836 39.6372 18.6424L33.8958 24.3839L27.6471 18.7479C29.4187 13.6484 28.1358 7.97472 24.2926 4.13167C20.3561 0.195227 14.4508 -1.05927 9.24794 0.936086C8.9572 1.04765 8.74263 1.29866 8.67794 1.60323C8.61326 1.90781 8.70689 2.22445 8.92708 2.44464L16.1449 9.66257C16.3584 9.87609 16.4762 10.16 16.4762 10.462C16.4762 10.764 16.3585 11.048 16.1449 11.2616L11.4575 15.949C11.244 16.1626 10.9601 16.2803 10.6581 16.2803C10.3561 16.2803 10.0721 16.1627 9.85849 15.949L2.64056 8.73105C2.42025 8.51085 2.10384 8.41722 1.79915 8.48191C1.49458 8.54671 1.24357 8.76116 1.13201 9.05191C-0.863346 14.2546 0.391147 20.1599 4.32771 24.0966C8.07665 27.8454 13.6404 29.1653 18.6596 27.5435L23.4909 32.8267C23.2588 33.2803 22.9569 33.7034 22.5846 34.0757C21.1919 35.4683 19.1047 35.9071 17.2666 35.1936C16.9269 35.0614 16.5415 35.1428 16.2836 35.4005L5.02673 46.6574C1.97939 49.7048 1.97939 54.6633 5.02673 57.7105C6.50318 59.1872 8.46595 60.0001 10.5536 60.0001C12.6412 60.0001 14.6041 59.1872 16.0803 57.711L27.3372 46.4542C27.5948 46.1965 27.676 45.8109 27.5441 45.4712C26.8305 43.6332 27.2693 41.5458 28.6618 40.1531C30.0547 38.7605 32.142 38.3217 33.98 39.0351C34.32 39.1673 34.7052 39.0858 34.963 38.8283L37.0864 36.7049C37.7258 36.0655 38.0778 35.2153 38.0778 34.3112C38.0778 33.4071 37.7258 32.5569 37.0864 31.9175L36.1826 31.0137L37.2821 29.9141L55.8624 46.6727C57.1717 47.8536 57.9178 49.4748 57.9631 51.2373C58.0085 52.9998 57.3469 54.6572 56.1001 55.9038C54.8593 57.1448 53.2062 57.8053 51.4552 57.7675C49.7008 57.7283 48.0825 56.9935 46.8983 55.6985L33.0832 40.5913C32.7402 40.2164 32.1589 40.1906 31.7843 40.5333C31.4096 40.876 31.3836 41.4575 31.7263 41.8322L45.5413 56.9394C47.0675 58.6083 49.1532 59.5551 51.4141 59.6057C51.4774 59.6071 51.5406 59.6078 51.6037 59.6078C53.7937 59.6078 55.8458 58.7583 57.4003 57.204C59.0069 55.5973 59.8595 53.4614 59.8011 51.19ZM52.2831 8.25597L54.0431 4.92152L57.8164 8.69484L54.482 10.4549L52.2831 8.25597ZM19.6083 25.8562C19.3551 25.5797 18.9597 25.4843 18.6084 25.6153C14.1127 27.2923 9.0172 26.1858 5.62779 22.7967C2.55021 19.719 1.35771 15.2572 2.40853 11.0996L8.55818 17.2493C9.11915 17.8101 9.86482 18.1189 10.6579 18.1189C11.4511 18.1189 12.1967 17.8101 12.7576 17.2493L17.445 12.5619C18.0058 12.0009 18.3146 11.2553 18.3146 10.4621C18.3146 9.66901 18.0058 8.92335 17.445 8.36249L11.2954 2.21261C15.4527 1.16132 19.9149 2.35417 22.9924 5.43187C26.4681 8.9073 27.5361 14.1041 25.7137 18.6715C25.5711 19.0288 25.666 19.4372 25.9518 19.6949L32.5939 25.6857L31.7242 26.5555L30.8203 25.6516C30.1809 25.0123 29.3307 24.6602 28.4266 24.6602C27.5225 24.6602 26.6723 25.0123 26.0329 25.6516L23.9095 27.7751C23.6519 28.0328 23.5707 28.4183 23.7027 28.758C23.9472 29.3879 24.0533 30.0468 24.0351 30.6973L19.6083 25.8562ZM35.786 35.4047L34.0654 37.1253C31.6992 36.4432 29.1243 37.0903 27.3617 38.8528H27.3616C25.5991 40.6154 24.9519 43.1899 25.6343 45.5566L14.7801 56.4105C13.6511 57.5395 12.1502 58.1613 10.5538 58.1613C8.95732 58.1613 7.45615 57.5395 6.3274 56.4105C3.99689 54.0801 3.99689 50.2882 6.3274 47.9577L17.1814 37.1037C19.5479 37.7862 22.1224 37.1386 23.8851 35.3761C25.6476 33.6135 26.295 31.039 25.6126 28.6724L27.3333 26.9518C27.9361 26.3488 28.9173 26.3488 29.5201 26.9518L31.0741 28.5058L34.232 31.6637L35.786 33.2177C36.389 33.8208 36.389 34.8019 35.786 35.4047Z" fill="#08597D"/>
<path d="M19.0226 40.576C18.6634 40.2171 18.0815 40.2171 17.7223 40.576L9.01313 49.2852C8.65407 49.6444 8.65407 50.2263 9.01313 50.5855C9.19266 50.7649 9.42809 50.8547 9.66329 50.8547C9.89848 50.8547 10.1339 50.7649 10.3134 50.5855L19.0226 41.8763C19.3815 41.5172 19.3815 40.9351 19.0226 40.576Z" fill="#08597D"/>
<path d="M22.2404 43.7939C21.8814 43.4349 21.2993 43.4349 20.9401 43.7939L12.231 52.5029C11.8719 52.8621 11.8719 53.444 12.231 53.8032C12.4105 53.9826 12.6458 54.0724 12.8811 54.0724C13.1163 54.0724 13.3517 53.9826 13.5313 53.8032L22.2404 45.0942C22.5995 44.735 22.5995 44.153 22.2404 43.7939Z" fill="#08597D"/>
</g>
<defs>
<clipPath id="clip0">
<rect width="60" height="60" rx="3" fill="white"/>
</clipPath>
</defs>
</svg>
