<svg width="60" height="60" viewBox="0 0 60 60" fill="none" xmlns="http://www.w3.org/2000/svg">
<path d="M31.99 39.497H47.985C48.5848 39.497 48.9846 39.0972 48.9846 38.4974V29.5002C48.9846 28.9004 48.5848 28.5005 47.985 28.5005H31.99C31.3902 28.5005 30.9904 28.9004 30.9904 29.5002V38.4974C30.9902 39.0971 31.3902 39.497 31.99 39.497ZM32.9897 30.4998H46.9853V37.4976H32.9897V30.4998Z" fill="#08597D"/>
<path d="M4.99843 26.5013H12.996C13.5958 26.5013 13.9956 26.1015 13.9956 25.5017C13.9956 24.9018 13.5958 24.502 12.996 24.502H4.99843C4.39862 24.502 3.99878 24.9018 3.99878 25.5017C3.99878 26.1015 4.39862 26.5013 4.99843 26.5013Z" fill="#08597D"/>
<path d="M16.9948 26.5013H24.9923C25.5921 26.5013 25.992 26.1015 25.992 25.5017C25.992 24.9018 25.5921 24.502 24.9923 24.502H16.9948C16.395 24.502 15.9951 24.9018 15.9951 25.5017C15.9951 26.1015 16.395 26.5013 16.9948 26.5013Z" fill="#08597D"/>
<path d="M4.99843 30.4998H17.9943C18.5941 30.4998 18.994 30.1 18.994 29.5002C18.994 28.9004 18.5941 28.5005 17.9943 28.5005H4.99843C4.39862 28.5005 3.99878 28.9004 3.99878 29.5002C3.99878 30.1 4.39862 30.4998 4.99843 30.4998Z" fill="#08597D"/>
<path d="M24.9921 28.5005H21.9931C21.3932 28.5005 20.9934 28.9003 20.9934 29.5001C20.9934 30.0999 21.3932 30.4998 21.9931 30.4998H24.9921C25.5919 30.4998 25.9918 30.0999 25.9918 29.5001C25.9918 28.9003 25.5919 28.5005 24.9921 28.5005Z" fill="#08597D"/>
<path d="M59.0815 16.1045C58.3818 15.2047 57.4821 14.7049 56.3824 14.6049L53.9831 14.3142V11.5058V9.50652C53.9831 7.30725 52.1837 5.50781 49.9844 5.50781H3.99871C1.79944 5.5077 0 7.30713 0 9.50652V11.5059V19.5035V41.4966C0 43.3022 1.21333 44.8375 2.86469 45.3295C2.81432 47.3518 4.34442 49.1074 6.39808 49.2941L52.5836 54.4925C52.6836 54.4925 52.8836 54.4925 52.9835 54.4925C54.9829 54.4925 56.7823 52.9929 56.9822 51.0936L59.9813 19.0036C60.0812 18.0038 59.7813 16.9041 59.0815 16.1045ZM1.99941 12.5056H51.9838V15.1048V18.5037H1.99941V12.5056ZM3.99871 7.50711H49.9843C51.084 7.50711 51.9837 8.40683 51.9837 9.50652V10.5062H1.99941V9.50652C1.99941 8.40683 2.89913 7.50711 3.99871 7.50711ZM1.99941 41.4965V20.503H51.9838V41.4965C51.9838 42.5961 51.0841 43.4959 49.9844 43.4959H4.09876H3.99883C2.89913 43.4959 1.99941 42.5961 1.99941 41.4965ZM57.9818 18.6036L54.9828 50.6936C54.8829 51.7933 53.8831 52.593 52.7835 52.4931L6.69787 47.2947C5.69822 47.1948 4.99836 46.395 4.89843 45.4953H49.9843C52.1836 45.4953 53.983 43.6958 53.983 41.4966V19.5034V16.2044L56.2823 16.4044C56.7822 16.4044 57.282 16.7043 57.5819 17.1041C57.8819 17.5039 58.0819 18.1038 57.9818 18.6036Z" fill="#08597D"/>
</svg>
