<svg width="60" height="60" viewBox="0 0 60 60" fill="none" xmlns="http://www.w3.org/2000/svg">
<g clip-path="url(#clip0)">
<path d="M53.2879 18.3277L54.5149 16.9005L55.7106 17.9285C55.8716 18.067 56.0765 18.1424 56.2874 18.1424C56.3096 18.1424 56.3318 18.1416 56.3539 18.1399C56.5879 18.1222 56.8053 18.0124 56.9583 17.8344L58.8579 15.6249C59.1764 15.2544 59.1342 14.6958 58.7637 14.3773L52.2305 8.76058C52.0525 8.60758 51.8212 8.53067 51.5871 8.54919C51.3532 8.56677 51.1358 8.67671 50.9828 8.8546L49.0832 11.0641C48.7647 11.4346 48.8068 11.9932 49.1774 12.3117L50.373 13.3397L49.0522 14.8761C46.3466 13.1479 43.2676 11.9548 39.9654 11.4482V8.77486H43.0124C44.4346 8.77486 45.5915 7.61786 45.5915 6.19569V4.13721C45.5915 2.71504 44.4345 1.55804 43.0124 1.55804H29.7199C28.2977 1.55804 27.1407 2.71504 27.1407 4.13721V6.19569C27.1407 7.61786 28.2977 8.77486 29.7199 8.77486H32.767V11.4482C29.3997 11.9648 26.265 13.1959 23.521 14.9795L22.1112 13.3397L23.307 12.3117C23.4849 12.1587 23.5947 11.9413 23.6124 11.7073C23.63 11.4734 23.554 11.242 23.401 11.064L21.5014 8.85448C21.1828 8.48408 20.6244 8.44184 20.2537 8.76047L13.7206 14.3772C13.5428 14.5302 13.4329 14.7476 13.4152 14.9815C13.3977 15.2155 13.4736 15.4469 13.6266 15.6249L15.5262 17.8344C15.7011 18.0379 15.9486 18.1423 16.1974 18.1423C16.4016 18.1423 16.6069 18.072 16.7738 17.9284L17.9695 16.9005L19.3127 18.4628C18.1503 19.6751 17.1159 21.011 16.2306 22.4481C16.2007 22.445 16.1704 22.4435 16.1396 22.4435H10.5525C10.0639 22.4435 9.66775 22.8396 9.66775 23.3282C9.66775 23.8168 10.0639 24.2129 10.5525 24.2129H15.245C14.7791 25.1378 14.3724 26.0971 14.0295 27.0861H5.09027C4.60166 27.0861 4.20554 27.4822 4.20554 27.9708C4.20554 28.4594 4.60166 28.8555 5.09027 28.8555H13.4924C13.1729 30.0819 12.9512 31.3471 12.8328 32.6418H0.884731C0.396124 32.6418 0 33.038 0 33.5266C0 34.0152 0.396124 34.4113 0.884731 34.4113H12.7376C12.7354 34.5435 12.7326 34.6755 12.7326 34.8084C12.7326 35.9591 12.8169 37.0904 12.9766 38.1976H4.26452C3.77591 38.1976 3.37979 38.5937 3.37979 39.0823C3.37979 39.5709 3.77591 39.9671 4.26452 39.9671H13.3013C13.5207 40.949 13.8009 41.9082 14.1387 42.8401H9.72673C9.23813 42.8401 8.842 43.2362 8.842 43.7248C8.842 44.2134 9.23813 44.6095 9.72673 44.6095H14.8629C18.5941 52.7631 26.8291 58.442 36.3663 58.442C41.3476 58.442 46.1118 56.9104 50.1441 54.0127C50.5408 53.7276 50.6314 53.1747 50.3463 52.778C50.0608 52.381 49.5081 52.2908 49.1114 52.5759C45.382 55.256 40.9747 56.6727 36.3663 56.6727C24.3103 56.6727 14.502 46.8644 14.502 34.8085C14.502 22.7524 24.3103 12.9442 36.3663 12.9442C42.2024 12.9442 47.5117 15.2427 51.4367 18.9819C51.4448 18.9904 51.4537 18.9982 51.4621 19.0065C55.6304 22.9901 58.2305 28.6013 58.2305 34.8085C58.2305 40.6557 55.9515 46.1512 51.813 50.2823C51.4672 50.6276 51.4667 51.1877 51.812 51.5336C52.1571 51.8793 52.7174 51.8799 53.0631 51.5346C57.5364 47.0691 60 41.129 60 34.8084C60 28.4043 57.4386 22.5883 53.2879 18.3277ZM51.7479 10.679L56.9394 15.1422L56.1934 16.0098L51.0019 11.5467L51.7479 10.679ZM51.715 14.4933L53.1732 15.7469L52.0053 17.1054C51.5252 16.6807 51.0286 16.2742 50.515 15.889L51.715 14.4933ZM32.4536 7.00539V3.32751H33.8824V7.00539H32.4536ZM35.6518 3.32751H37.0806V7.00539H35.6518V3.32751ZM38.8501 7.00539V3.32751H40.279V7.00539H38.8501ZM43.8223 4.13721V6.19569C43.8223 6.64218 43.4591 7.00539 43.0127 7.00539H42.0486V3.32751H43.0127C43.4591 3.32751 43.8223 3.69072 43.8223 4.13721ZM28.9103 6.19569V4.13721C28.9103 3.69072 29.2735 3.32751 29.72 3.32751H30.6841V7.00539H29.72C29.2735 7.00539 28.9103 6.64218 28.9103 6.19569ZM16.2911 16.01L15.5451 15.1423L20.7364 10.6792L21.4825 11.5468L20.2869 12.5747C20.2869 12.5747 20.2868 12.5748 20.2866 12.5748L17.4868 14.982C17.4867 14.9821 17.4866 14.9821 17.4865 14.9823L16.2911 16.01ZM19.3377 15.7241L20.7694 14.4933L22.068 16.0038C21.5576 16.3929 21.0632 16.8018 20.5865 17.2303L19.3112 15.747L19.3377 15.7241ZM34.5365 11.2448V8.77486H38.1961V11.2449C37.5921 11.1984 36.9819 11.1746 36.3662 11.1746C35.7506 11.1746 35.1405 11.1984 34.5365 11.2448Z" fill="url(#paint0_linear)"/>
<path d="M28.9566 18.6897C28.7302 18.2566 28.1956 18.0891 27.7626 18.3154C22.3837 21.1269 18.7049 26.394 17.9216 32.4048C16.5963 42.5752 23.7923 51.9277 33.9627 53.2529C34.7753 53.3589 35.581 53.4103 36.3793 53.4102C45.5745 53.4094 53.5914 46.5697 54.8109 37.2118C55.4529 32.285 54.1379 27.4032 51.108 23.4655C48.0782 19.5278 43.6964 17.0056 38.7695 16.3635C36.3659 16.0502 33.9687 16.2013 31.6441 16.8122C31.1716 16.9364 30.8892 17.4201 31.0133 17.8927C31.1375 18.3653 31.6215 18.6474 32.0938 18.5236C33.2072 18.231 34.3395 18.0563 35.4814 17.9977V20.3222C35.4814 20.8108 35.8774 21.2069 36.3661 21.2069C36.8548 21.2069 37.2509 20.8108 37.2509 20.3222V17.9998C37.6804 18.0231 38.1105 18.062 38.541 18.118C41.9865 18.567 45.137 20.0331 47.6564 22.3205L46.0541 23.9227C45.7084 24.2682 45.7084 24.8283 46.0539 25.1738C46.2268 25.3466 46.4531 25.433 46.6796 25.433C46.906 25.433 47.1325 25.3466 47.3052 25.1738L48.9029 23.5761C49.1808 23.8873 49.4487 24.2102 49.7058 24.5442C51.8212 27.2936 53.0117 30.5518 53.1787 33.9447H50.9841C50.4954 33.9447 50.0994 34.3408 50.0994 34.8294C50.0994 35.318 50.4954 35.7141 50.9841 35.7141H53.1739C53.1505 36.1362 53.1115 36.5594 53.0563 36.9829C52.6005 40.4804 51.0949 43.5885 48.8991 46.0329L47.3834 44.5172C47.0378 44.1717 46.4777 44.1717 46.1321 44.5172C45.7866 44.8627 45.7866 45.423 46.1321 45.7684L47.6495 47.2857C44.8629 49.8019 41.2544 51.381 37.3614 51.6101V49.4472C37.3614 48.9586 36.9654 48.5625 36.4767 48.5625C35.9879 48.5625 35.5919 48.9586 35.5919 49.4472V51.6209C35.1275 51.5992 34.6605 51.5592 34.1915 51.498C30.7324 51.0472 27.6538 49.5701 25.2217 47.4135L26.7887 45.8464C27.1342 45.5009 27.1342 44.9408 26.7887 44.5953C26.4432 44.2498 25.883 44.2498 25.5376 44.5953L23.9616 46.1712C21.4077 43.3787 19.8012 39.7465 19.5654 35.8244H21.8588C22.3474 35.8244 22.7435 35.4283 22.7435 34.9397C22.7435 34.4511 22.3474 34.055 21.8588 34.055H19.5524C19.5739 33.5836 19.6141 33.1094 19.6762 32.6332C20.1191 29.2345 21.5853 26.0984 23.8106 23.603L25.4595 25.2518C25.6322 25.4246 25.8587 25.511 26.0851 25.511C26.3114 25.511 26.5379 25.4246 26.7106 25.2518C27.0561 24.9063 27.0561 24.3461 26.7106 24.0007L25.0572 22.3473C26.1111 21.3895 27.292 20.5576 28.5823 19.8832C29.0153 19.6572 29.1829 19.1226 28.9566 18.6897Z" fill="url(#paint1_linear)"/>
<path d="M36.3664 26.6926C35.8776 26.6926 35.4816 27.0887 35.4816 27.5773V32.8326C34.7272 33.1719 34.1998 33.9288 34.1998 34.8083C34.1998 36.0029 35.1717 36.9748 36.3664 36.9748C36.6938 36.9748 37.0034 36.8997 37.282 36.769L43.1846 42.6715C43.3574 42.8443 43.5838 42.9307 43.8102 42.9307C44.0366 42.9307 44.2631 42.8443 44.4359 42.6715C44.7814 42.326 44.7814 41.7658 44.4359 41.4204L38.4419 35.4263C38.5004 35.2302 38.5329 35.0231 38.5329 34.8083C38.5329 33.929 38.0055 33.1719 37.2512 32.8327V27.5774C37.2511 27.0887 36.855 26.6926 36.3664 26.6926ZM35.9693 34.8082C35.9693 34.5892 36.1474 34.4111 36.3664 34.4111C36.5852 34.4111 36.7633 34.5892 36.7633 34.8082C36.7633 35.0271 36.5852 35.2052 36.3664 35.2052C36.1473 35.2052 35.9693 35.0271 35.9693 34.8082Z" fill="url(#paint2_linear)"/>
</g>
<defs>
<linearGradient id="paint0_linear" x1="30" y1="1.55804" x2="30" y2="58.442" gradientUnits="userSpaceOnUse">
<stop stop-color="#F2DF9A"/>
<stop offset="1" stop-color="#DABB68"/>
</linearGradient>
<linearGradient id="paint1_linear" x1="36.3671" y1="16.2048" x2="36.3671" y2="53.4102" gradientUnits="userSpaceOnUse">
<stop stop-color="#F2DF9A"/>
<stop offset="1" stop-color="#DABB68"/>
</linearGradient>
<linearGradient id="paint2_linear" x1="39.4474" y1="26.6926" x2="39.4474" y2="42.9307" gradientUnits="userSpaceOnUse">
<stop stop-color="#F2DF9A"/>
<stop offset="1" stop-color="#DABB68"/>
</linearGradient>
<clipPath id="clip0">
<rect width="60" height="60" rx="3" fill="white"/>
</clipPath>
</defs>
</svg>
