<svg width="332" height="405" viewBox="0 0 332 405" fill="none" xmlns="http://www.w3.org/2000/svg">
<path d="M0 18.0433C0 16.5619 1.08103 15.3032 2.54646 15.086C18.6053 12.7052 107.067 0 166 0C224.933 0 313.395 12.7052 329.454 15.086C330.919 15.3032 332 16.5619 332 18.0433V402C332 403.657 330.657 405 329 405H2.99999C1.34314 405 0 403.657 0 402V18.0433Z" fill="#08597D"/>
<path d="M0 18.0433C0 16.5619 1.08103 15.3032 2.54646 15.086C18.6053 12.7052 107.067 0 166 0C224.933 0 313.395 12.7052 329.454 15.086C330.919 15.3032 332 16.5619 332 18.0433V402C332 403.657 330.657 405 329 405H2.99999C1.34314 405 0 403.657 0 402V18.0433Z" fill="url(#paint0_linear)"/>
<path d="M10.5 29.3695C10.5 28.1299 11.3877 27.0881 12.6043 26.9093C28.0648 24.6362 110.832 12.8594 166 12.8594C221.168 12.8594 303.935 24.6362 319.396 26.9093C320.612 27.0881 321.5 28.1299 321.5 29.3695V390.676C321.5 392.057 320.381 393.176 319 393.176H13C11.6193 393.176 10.5 392.057 10.5 390.676V29.3695Z" stroke="url(#paint1_linear)"/>
<rect x="41" y="96" width="250" height="58" rx="3" fill="white"/>
<path d="M67.5547 133V121.578H70.8125C72.3438 121.578 73.4479 121.807 74.125 122.266C74.8073 122.719 75.1484 123.432 75.1484 124.406C75.1484 125.083 74.9635 125.643 74.5938 126.086C74.224 126.523 73.6849 126.807 72.9766 126.938V127.016C73.8568 127.167 74.5026 127.471 74.9141 127.93C75.3307 128.388 75.5391 128.995 75.5391 129.75C75.5391 130.771 75.1901 131.568 74.4922 132.141C73.7943 132.714 72.8203 133 71.5703 133H67.5547ZM68.9922 131.781H71.2969C72.2135 131.781 72.8932 131.604 73.3359 131.25C73.7786 130.896 74 130.359 74 129.641C74 128.958 73.7656 128.456 73.2969 128.133C72.8281 127.805 72.125 127.641 71.1875 127.641H68.9922V131.781ZM68.9922 126.438H71.1016C71.9974 126.438 72.6484 126.294 73.0547 126.008C73.4609 125.721 73.6641 125.242 73.6641 124.57C73.6641 123.945 73.4401 123.495 72.9922 123.219C72.5495 122.943 71.8464 122.805 70.8828 122.805H68.9922V126.438ZM77.1406 130.617C77.1406 128.878 78.513 127.966 81.2578 127.883L82.7109 127.828V127.32C82.7109 126.669 82.5703 126.19 82.2891 125.883C82.0078 125.57 81.5573 125.414 80.9375 125.414C80.4844 125.414 80.0547 125.482 79.6484 125.617C79.2474 125.753 78.8698 125.904 78.5156 126.07L78.0859 125.016C78.5182 124.786 78.9896 124.607 79.5 124.477C80.0104 124.346 80.5156 124.281 81.0156 124.281C82.0521 124.281 82.8229 124.51 83.3281 124.969C83.8333 125.427 84.0859 126.156 84.0859 127.156V133H83.0625L82.7891 131.781H82.7266C82.2995 132.318 81.8724 132.682 81.4453 132.875C81.0234 133.062 80.4896 133.156 79.8438 133.156C79 133.156 78.3385 132.935 77.8594 132.492C77.3802 132.049 77.1406 131.424 77.1406 130.617ZM78.6016 130.633C78.6016 131.081 78.737 131.424 79.0078 131.664C79.2839 131.904 79.6693 132.023 80.1641 132.023C80.9505 132.023 81.5677 131.812 82.0156 131.391C82.4688 130.964 82.6953 130.359 82.6953 129.578V128.805L81.4297 128.859C80.4453 128.896 79.7266 129.052 79.2734 129.328C78.8255 129.604 78.6016 130.039 78.6016 130.633ZM86.75 133V124.422H88.1562V131.812H91.8516V124.422H93.2656V131.812H96.9766V124.422H98.3828V133H86.75ZM100.648 128.773C100.648 127.398 100.99 126.305 101.672 125.492C102.354 124.674 103.276 124.266 104.438 124.266C105.516 124.266 106.375 124.615 107.016 125.312C107.656 126.005 107.977 126.945 107.977 128.133V128.984H102.102C102.128 129.958 102.375 130.698 102.844 131.203C103.312 131.708 103.977 131.961 104.836 131.961C105.294 131.961 105.729 131.922 106.141 131.844C106.552 131.76 107.034 131.602 107.586 131.367V132.602C107.112 132.805 106.667 132.948 106.25 133.031C105.833 133.115 105.341 133.156 104.773 133.156C103.487 133.156 102.477 132.768 101.742 131.992C101.013 131.211 100.648 130.138 100.648 128.773ZM102.133 127.867H106.5C106.49 127.065 106.305 126.456 105.945 126.039C105.586 125.622 105.078 125.414 104.422 125.414C103.75 125.414 103.219 125.63 102.828 126.062C102.438 126.495 102.206 127.096 102.133 127.867ZM114.523 133V121.578H115.867V127.852C115.867 128.294 115.854 128.88 115.828 129.609C115.802 130.339 115.776 130.812 115.75 131.031H115.82L122.102 121.578H123.703V133H122.359V126.789C122.359 126.247 122.378 125.617 122.414 124.898C122.451 124.174 122.477 123.706 122.492 123.492H122.422L116.125 133H114.523ZM126.609 133V124.422H128.367L130.531 129.688C130.724 130.177 130.938 130.833 131.172 131.656C131.328 131.089 131.526 130.503 131.766 129.898L134 124.422H135.812V133H134.547V125.93C134.365 126.497 134.151 127.094 133.906 127.719L131.766 133H130.625L128.484 127.688C128.38 127.438 128.276 127.164 128.172 126.867C128.073 126.57 127.974 126.258 127.875 125.93V133H126.609ZM137.445 133L139.891 129.398C139.234 129.232 138.737 128.938 138.398 128.516C138.06 128.094 137.891 127.573 137.891 126.953C137.891 126.161 138.159 125.542 138.695 125.094C139.232 124.646 139.977 124.422 140.93 124.422H144.773V133H143.367V129.594H141.281L139.078 133H137.445ZM139.25 126.969C139.25 127.938 139.948 128.422 141.344 128.422H143.367V125.594H141.078C140.479 125.594 140.023 125.711 139.711 125.945C139.404 126.18 139.25 126.521 139.25 126.969Z" fill="#333333"/>
<rect x="41" y="170" width="250" height="58" rx="3" fill="white"/>
<path d="M67.5547 206V194.578H70.8125C72.3438 194.578 73.4479 194.807 74.125 195.266C74.8073 195.719 75.1484 196.432 75.1484 197.406C75.1484 198.083 74.9635 198.643 74.5938 199.086C74.224 199.523 73.6849 199.807 72.9766 199.938V200.016C73.8568 200.167 74.5026 200.471 74.9141 200.93C75.3307 201.388 75.5391 201.995 75.5391 202.75C75.5391 203.771 75.1901 204.568 74.4922 205.141C73.7943 205.714 72.8203 206 71.5703 206H67.5547ZM68.9922 204.781H71.2969C72.2135 204.781 72.8932 204.604 73.3359 204.25C73.7786 203.896 74 203.359 74 202.641C74 201.958 73.7656 201.456 73.2969 201.133C72.8281 200.805 72.125 200.641 71.1875 200.641H68.9922V204.781ZM68.9922 199.438H71.1016C71.9974 199.438 72.6484 199.294 73.0547 199.008C73.4609 198.721 73.6641 198.242 73.6641 197.57C73.6641 196.945 73.4401 196.495 72.9922 196.219C72.5495 195.943 71.8464 195.805 70.8828 195.805H68.9922V199.438ZM77.1406 203.617C77.1406 201.878 78.513 200.966 81.2578 200.883L82.7109 200.828V200.32C82.7109 199.669 82.5703 199.19 82.2891 198.883C82.0078 198.57 81.5573 198.414 80.9375 198.414C80.4844 198.414 80.0547 198.482 79.6484 198.617C79.2474 198.753 78.8698 198.904 78.5156 199.07L78.0859 198.016C78.5182 197.786 78.9896 197.607 79.5 197.477C80.0104 197.346 80.5156 197.281 81.0156 197.281C82.0521 197.281 82.8229 197.51 83.3281 197.969C83.8333 198.427 84.0859 199.156 84.0859 200.156V206H83.0625L82.7891 204.781H82.7266C82.2995 205.318 81.8724 205.682 81.4453 205.875C81.0234 206.062 80.4896 206.156 79.8438 206.156C79 206.156 78.3385 205.935 77.8594 205.492C77.3802 205.049 77.1406 204.424 77.1406 203.617ZM78.6016 203.633C78.6016 204.081 78.737 204.424 79.0078 204.664C79.2839 204.904 79.6693 205.023 80.1641 205.023C80.9505 205.023 81.5677 204.812 82.0156 204.391C82.4688 203.964 82.6953 203.359 82.6953 202.578V201.805L81.4297 201.859C80.4453 201.896 79.7266 202.052 79.2734 202.328C78.8255 202.604 78.6016 203.039 78.6016 203.633ZM86.75 206V197.422H88.1562V204.812H91.8516V197.422H93.2656V204.812H96.9766V197.422H98.3828V206H86.75ZM104.242 198.609V197.422H111.203V198.609H108.398V206H107.008V198.609H104.242ZM112.352 201.773C112.352 200.398 112.693 199.305 113.375 198.492C114.057 197.674 114.979 197.266 116.141 197.266C117.219 197.266 118.078 197.615 118.719 198.312C119.359 199.005 119.68 199.945 119.68 201.133V201.984H113.805C113.831 202.958 114.078 203.698 114.547 204.203C115.016 204.708 115.68 204.961 116.539 204.961C116.997 204.961 117.432 204.922 117.844 204.844C118.255 204.76 118.737 204.602 119.289 204.367V205.602C118.815 205.805 118.37 205.948 117.953 206.031C117.536 206.115 117.044 206.156 116.477 206.156C115.19 206.156 114.18 205.768 113.445 204.992C112.716 204.211 112.352 203.138 112.352 201.773ZM113.836 200.867H118.203C118.193 200.065 118.008 199.456 117.648 199.039C117.289 198.622 116.781 198.414 116.125 198.414C115.453 198.414 114.922 198.63 114.531 199.062C114.141 199.495 113.909 200.096 113.836 200.867ZM120.609 206V204.945C120.719 204.987 120.865 205.008 121.047 205.008C121.62 205.008 122.076 204.404 122.414 203.195C122.758 201.987 123.026 200.062 123.219 197.422H128.391V206H126.961V198.594H124.438C124.292 200.469 124.094 201.943 123.844 203.016C123.599 204.083 123.276 204.867 122.875 205.367C122.479 205.862 121.971 206.109 121.352 206.109C121.013 206.109 120.766 206.073 120.609 206ZM130.633 201.773C130.633 200.398 130.974 199.305 131.656 198.492C132.339 197.674 133.26 197.266 134.422 197.266C135.5 197.266 136.359 197.615 137 198.312C137.641 199.005 137.961 199.945 137.961 201.133V201.984H132.086C132.112 202.958 132.359 203.698 132.828 204.203C133.297 204.708 133.961 204.961 134.82 204.961C135.279 204.961 135.714 204.922 136.125 204.844C136.536 204.76 137.018 204.602 137.57 204.367V205.602C137.096 205.805 136.651 205.948 136.234 206.031C135.818 206.115 135.326 206.156 134.758 206.156C133.471 206.156 132.461 205.768 131.727 204.992C130.997 204.211 130.633 203.138 130.633 201.773ZM132.117 200.867H136.484C136.474 200.065 136.289 199.456 135.93 199.039C135.57 198.622 135.062 198.414 134.406 198.414C133.734 198.414 133.203 198.63 132.812 199.062C132.422 199.495 132.19 200.096 132.117 200.867ZM139.648 201.711C139.648 200.409 140.023 199.375 140.773 198.609C141.523 197.839 142.576 197.401 143.93 197.297V193.844H145.258V197.297C146.576 197.427 147.612 197.883 148.367 198.664C149.122 199.445 149.5 200.461 149.5 201.711C149.5 202.987 149.125 204.016 148.375 204.797C147.63 205.578 146.591 206.021 145.258 206.125V209.844H143.883V206.125C142.57 206.016 141.536 205.57 140.781 204.789C140.026 204.008 139.648 202.982 139.648 201.711ZM141.117 201.711C141.117 203.695 142.055 204.784 143.93 204.977V198.461C142.951 198.56 142.237 198.885 141.789 199.438C141.341 199.984 141.117 200.742 141.117 201.711ZM145.258 204.977C147.117 204.773 148.047 203.685 148.047 201.711C148.047 199.758 147.117 198.68 145.258 198.477V204.977ZM151.273 201.695C151.273 200.299 151.622 199.214 152.32 198.438C153.018 197.656 153.997 197.266 155.258 197.266C156.466 197.266 157.424 197.664 158.133 198.461C158.846 199.253 159.203 200.331 159.203 201.695C159.203 203.096 158.849 204.19 158.141 204.977C157.432 205.763 156.453 206.156 155.203 206.156C154.427 206.156 153.74 205.977 153.141 205.617C152.542 205.253 152.081 204.732 151.758 204.055C151.435 203.378 151.273 202.591 151.273 201.695ZM152.727 201.695C152.727 202.773 152.938 203.594 153.359 204.156C153.786 204.714 154.414 204.992 155.242 204.992C156.06 204.992 156.682 204.714 157.109 204.156C157.536 203.594 157.75 202.773 157.75 201.695C157.75 200.617 157.534 199.807 157.102 199.266C156.674 198.719 156.047 198.445 155.219 198.445C153.557 198.445 152.727 199.529 152.727 201.695ZM161.438 206V197.422H162.844V200.992H167.5V197.422H168.906V206H167.5V202.18H162.844V206H161.438Z" fill="#333333"/>
<rect x="41" y="246" width="250" height="58" rx="3" fill="url(#paint2_linear)"/>
<path d="M62.584 269.8V281H64.632V271.56H70.44V281H72.488V269.8H62.584ZM79.2301 281.112C81.8861 281.112 83.7901 279.288 83.7901 276.728C83.7901 274.168 81.8861 272.36 79.2301 272.36C76.6061 272.36 74.6861 274.168 74.6861 276.728C74.6861 279.288 76.6061 281.112 79.2301 281.112ZM79.2301 279.4C77.7901 279.4 76.7021 278.36 76.7021 276.728C76.7021 275.096 77.7901 274.056 79.2301 274.056C80.6861 274.056 81.7741 275.096 81.7741 276.728C81.7741 278.36 80.6861 279.4 79.2301 279.4ZM86.5041 272.456L86.3601 275.752C86.2641 277.528 86.2161 279.352 84.9041 279.352C84.7921 279.352 84.6641 279.336 84.5201 279.304L84.4241 280.984C84.8401 281.096 85.2081 281.16 85.5281 281.16C87.5441 281.16 87.9921 278.888 88.1361 275.848L88.2161 274.152H91.4161V281H93.4161V272.456H86.5041ZM102.254 272.456L99.5496 278.776L96.8616 272.456H94.7816L98.5096 281.032L98.3656 281.368C97.9816 282.216 97.5656 282.552 96.8616 282.552C96.3176 282.552 95.7736 282.328 95.3896 281.96L94.5896 283.432C95.1336 283.928 96.0296 284.216 96.8776 284.216C98.3016 284.216 99.3896 283.624 100.174 281.688L104.174 272.456H102.254ZM110.811 272.456V276.2C110.123 276.52 109.371 276.68 108.667 276.68C107.515 276.68 106.827 276.184 106.827 275.064V272.456H104.827V275.192C104.827 277.32 106.075 278.28 108.235 278.28C109.179 278.28 110.043 278.056 110.811 277.688V281H112.811V272.456H110.811ZM115.5 281H117.34L122.044 275.368V281H124.044V272.456H122.22L117.5 278.088V272.456H115.5V281ZM133.503 272.456H125.503V274.152H128.511V281H130.511V274.152H133.503V272.456ZM139.241 275.272L136.953 275.256V272.456H134.953V281L138.953 281.016C141.289 281.032 142.617 279.96 142.617 278.088C142.617 276.312 141.433 275.272 139.241 275.272ZM138.777 279.544L136.953 279.528V276.632L138.777 276.648C139.961 276.664 140.585 277.08 140.585 278.056C140.585 279.048 139.945 279.56 138.777 279.544ZM154.925 281H157.277L153.965 276.568L157.069 272.456H154.925L152.397 275.912H150.797V272.456H148.797V281H150.797V277.576H152.349L154.925 281ZM162.215 281.112C164.871 281.112 166.775 279.288 166.775 276.728C166.775 274.168 164.871 272.36 162.215 272.36C159.591 272.36 157.671 274.168 157.671 276.728C157.671 279.288 159.591 281.112 162.215 281.112ZM162.215 279.4C160.775 279.4 159.687 278.36 159.687 276.728C159.687 275.096 160.775 274.056 162.215 274.056C163.671 274.056 164.759 275.096 164.759 276.728C164.759 278.36 163.671 279.4 162.215 279.4ZM168.75 281H170.75V277.624H175.054V281H177.054V272.456H175.054V275.928H170.75V272.456H168.75V281ZM183.623 281.112C185.287 281.112 186.615 280.392 187.271 279.112L185.735 278.216C185.223 279.032 184.455 279.4 183.607 279.4C182.135 279.4 181.015 278.392 181.015 276.728C181.015 275.08 182.135 274.056 183.607 274.056C184.455 274.056 185.223 274.424 185.735 275.24L187.271 274.344C186.615 273.048 185.287 272.36 183.623 272.36C180.919 272.36 178.999 274.168 178.999 276.728C178.999 279.288 180.919 281.112 183.623 281.112ZM195.066 272.456L192.362 278.776L189.674 272.456H187.594L191.322 281.032L191.178 281.368C190.794 282.216 190.378 282.552 189.674 282.552C189.13 282.552 188.586 282.328 188.202 281.96L187.402 283.432C187.946 283.928 188.842 284.216 189.69 284.216C191.114 284.216 192.202 283.624 192.986 281.688L196.986 272.456H195.066ZM198.676 272.456L198.532 275.752C198.436 277.528 198.388 279.352 197.076 279.352C196.964 279.352 196.836 279.336 196.692 279.304L196.596 280.984C197.012 281.096 197.38 281.16 197.7 281.16C199.716 281.16 200.164 278.888 200.308 275.848L200.388 274.152H203.588V281H205.588V272.456H198.676ZM212.57 275.272L210.282 275.256V272.456H208.282V281L212.282 281.016C214.618 281.032 215.946 279.96 215.946 278.088C215.946 276.312 214.762 275.272 212.57 275.272ZM212.106 279.544L210.282 279.528V276.632L212.106 276.648C213.29 276.664 213.914 277.08 213.914 278.056C213.914 279.048 213.274 279.56 212.106 279.544ZM223.675 272.456H215.675V274.152H218.683V281H220.683V274.152H223.675V272.456ZM228.309 272.36C226.933 272.36 225.605 272.712 224.693 273.416L225.477 274.872C226.117 274.344 227.109 274.024 228.069 274.024C229.493 274.024 230.197 274.712 230.197 275.88V276.008H227.989C225.397 276.008 224.437 277.128 224.437 278.552C224.437 280.04 225.669 281.112 227.621 281.112C228.901 281.112 229.829 280.696 230.309 279.96V281H232.197V275.992C232.197 273.528 230.773 272.36 228.309 272.36ZM228.037 279.656C227.013 279.656 226.405 279.192 226.405 278.472C226.405 277.848 226.773 277.336 228.133 277.336H230.197V278.328C229.861 279.208 229.013 279.656 228.037 279.656ZM242.752 279.304V272.456H240.752V279.304H236.672V272.456H234.672V281H242.176V282.968H244.048V279.304H242.752ZM245.828 281H247.668L252.372 275.368V281H254.372V272.456H252.548L247.828 278.088V272.456H245.828V281ZM264.871 272.36C262.647 272.36 260.935 273.72 260.535 275.768H259.063V272.456H257.063V281H259.063V277.576H260.503C260.871 279.688 262.599 281.112 264.871 281.112C267.447 281.112 269.319 279.288 269.319 276.728C269.319 274.152 267.447 272.36 264.871 272.36ZM264.871 279.416C263.479 279.416 262.423 278.376 262.423 276.728C262.423 275.08 263.479 274.056 264.871 274.056C266.263 274.056 267.335 275.08 267.335 276.728C267.335 278.376 266.263 279.416 264.871 279.416Z" fill="#333333"/>
<path d="M63.793 331V323.861H64.6914V326.879H68.3535V323.861H69.252V331H68.3535V327.67H64.6914V331H63.793ZM70.6924 329.511C70.6924 328.424 71.5501 327.854 73.2656 327.802L74.1738 327.768V327.45C74.1738 327.043 74.0859 326.744 73.9102 326.552C73.7344 326.356 73.4528 326.259 73.0654 326.259C72.7822 326.259 72.5137 326.301 72.2598 326.386C72.0091 326.47 71.7731 326.565 71.5518 326.669L71.2832 326.01C71.5534 325.867 71.848 325.754 72.167 325.673C72.486 325.591 72.8018 325.551 73.1143 325.551C73.762 325.551 74.2438 325.694 74.5596 325.98C74.8753 326.267 75.0332 326.723 75.0332 327.348V331H74.3936L74.2227 330.238H74.1836C73.9167 330.574 73.6497 330.801 73.3828 330.922C73.1191 331.039 72.7855 331.098 72.3818 331.098C71.8545 331.098 71.4411 330.959 71.1416 330.683C70.8421 330.406 70.6924 330.015 70.6924 329.511ZM71.6055 329.521C71.6055 329.8 71.6901 330.015 71.8594 330.165C72.0319 330.315 72.2728 330.39 72.582 330.39C73.0736 330.39 73.4593 330.258 73.7393 329.994C74.0225 329.727 74.1641 329.35 74.1641 328.861V328.378L73.373 328.412C72.7578 328.435 72.3086 328.533 72.0254 328.705C71.7454 328.878 71.6055 329.149 71.6055 329.521ZM75.8584 331L78.2607 328.241C77.2516 327.043 76.5143 326.176 76.0488 325.639H77.0107L79.1787 328.241V325.639H79.999V328.241L82.1768 325.639H83.1289L80.917 328.241L83.3193 331H82.3184L79.999 328.28V331H79.1787V328.28L76.8594 331H75.8584ZM84.1982 331V325.639H85.0283V328.91L84.9893 329.857L84.9697 330.131L87.8408 325.639H88.9199V331H88.0996V327.841L88.1143 327.162L88.1387 326.518L85.2871 331H84.1982ZM90.6338 331V325.639H91.7324L93.085 328.93C93.2054 329.236 93.3389 329.646 93.4854 330.16C93.583 329.805 93.7067 329.439 93.8564 329.062L95.2529 325.639H96.3857V331H95.5947V326.581C95.4808 326.936 95.3473 327.309 95.1943 327.699L93.8564 331H93.1436L91.8057 327.68C91.7406 327.523 91.6755 327.353 91.6104 327.167C91.5485 326.981 91.4867 326.786 91.4248 326.581V331H90.6338ZM97.7041 329.511C97.7041 328.424 98.5618 327.854 100.277 327.802L101.186 327.768V327.45C101.186 327.043 101.098 326.744 100.922 326.552C100.746 326.356 100.465 326.259 100.077 326.259C99.7939 326.259 99.5254 326.301 99.2715 326.386C99.0208 326.47 98.7848 326.565 98.5635 326.669L98.2949 326.01C98.5651 325.867 98.8597 325.754 99.1787 325.673C99.4977 325.591 99.8135 325.551 100.126 325.551C100.774 325.551 101.256 325.694 101.571 325.98C101.887 326.267 102.045 326.723 102.045 327.348V331H101.405L101.234 330.238H101.195C100.928 330.574 100.661 330.801 100.395 330.922C100.131 331.039 99.7972 331.098 99.3936 331.098C98.8662 331.098 98.4528 330.959 98.1533 330.683C97.8538 330.406 97.7041 330.015 97.7041 329.511ZM98.6172 329.521C98.6172 329.8 98.7018 330.015 98.8711 330.165C99.0436 330.315 99.2845 330.39 99.5938 330.39C100.085 330.39 100.471 330.258 100.751 329.994C101.034 329.727 101.176 329.35 101.176 328.861V328.378L100.385 328.412C99.7695 328.435 99.3203 328.533 99.0371 328.705C98.7572 328.878 98.6172 329.149 98.6172 329.521ZM103.021 331L104.55 328.749C104.14 328.645 103.829 328.461 103.617 328.197C103.406 327.934 103.3 327.608 103.3 327.221C103.3 326.726 103.467 326.339 103.803 326.059C104.138 325.779 104.604 325.639 105.199 325.639H107.602V331H106.723V328.871H105.419L104.042 331H103.021ZM104.149 327.23C104.149 327.836 104.586 328.139 105.458 328.139H106.723V326.371H105.292C104.918 326.371 104.633 326.444 104.438 326.591C104.245 326.737 104.149 326.951 104.149 327.23ZM111.903 331V325.639H112.782V327.87H115.692V325.639H116.571V331H115.692V328.612H112.782V331H111.903ZM117.89 329.511C117.89 328.424 118.747 327.854 120.463 327.802L121.371 327.768V327.45C121.371 327.043 121.283 326.744 121.107 326.552C120.932 326.356 120.65 326.259 120.263 326.259C119.979 326.259 119.711 326.301 119.457 326.386C119.206 326.47 118.97 326.565 118.749 326.669L118.48 326.01C118.751 325.867 119.045 325.754 119.364 325.673C119.683 325.591 119.999 325.551 120.312 325.551C120.959 325.551 121.441 325.694 121.757 325.98C122.073 326.267 122.23 326.723 122.23 327.348V331H121.591L121.42 330.238H121.381C121.114 330.574 120.847 330.801 120.58 330.922C120.316 331.039 119.983 331.098 119.579 331.098C119.052 331.098 118.638 330.959 118.339 330.683C118.039 330.406 117.89 330.015 117.89 329.511ZM118.803 329.521C118.803 329.8 118.887 330.015 119.057 330.165C119.229 330.315 119.47 330.39 119.779 330.39C120.271 330.39 120.657 330.258 120.937 329.994C121.22 329.727 121.361 329.35 121.361 328.861V328.378L120.57 328.412C119.955 328.435 119.506 328.533 119.223 328.705C118.943 328.878 118.803 329.149 118.803 329.521ZM126.493 331V325.639H127.372V328.241L129.662 325.639H130.624L128.334 328.222L130.814 331H129.794L127.372 328.28V331H126.493ZM131.786 331V325.639H132.665V327.87H135.575V325.639H136.454V331H135.575V328.612H132.665V331H131.786ZM137.865 328.31C137.865 327.437 138.083 326.758 138.52 326.273C138.956 325.785 139.568 325.541 140.355 325.541C141.111 325.541 141.71 325.79 142.152 326.288C142.598 326.783 142.821 327.457 142.821 328.31C142.821 329.185 142.6 329.869 142.157 330.36C141.715 330.852 141.103 331.098 140.321 331.098C139.836 331.098 139.407 330.985 139.032 330.761C138.658 330.533 138.37 330.207 138.168 329.784C137.966 329.361 137.865 328.869 137.865 328.31ZM138.773 328.31C138.773 328.983 138.905 329.496 139.169 329.848C139.436 330.196 139.828 330.37 140.346 330.37C140.857 330.37 141.246 330.196 141.513 329.848C141.78 329.496 141.913 328.983 141.913 328.31C141.913 327.636 141.778 327.13 141.508 326.791C141.241 326.449 140.849 326.278 140.331 326.278C139.293 326.278 138.773 326.955 138.773 328.31ZM144.218 331V325.639H148.749V331H147.87V326.391H145.097V331H144.218ZM150.458 331V325.639H151.337V328.241L153.627 325.639H154.589L152.299 328.222L154.779 331H153.759L151.337 328.28V331H150.458ZM154.911 325.639H155.854L157.011 328.69C157.255 329.354 157.405 329.841 157.46 330.15H157.499C157.528 330.03 157.595 329.805 157.699 329.477C157.803 329.145 157.891 328.879 157.963 328.681L159.052 325.639H159.999L157.689 331.742C157.465 332.335 157.198 332.759 156.889 333.017C156.579 333.274 156.197 333.402 155.741 333.402C155.497 333.402 155.255 333.375 155.014 333.319V332.621C155.176 332.66 155.372 332.68 155.6 332.68C155.88 332.68 156.117 332.602 156.312 332.445C156.508 332.292 156.667 332.055 156.791 331.732L157.069 331.02L154.911 325.639ZM160.214 332.289C160.425 331.475 160.591 330.658 160.712 329.838H161.654L161.723 329.95C161.544 330.647 161.257 331.426 160.863 332.289H160.214ZM165.937 331V325.639H168.339C169.677 325.639 170.346 326.09 170.346 326.991C170.346 327.336 170.248 327.6 170.053 327.782C169.857 327.961 169.579 328.083 169.218 328.148V328.192C169.67 328.254 169.999 328.389 170.204 328.598C170.412 328.803 170.517 329.079 170.517 329.428C170.517 329.936 170.329 330.325 169.955 330.595C169.584 330.865 169.049 331 168.349 331H165.937ZM166.815 330.292H168.275C169.184 330.292 169.638 329.988 169.638 329.379C169.638 329.079 169.521 328.869 169.286 328.749C169.052 328.629 168.708 328.568 168.256 328.568H166.815V330.292ZM166.815 327.841H168.158C168.637 327.841 168.977 327.782 169.179 327.665C169.384 327.545 169.486 327.346 169.486 327.069C169.486 326.819 169.389 326.64 169.193 326.532C169.001 326.425 168.71 326.371 168.319 326.371H166.815V327.841ZM171.698 331V325.639H172.577V327.841H173.969C174.665 327.841 175.18 327.968 175.512 328.222C175.844 328.476 176.01 328.855 176.01 329.359C176.01 329.903 175.834 330.313 175.482 330.59C175.131 330.863 174.613 331 173.93 331H171.698ZM172.577 330.292H173.847C174.709 330.292 175.141 329.997 175.141 329.408C175.141 329.118 175.043 328.907 174.848 328.773C174.656 328.637 174.325 328.568 173.856 328.568H172.577V330.292ZM176.898 331V325.639H177.777V331H176.898ZM181.42 330.258H181.85C182.283 329.656 182.619 328.959 182.86 328.168C183.101 327.374 183.228 326.531 183.241 325.639H186.059V330.258H186.84V332.86H185.99V331H182.26V332.86H181.42V330.258ZM182.758 330.258H185.209V326.332H184.018C183.969 327.051 183.829 327.774 183.598 328.5C183.37 329.223 183.09 329.809 182.758 330.258ZM187.499 329.511C187.499 328.424 188.357 327.854 190.072 327.802L190.98 327.768V327.45C190.98 327.043 190.893 326.744 190.717 326.552C190.541 326.356 190.259 326.259 189.872 326.259C189.589 326.259 189.32 326.301 189.066 326.386C188.816 326.47 188.58 326.565 188.358 326.669L188.09 326.01C188.36 325.867 188.655 325.754 188.974 325.673C189.293 325.591 189.608 325.551 189.921 325.551C190.569 325.551 191.05 325.694 191.366 325.98C191.682 326.267 191.84 326.723 191.84 327.348V331H191.2L191.029 330.238H190.99C190.723 330.574 190.456 330.801 190.189 330.922C189.926 331.039 189.592 331.098 189.188 331.098C188.661 331.098 188.248 330.959 187.948 330.683C187.649 330.406 187.499 330.015 187.499 329.511ZM188.412 329.521C188.412 329.8 188.497 330.015 188.666 330.165C188.839 330.315 189.079 330.39 189.389 330.39C189.88 330.39 190.266 330.258 190.546 329.994C190.829 329.727 190.971 329.35 190.971 328.861V328.378L190.18 328.412C189.564 328.435 189.115 328.533 188.832 328.705C188.552 328.878 188.412 329.149 188.412 329.521ZM193.207 328.358C193.207 327.499 193.42 326.815 193.847 326.308C194.273 325.797 194.849 325.541 195.575 325.541C196.249 325.541 196.786 325.759 197.187 326.195C197.587 326.628 197.787 327.216 197.787 327.958V328.49H194.115C194.132 329.099 194.286 329.561 194.579 329.877C194.872 330.193 195.287 330.351 195.824 330.351C196.111 330.351 196.382 330.326 196.64 330.277C196.897 330.225 197.198 330.126 197.543 329.979V330.751C197.247 330.878 196.968 330.967 196.708 331.02C196.448 331.072 196.14 331.098 195.785 331.098C194.981 331.098 194.35 330.855 193.891 330.37C193.435 329.882 193.207 329.211 193.207 328.358ZM194.135 327.792H196.864C196.858 327.291 196.742 326.91 196.518 326.649C196.293 326.389 195.976 326.259 195.565 326.259C195.146 326.259 194.813 326.394 194.569 326.664C194.325 326.934 194.18 327.31 194.135 327.792ZM198.5 326.381V325.639H202.851V326.381H201.098V331H200.229V326.381H198.5ZM203.568 328.358C203.568 327.499 203.782 326.815 204.208 326.308C204.634 325.797 205.211 325.541 205.937 325.541C206.61 325.541 207.147 325.759 207.548 326.195C207.948 326.628 208.148 327.216 208.148 327.958V328.49H204.477C204.493 329.099 204.647 329.561 204.94 329.877C205.233 330.193 205.648 330.351 206.186 330.351C206.472 330.351 206.744 330.326 207.001 330.277C207.258 330.225 207.559 330.126 207.904 329.979V330.751C207.608 330.878 207.33 330.967 207.069 331.02C206.809 331.072 206.501 331.098 206.146 331.098C205.342 331.098 204.711 330.855 204.252 330.37C203.796 329.882 203.568 329.211 203.568 328.358ZM204.496 327.792H207.226C207.219 327.291 207.104 326.91 206.879 326.649C206.654 326.389 206.337 326.259 205.927 326.259C205.507 326.259 205.175 326.394 204.931 326.664C204.687 326.934 204.542 327.31 204.496 327.792ZM211.811 328.349C211.811 327.45 212.027 326.758 212.46 326.273C212.896 325.785 213.516 325.541 214.32 325.541C214.581 325.541 214.838 325.569 215.092 325.624C215.349 325.676 215.561 325.744 215.727 325.829L215.458 326.562C215.006 326.392 214.62 326.308 214.301 326.308C213.76 326.308 213.362 326.479 213.104 326.82C212.847 327.159 212.719 327.665 212.719 328.339C212.719 328.987 212.847 329.483 213.104 329.828C213.362 330.17 213.743 330.341 214.247 330.341C214.719 330.341 215.183 330.237 215.639 330.028V330.81C215.268 331.002 214.807 331.098 214.257 331.098C213.485 331.098 212.885 330.862 212.455 330.39C212.025 329.914 211.811 329.234 211.811 328.349ZM216.615 328.31C216.615 327.437 216.833 326.758 217.27 326.273C217.706 325.785 218.318 325.541 219.105 325.541C219.861 325.541 220.46 325.79 220.902 326.288C221.348 326.783 221.571 327.457 221.571 328.31C221.571 329.185 221.35 329.869 220.907 330.36C220.465 330.852 219.853 331.098 219.071 331.098C218.586 331.098 218.157 330.985 217.782 330.761C217.408 330.533 217.12 330.207 216.918 329.784C216.716 329.361 216.615 328.869 216.615 328.31ZM217.523 328.31C217.523 328.983 217.655 329.496 217.919 329.848C218.186 330.196 218.578 330.37 219.096 330.37C219.607 330.37 219.996 330.196 220.263 329.848C220.53 329.496 220.663 328.983 220.663 328.31C220.663 327.636 220.528 327.13 220.258 326.791C219.991 326.449 219.599 326.278 219.081 326.278C218.043 326.278 217.523 326.955 217.523 328.31ZM222.968 331V325.639H226.239V326.381H223.847V331H222.968ZM226.376 331V330.341C226.444 330.367 226.535 330.38 226.649 330.38C227.007 330.38 227.292 330.002 227.504 329.247C227.719 328.492 227.886 327.289 228.007 325.639H231.239V331H230.346V326.371H228.769C228.677 327.543 228.554 328.464 228.397 329.135C228.244 329.802 228.043 330.292 227.792 330.604C227.545 330.914 227.227 331.068 226.84 331.068C226.628 331.068 226.474 331.046 226.376 331ZM232.548 329.511C232.548 328.424 233.406 327.854 235.121 327.802L236.029 327.768V327.45C236.029 327.043 235.941 326.744 235.766 326.552C235.59 326.356 235.308 326.259 234.921 326.259C234.638 326.259 234.369 326.301 234.115 326.386C233.865 326.47 233.629 326.565 233.407 326.669L233.139 326.01C233.409 325.867 233.703 325.754 234.022 325.673C234.341 325.591 234.657 325.551 234.97 325.551C235.618 325.551 236.099 325.694 236.415 325.98C236.731 326.267 236.889 326.723 236.889 327.348V331H236.249L236.078 330.238H236.039C235.772 330.574 235.505 330.801 235.238 330.922C234.975 331.039 234.641 331.098 234.237 331.098C233.71 331.098 233.297 330.959 232.997 330.683C232.698 330.406 232.548 330.015 232.548 329.511ZM233.461 329.521C233.461 329.8 233.546 330.015 233.715 330.165C233.887 330.315 234.128 330.39 234.438 330.39C234.929 330.39 235.315 330.258 235.595 329.994C235.878 329.727 236.02 329.35 236.02 328.861V328.378L235.229 328.412C234.613 328.435 234.164 328.533 233.881 328.705C233.601 328.878 233.461 329.149 233.461 329.521ZM238.256 328.349C238.256 327.45 238.472 326.758 238.905 326.273C239.341 325.785 239.962 325.541 240.766 325.541C241.026 325.541 241.283 325.569 241.537 325.624C241.794 325.676 242.006 325.744 242.172 325.829L241.903 326.562C241.451 326.392 241.065 326.308 240.746 326.308C240.206 326.308 239.807 326.479 239.55 326.82C239.293 327.159 239.164 327.665 239.164 328.339C239.164 328.987 239.293 329.483 239.55 329.828C239.807 330.17 240.188 330.341 240.692 330.341C241.164 330.341 241.628 330.237 242.084 330.028V330.81C241.713 331.002 241.252 331.098 240.702 331.098C239.931 331.098 239.33 330.862 238.9 330.39C238.471 329.914 238.256 329.234 238.256 328.349ZM243.358 331V325.639H244.188V328.91L244.149 329.857L244.13 330.131L247.001 325.639H248.08V331H247.26V327.841L247.274 327.162L247.299 326.518L244.447 331H243.358ZM249.496 328.358C249.496 327.499 249.709 326.815 250.136 326.308C250.562 325.797 251.138 325.541 251.864 325.541C252.538 325.541 253.075 325.759 253.476 326.195C253.876 326.628 254.076 327.216 254.076 327.958V328.49H250.404C250.421 329.099 250.575 329.561 250.868 329.877C251.161 330.193 251.576 330.351 252.113 330.351C252.4 330.351 252.672 330.326 252.929 330.277C253.186 330.225 253.487 330.126 253.832 329.979V330.751C253.536 330.878 253.257 330.967 252.997 331.02C252.737 331.072 252.429 331.098 252.074 331.098C251.27 331.098 250.639 330.855 250.18 330.37C249.724 329.882 249.496 329.211 249.496 328.358ZM250.424 327.792H253.153C253.147 327.291 253.031 326.91 252.807 326.649C252.582 326.389 252.265 326.259 251.854 326.259C251.435 326.259 251.103 326.394 250.858 326.664C250.614 326.934 250.469 327.31 250.424 327.792ZM258.036 331V325.639H258.915V327.87H261.825V325.639H262.704V331H261.825V328.612H258.915V331H258.036ZM264.022 329.511C264.022 328.424 264.88 327.854 266.596 327.802L267.504 327.768V327.45C267.504 327.043 267.416 326.744 267.24 326.552C267.064 326.356 266.783 326.259 266.396 326.259C266.112 326.259 265.844 326.301 265.59 326.386C265.339 326.47 265.103 326.565 264.882 326.669L264.613 326.01C264.883 325.867 265.178 325.754 265.497 325.673C265.816 325.591 266.132 325.551 266.444 325.551C267.092 325.551 267.574 325.694 267.89 325.98C268.205 326.267 268.363 326.723 268.363 327.348V331H267.724L267.553 330.238H267.514C267.247 330.574 266.98 330.801 266.713 330.922C266.449 331.039 266.116 331.098 265.712 331.098C265.185 331.098 264.771 330.959 264.472 330.683C264.172 330.406 264.022 330.015 264.022 329.511ZM264.936 329.521C264.936 329.8 265.02 330.015 265.189 330.165C265.362 330.315 265.603 330.39 265.912 330.39C266.404 330.39 266.789 330.258 267.069 329.994C267.353 329.727 267.494 329.35 267.494 328.861V328.378L266.703 328.412C266.088 328.435 265.639 328.533 265.355 328.705C265.076 328.878 264.936 329.149 264.936 329.521ZM44.0859 341.31C44.0859 340.437 44.304 339.758 44.7402 339.273C45.1764 338.785 45.7884 338.541 46.5762 338.541C47.3314 338.541 47.9303 338.79 48.373 339.288C48.819 339.783 49.042 340.457 49.042 341.31C49.042 342.185 48.8206 342.869 48.3779 343.36C47.9352 343.852 47.3232 344.098 46.542 344.098C46.057 344.098 45.6273 343.985 45.2529 343.761C44.8786 343.533 44.5905 343.207 44.3887 342.784C44.1868 342.361 44.0859 341.869 44.0859 341.31ZM44.9941 341.31C44.9941 341.983 45.126 342.496 45.3896 342.848C45.6566 343.196 46.0488 343.37 46.5664 343.37C47.0775 343.37 47.4665 343.196 47.7334 342.848C48.0003 342.496 48.1338 341.983 48.1338 341.31C48.1338 340.636 47.9987 340.13 47.7285 339.791C47.4616 339.449 47.0693 339.278 46.5518 339.278C45.5133 339.278 44.9941 339.955 44.9941 341.31ZM50.1602 340.782C50.1602 339.588 50.3392 338.668 50.6973 338.023C51.0586 337.376 51.625 336.967 52.3965 336.798C53.1224 336.651 53.9329 336.502 54.8281 336.349L54.9795 337.12L54.3984 337.213C53.6432 337.337 53.0361 337.446 52.5771 337.54C52.1084 337.644 51.7552 337.883 51.5176 338.258C51.2832 338.629 51.1497 339.169 51.1172 339.879H51.1807C51.3695 339.615 51.6201 339.405 51.9326 339.249C52.2484 339.09 52.5837 339.01 52.9385 339.01C53.596 339.01 54.1104 339.221 54.4814 339.645C54.8525 340.068 55.0381 340.66 55.0381 341.422C55.0381 342.271 54.8216 342.931 54.3887 343.399C53.9557 343.865 53.3551 344.098 52.5869 344.098C51.8252 344.098 51.2295 343.806 50.7998 343.224C50.3734 342.641 50.1602 341.827 50.1602 340.782ZM51.0586 340.802C51.0586 342.514 51.5924 343.37 52.6602 343.37C53.627 343.37 54.1104 342.75 54.1104 341.51C54.1104 340.331 53.6725 339.742 52.7969 339.742C52.5592 339.742 52.3281 339.791 52.1035 339.889C51.8822 339.986 51.6803 340.115 51.498 340.274C51.319 340.434 51.1725 340.61 51.0586 340.802ZM56.4346 346.402V338.639H57.1572L57.2744 339.371H57.3135C57.5218 339.078 57.7627 338.867 58.0361 338.736C58.3096 338.606 58.6253 338.541 58.9834 338.541C59.68 338.541 60.2204 338.784 60.6045 339.269C60.9919 339.75 61.1855 340.431 61.1855 341.31C61.1855 342.185 60.9919 342.869 60.6045 343.36C60.2171 343.852 59.6735 344.098 58.9736 344.098C58.2542 344.098 57.7008 343.839 57.3135 343.321H57.2549L57.2744 343.521C57.3005 343.775 57.3135 344.002 57.3135 344.2V346.402H56.4346ZM57.3135 341.31C57.3135 342.035 57.4339 342.561 57.6748 342.887C57.9157 343.209 58.3063 343.37 58.8467 343.37C59.2959 343.37 59.6458 343.188 59.8965 342.823C60.1504 342.459 60.2773 341.951 60.2773 341.3C60.2773 340.646 60.1504 340.146 59.8965 339.801C59.6458 339.452 59.2894 339.278 58.8271 339.278C58.2965 339.278 57.9124 339.428 57.6748 339.728C57.4404 340.027 57.32 340.497 57.3135 341.139V341.31ZM62.1963 342.511C62.1963 341.424 63.054 340.854 64.7695 340.802L65.6777 340.768V340.45C65.6777 340.043 65.5898 339.744 65.4141 339.552C65.2383 339.356 64.9567 339.259 64.5693 339.259C64.2861 339.259 64.0176 339.301 63.7637 339.386C63.513 339.47 63.277 339.565 63.0557 339.669L62.7871 339.01C63.0573 338.867 63.3519 338.754 63.6709 338.673C63.9899 338.591 64.3057 338.551 64.6182 338.551C65.266 338.551 65.7477 338.694 66.0635 338.98C66.3792 339.267 66.5371 339.723 66.5371 340.348V344H65.8975L65.7266 343.238H65.6875C65.4206 343.574 65.1536 343.801 64.8867 343.922C64.623 344.039 64.2894 344.098 63.8857 344.098C63.3584 344.098 62.945 343.959 62.6455 343.683C62.346 343.406 62.1963 343.015 62.1963 342.511ZM63.1094 342.521C63.1094 342.8 63.194 343.015 63.3633 343.165C63.5358 343.315 63.7767 343.39 64.0859 343.39C64.5775 343.39 64.9632 343.258 65.2432 342.994C65.5264 342.727 65.668 342.35 65.668 341.861V341.378L64.877 341.412C64.2617 341.435 63.8125 341.533 63.5293 341.705C63.2493 341.878 63.1094 342.149 63.1094 342.521ZM67.9238 340.782C67.9238 339.588 68.1029 338.668 68.4609 338.023C68.8223 337.376 69.3887 336.967 70.1602 336.798C70.8861 336.651 71.6966 336.502 72.5918 336.349L72.7432 337.12L72.1621 337.213C71.4069 337.337 70.7998 337.446 70.3408 337.54C69.8721 337.644 69.5189 337.883 69.2812 338.258C69.0469 338.629 68.9134 339.169 68.8809 339.879H68.9443C69.1331 339.615 69.3838 339.405 69.6963 339.249C70.012 339.09 70.3473 339.01 70.7021 339.01C71.3597 339.01 71.874 339.221 72.2451 339.645C72.6162 340.068 72.8018 340.66 72.8018 341.422C72.8018 342.271 72.5853 342.931 72.1523 343.399C71.7194 343.865 71.1188 344.098 70.3506 344.098C69.5889 344.098 68.9932 343.806 68.5635 343.224C68.137 342.641 67.9238 341.827 67.9238 340.782ZM68.8223 340.802C68.8223 342.514 69.3561 343.37 70.4238 343.37C71.3906 343.37 71.874 342.75 71.874 341.51C71.874 340.331 71.4362 339.742 70.5605 339.742C70.3229 339.742 70.0918 339.791 69.8672 339.889C69.6458 339.986 69.444 340.115 69.2617 340.274C69.0827 340.434 68.9362 340.61 68.8223 340.802ZM73.9004 341.31C73.9004 340.437 74.1185 339.758 74.5547 339.273C74.9909 338.785 75.6029 338.541 76.3906 338.541C77.1458 338.541 77.7448 338.79 78.1875 339.288C78.6335 339.783 78.8564 340.457 78.8564 341.31C78.8564 342.185 78.6351 342.869 78.1924 343.36C77.7497 343.852 77.1377 344.098 76.3564 344.098C75.8714 344.098 75.4417 343.985 75.0674 343.761C74.693 343.533 74.4049 343.207 74.2031 342.784C74.0013 342.361 73.9004 341.869 73.9004 341.31ZM74.8086 341.31C74.8086 341.983 74.9404 342.496 75.2041 342.848C75.471 343.196 75.8633 343.37 76.3809 343.37C76.8919 343.37 77.2809 343.196 77.5479 342.848C77.8148 342.496 77.9482 341.983 77.9482 341.31C77.9482 340.636 77.8132 340.13 77.543 339.791C77.276 339.449 76.8838 339.278 76.3662 339.278C75.3278 339.278 74.8086 339.955 74.8086 341.31ZM79.5547 339.381V338.639H83.9053V339.381H82.1523V344H81.2832V339.381H79.5547ZM84.9697 344V338.639H85.8486V341.241L88.1387 338.639H89.1006L86.8105 341.222L89.291 344H88.2705L85.8486 341.28V344H84.9697ZM89.4229 338.639H90.3652L91.5225 341.69C91.7666 342.354 91.9163 342.841 91.9717 343.15H92.0107C92.04 343.03 92.1068 342.805 92.2109 342.477C92.3151 342.145 92.403 341.879 92.4746 341.681L93.5635 338.639H94.5107L92.2012 344.742C91.9766 345.335 91.7096 345.759 91.4004 346.017C91.0911 346.274 90.7087 346.402 90.2529 346.402C90.0088 346.402 89.7663 346.375 89.5254 346.319V345.621C89.6882 345.66 89.8835 345.68 90.1113 345.68C90.3913 345.68 90.6289 345.602 90.8242 345.445C91.0195 345.292 91.179 345.055 91.3027 344.732L91.5811 344.02L89.4229 338.639ZM97.958 344V338.639H102.489V344H101.61V339.391H98.8369V344H97.958ZM103.9 341.358C103.9 340.499 104.114 339.815 104.54 339.308C104.966 338.797 105.543 338.541 106.269 338.541C106.942 338.541 107.479 338.759 107.88 339.195C108.28 339.628 108.48 340.216 108.48 340.958V341.49H104.809C104.825 342.099 104.979 342.561 105.272 342.877C105.565 343.193 105.98 343.351 106.518 343.351C106.804 343.351 107.076 343.326 107.333 343.277C107.59 343.225 107.891 343.126 108.236 342.979V343.751C107.94 343.878 107.662 343.967 107.401 344.02C107.141 344.072 106.833 344.098 106.479 344.098C105.674 344.098 105.043 343.855 104.584 343.37C104.128 342.882 103.9 342.211 103.9 341.358ZM104.828 340.792H107.558C107.551 340.291 107.436 339.91 107.211 339.649C106.986 339.389 106.669 339.259 106.259 339.259C105.839 339.259 105.507 339.394 105.263 339.664C105.019 339.934 104.874 340.31 104.828 340.792ZM109.843 346.402V338.639H110.565L110.683 339.371H110.722C110.93 339.078 111.171 338.867 111.444 338.736C111.718 338.606 112.034 338.541 112.392 338.541C113.088 338.541 113.629 338.784 114.013 339.269C114.4 339.75 114.594 340.431 114.594 341.31C114.594 342.185 114.4 342.869 114.013 343.36C113.625 343.852 113.082 344.098 112.382 344.098C111.662 344.098 111.109 343.839 110.722 343.321H110.663L110.683 343.521C110.709 343.775 110.722 344.002 110.722 344.2V346.402H109.843ZM110.722 341.31C110.722 342.035 110.842 342.561 111.083 342.887C111.324 343.209 111.715 343.37 112.255 343.37C112.704 343.37 113.054 343.188 113.305 342.823C113.559 342.459 113.686 341.951 113.686 341.3C113.686 340.646 113.559 340.146 113.305 339.801C113.054 339.452 112.698 339.278 112.235 339.278C111.705 339.278 111.321 339.428 111.083 339.728C110.849 340.027 110.728 340.497 110.722 341.139V341.31ZM115.697 341.349C115.697 340.45 115.914 339.758 116.347 339.273C116.783 338.785 117.403 338.541 118.207 338.541C118.467 338.541 118.725 338.569 118.979 338.624C119.236 338.676 119.447 338.744 119.613 338.829L119.345 339.562C118.892 339.392 118.507 339.308 118.188 339.308C117.647 339.308 117.248 339.479 116.991 339.82C116.734 340.159 116.605 340.665 116.605 341.339C116.605 341.987 116.734 342.483 116.991 342.828C117.248 343.17 117.629 343.341 118.134 343.341C118.606 343.341 119.07 343.237 119.525 343.028V343.81C119.154 344.002 118.694 344.098 118.144 344.098C117.372 344.098 116.771 343.862 116.342 343.39C115.912 342.914 115.697 342.234 115.697 341.349ZM120.502 341.31C120.502 340.437 120.72 339.758 121.156 339.273C121.592 338.785 122.204 338.541 122.992 338.541C123.747 338.541 124.346 338.79 124.789 339.288C125.235 339.783 125.458 340.457 125.458 341.31C125.458 342.185 125.237 342.869 124.794 343.36C124.351 343.852 123.739 344.098 122.958 344.098C122.473 344.098 122.043 343.985 121.669 343.761C121.295 343.533 121.007 343.207 120.805 342.784C120.603 342.361 120.502 341.869 120.502 341.31ZM121.41 341.31C121.41 341.983 121.542 342.496 121.806 342.848C122.073 343.196 122.465 343.37 122.982 343.37C123.493 343.37 123.882 343.196 124.149 342.848C124.416 342.496 124.55 341.983 124.55 341.31C124.55 340.636 124.415 340.13 124.145 339.791C123.878 339.449 123.485 339.278 122.968 339.278C121.929 339.278 121.41 339.955 121.41 341.31ZM126.854 344V338.639H127.733V340.87H130.644V338.639H131.522V344H130.644V341.612H127.733V344H126.854ZM132.841 342.511C132.841 341.424 133.699 340.854 135.414 340.802L136.322 340.768V340.45C136.322 340.043 136.234 339.744 136.059 339.552C135.883 339.356 135.601 339.259 135.214 339.259C134.931 339.259 134.662 339.301 134.408 339.386C134.158 339.47 133.922 339.565 133.7 339.669L133.432 339.01C133.702 338.867 133.996 338.754 134.315 338.673C134.634 338.591 134.95 338.551 135.263 338.551C135.91 338.551 136.392 338.694 136.708 338.98C137.024 339.267 137.182 339.723 137.182 340.348V344H136.542L136.371 343.238H136.332C136.065 343.574 135.798 343.801 135.531 343.922C135.268 344.039 134.934 344.098 134.53 344.098C134.003 344.098 133.59 343.959 133.29 343.683C132.991 343.406 132.841 343.015 132.841 342.511ZM133.754 342.521C133.754 342.8 133.839 343.015 134.008 343.165C134.18 343.315 134.421 343.39 134.73 343.39C135.222 343.39 135.608 343.258 135.888 342.994C136.171 342.727 136.312 342.35 136.312 341.861V341.378L135.521 341.412C134.906 341.435 134.457 341.533 134.174 341.705C133.894 341.878 133.754 342.149 133.754 342.521ZM138.065 344V343.341C138.134 343.367 138.225 343.38 138.339 343.38C138.697 343.38 138.982 343.002 139.193 342.247C139.408 341.492 139.576 340.289 139.696 338.639H142.929V344H142.035V339.371H140.458C140.367 340.543 140.243 341.464 140.087 342.135C139.934 342.802 139.732 343.292 139.481 343.604C139.234 343.914 138.917 344.068 138.529 344.068C138.318 344.068 138.163 344.046 138.065 344ZM144.628 344V338.639H145.507V340.841H147.099C148.492 340.841 149.188 341.347 149.188 342.359C149.188 342.893 149.008 343.3 148.646 343.58C148.285 343.86 147.756 344 147.06 344H144.628ZM145.507 343.292H147.021C147.434 343.292 147.751 343.217 147.973 343.067C148.197 342.918 148.31 342.698 148.31 342.408C148.31 342.122 148.209 341.91 148.007 341.773C147.805 341.637 147.468 341.568 146.996 341.568H145.507V343.292ZM150.575 344V338.639H151.454V340.87H154.364V338.639H155.243V344H154.364V341.612H151.454V344H150.575ZM156.952 344V338.639H157.831V340.841H159.223C159.919 340.841 160.434 340.968 160.766 341.222C161.098 341.476 161.264 341.855 161.264 342.359C161.264 342.903 161.088 343.313 160.736 343.59C160.385 343.863 159.867 344 159.184 344H156.952ZM157.831 343.292H159.101C159.963 343.292 160.395 342.997 160.395 342.408C160.395 342.118 160.297 341.907 160.102 341.773C159.91 341.637 159.579 341.568 159.11 341.568H157.831V343.292ZM162.152 344V338.639H163.031V344H162.152ZM164.066 344L166.005 341.261L164.154 338.639H165.155L166.537 340.66L167.904 338.639H168.896L167.045 341.261L168.998 344H167.997L166.537 341.861L165.058 344H164.066ZM171.967 343.258H172.396C172.829 342.656 173.166 341.959 173.407 341.168C173.648 340.374 173.775 339.531 173.788 338.639H176.605V343.258H177.387V345.86H176.537V344H172.807V345.86H171.967V343.258ZM173.305 343.258H175.756V339.332H174.564C174.516 340.051 174.376 340.774 174.145 341.5C173.917 342.223 173.637 342.809 173.305 343.258ZM178.046 342.511C178.046 341.424 178.904 340.854 180.619 340.802L181.527 340.768V340.45C181.527 340.043 181.439 339.744 181.264 339.552C181.088 339.356 180.806 339.259 180.419 339.259C180.136 339.259 179.867 339.301 179.613 339.386C179.363 339.47 179.127 339.565 178.905 339.669L178.637 339.01C178.907 338.867 179.201 338.754 179.521 338.673C179.84 338.591 180.155 338.551 180.468 338.551C181.116 338.551 181.597 338.694 181.913 338.98C182.229 339.267 182.387 339.723 182.387 340.348V344H181.747L181.576 343.238H181.537C181.27 343.574 181.003 343.801 180.736 343.922C180.473 344.039 180.139 344.098 179.735 344.098C179.208 344.098 178.795 343.959 178.495 343.683C178.196 343.406 178.046 343.015 178.046 342.511ZM178.959 342.521C178.959 342.8 179.044 343.015 179.213 343.165C179.385 343.315 179.626 343.39 179.936 343.39C180.427 343.39 180.813 343.258 181.093 342.994C181.376 342.727 181.518 342.35 181.518 341.861V341.378L180.727 341.412C180.111 341.435 179.662 341.533 179.379 341.705C179.099 341.878 178.959 342.149 178.959 342.521ZM184.052 344V338.639H184.931V340.87H187.841V338.639H188.72V344H187.841V341.612H184.931V344H184.052ZM190.429 344V338.639H191.308V340.87H194.218V338.639H195.097V344H194.218V341.612H191.308V344H190.429ZM196.806 344V338.639H197.685V340.841H199.076C199.773 340.841 200.287 340.968 200.619 341.222C200.951 341.476 201.117 341.855 201.117 342.359C201.117 342.903 200.941 343.313 200.59 343.59C200.238 343.863 199.721 344 199.037 344H196.806ZM197.685 343.292H198.954C199.817 343.292 200.248 342.997 200.248 342.408C200.248 342.118 200.15 341.907 199.955 341.773C199.763 341.637 199.433 341.568 198.964 341.568H197.685V343.292ZM202.006 344V338.639H202.885V344H202.006ZM203.92 344L205.858 341.261L204.008 338.639H205.009L206.391 340.66L207.758 338.639H208.749L206.898 341.261L208.852 344H207.851L206.391 341.861L204.911 344H203.92ZM212.479 344V338.639H213.31V341.91L213.271 342.857L213.251 343.131L216.122 338.639H217.201V344H216.381V340.841L216.396 340.162L216.42 339.518L213.568 344H212.479ZM221.215 341.349C221.215 340.45 221.431 339.758 221.864 339.273C222.3 338.785 222.921 338.541 223.725 338.541C223.985 338.541 224.242 338.569 224.496 338.624C224.753 338.676 224.965 338.744 225.131 338.829L224.862 339.562C224.41 339.392 224.024 339.308 223.705 339.308C223.165 339.308 222.766 339.479 222.509 339.82C222.252 340.159 222.123 340.665 222.123 341.339C222.123 341.987 222.252 342.483 222.509 342.828C222.766 343.17 223.147 343.341 223.651 343.341C224.123 343.341 224.587 343.237 225.043 343.028V343.81C224.672 344.002 224.211 344.098 223.661 344.098C222.89 344.098 222.289 343.862 221.859 343.39C221.43 342.914 221.215 342.234 221.215 341.349ZM226.02 341.31C226.02 340.437 226.238 339.758 226.674 339.273C227.11 338.785 227.722 338.541 228.51 338.541C229.265 338.541 229.864 338.79 230.307 339.288C230.753 339.783 230.976 340.457 230.976 341.31C230.976 342.185 230.754 342.869 230.312 343.36C229.869 343.852 229.257 344.098 228.476 344.098C227.991 344.098 227.561 343.985 227.187 343.761C226.812 343.533 226.524 343.207 226.322 342.784C226.12 342.361 226.02 341.869 226.02 341.31ZM226.928 341.31C226.928 341.983 227.06 342.496 227.323 342.848C227.59 343.196 227.982 343.37 228.5 343.37C229.011 343.37 229.4 343.196 229.667 342.848C229.934 342.496 230.067 341.983 230.067 341.31C230.067 340.636 229.932 340.13 229.662 339.791C229.395 339.449 229.003 339.278 228.485 339.278C227.447 339.278 226.928 339.955 226.928 341.31ZM232.372 344V338.639H235.644V339.381H233.251V344H232.372ZM235.78 344V343.341C235.849 343.367 235.94 343.38 236.054 343.38C236.412 343.38 236.697 343.002 236.908 342.247C237.123 341.492 237.291 340.289 237.411 338.639H240.644V344H239.75V339.371H238.173C238.082 340.543 237.958 341.464 237.802 342.135C237.649 342.802 237.447 343.292 237.196 343.604C236.949 343.914 236.632 344.068 236.244 344.068C236.033 344.068 235.878 344.046 235.78 344ZM241.952 342.511C241.952 341.424 242.81 340.854 244.525 340.802L245.434 340.768V340.45C245.434 340.043 245.346 339.744 245.17 339.552C244.994 339.356 244.713 339.259 244.325 339.259C244.042 339.259 243.773 339.301 243.52 339.386C243.269 339.47 243.033 339.565 242.812 339.669L242.543 339.01C242.813 338.867 243.108 338.754 243.427 338.673C243.746 338.591 244.062 338.551 244.374 338.551C245.022 338.551 245.504 338.694 245.819 338.98C246.135 339.267 246.293 339.723 246.293 340.348V344H245.653L245.482 343.238H245.443C245.176 343.574 244.91 343.801 244.643 343.922C244.379 344.039 244.045 344.098 243.642 344.098C243.114 344.098 242.701 343.959 242.401 343.683C242.102 343.406 241.952 343.015 241.952 342.511ZM242.865 342.521C242.865 342.8 242.95 343.015 243.119 343.165C243.292 343.315 243.533 343.39 243.842 343.39C244.333 343.39 244.719 343.258 244.999 342.994C245.282 342.727 245.424 342.35 245.424 341.861V341.378L244.633 341.412C244.018 341.435 243.568 341.533 243.285 341.705C243.005 341.878 242.865 342.149 242.865 342.521ZM247.958 344V338.639H248.837V343.258H251.146V338.639H252.03V343.258H254.35V338.639H255.229V344H247.958ZM256.552 342.511C256.552 341.424 257.41 340.854 259.125 340.802L260.033 340.768V340.45C260.033 340.043 259.945 339.744 259.77 339.552C259.594 339.356 259.312 339.259 258.925 339.259C258.642 339.259 258.373 339.301 258.119 339.386C257.868 339.47 257.632 339.565 257.411 339.669L257.143 339.01C257.413 338.867 257.707 338.754 258.026 338.673C258.345 338.591 258.661 338.551 258.974 338.551C259.621 338.551 260.103 338.694 260.419 338.98C260.735 339.267 260.893 339.723 260.893 340.348V344H260.253L260.082 343.238H260.043C259.776 343.574 259.509 343.801 259.242 343.922C258.979 344.039 258.645 344.098 258.241 344.098C257.714 344.098 257.3 343.959 257.001 343.683C256.701 343.406 256.552 343.015 256.552 342.511ZM257.465 342.521C257.465 342.8 257.549 343.015 257.719 343.165C257.891 343.315 258.132 343.39 258.441 343.39C258.933 343.39 259.319 343.258 259.599 342.994C259.882 342.727 260.023 342.35 260.023 341.861V341.378L259.232 341.412C258.617 341.435 258.168 341.533 257.885 341.705C257.605 341.878 257.465 342.149 257.465 342.521ZM262.26 341.358C262.26 340.499 262.473 339.815 262.899 339.308C263.326 338.797 263.902 338.541 264.628 338.541C265.302 338.541 265.839 338.759 266.239 339.195C266.64 339.628 266.84 340.216 266.84 340.958V341.49H263.168C263.184 342.099 263.339 342.561 263.632 342.877C263.925 343.193 264.34 343.351 264.877 343.351C265.163 343.351 265.435 343.326 265.692 343.277C265.95 343.225 266.251 343.126 266.596 342.979V343.751C266.299 343.878 266.021 343.967 265.761 344.02C265.5 344.072 265.193 344.098 264.838 344.098C264.034 344.098 263.402 343.855 262.943 343.37C262.488 342.882 262.26 342.211 262.26 341.358ZM263.188 340.792H265.917C265.91 340.291 265.795 339.91 265.57 339.649C265.346 339.389 265.028 339.259 264.618 339.259C264.198 339.259 263.866 339.394 263.622 339.664C263.378 339.934 263.233 340.31 263.188 340.792ZM267.553 339.381V338.639H271.903V339.381H270.15V344H269.281V339.381H267.553ZM272.621 341.358C272.621 340.499 272.834 339.815 273.261 339.308C273.687 338.797 274.263 338.541 274.989 338.541C275.663 338.541 276.2 338.759 276.601 339.195C277.001 339.628 277.201 340.216 277.201 340.958V341.49H273.529C273.546 342.099 273.7 342.561 273.993 342.877C274.286 343.193 274.701 343.351 275.238 343.351C275.525 343.351 275.797 343.326 276.054 343.277C276.311 343.225 276.612 343.126 276.957 342.979V343.751C276.661 343.878 276.382 343.967 276.122 344.02C275.862 344.072 275.554 344.098 275.199 344.098C274.395 344.098 273.764 343.855 273.305 343.37C272.849 342.882 272.621 342.211 272.621 341.358ZM273.549 340.792H276.278C276.272 340.291 276.156 339.91 275.932 339.649C275.707 339.389 275.39 339.259 274.979 339.259C274.56 339.259 274.228 339.394 273.983 339.664C273.739 339.934 273.594 340.31 273.549 340.792ZM278.266 341.349C278.266 340.45 278.482 339.758 278.915 339.273C279.351 338.785 279.971 338.541 280.775 338.541C281.036 338.541 281.293 338.569 281.547 338.624C281.804 338.676 282.016 338.744 282.182 338.829L281.913 339.562C281.461 339.392 281.075 339.308 280.756 339.308C280.215 339.308 279.817 339.479 279.56 339.82C279.302 340.159 279.174 340.665 279.174 341.339C279.174 341.987 279.302 342.483 279.56 342.828C279.817 343.17 280.198 343.341 280.702 343.341C281.174 343.341 281.638 343.237 282.094 343.028V343.81C281.723 344.002 281.262 344.098 280.712 344.098C279.94 344.098 279.34 343.862 278.91 343.39C278.48 342.914 278.266 342.234 278.266 341.349ZM283.368 344V338.639H284.247V340.841H285.839C287.232 340.841 287.929 341.347 287.929 342.359C287.929 342.893 287.748 343.3 287.387 343.58C287.025 343.86 286.496 344 285.8 344H283.368ZM284.247 343.292H285.761C286.174 343.292 286.492 343.217 286.713 343.067C286.938 342.918 287.05 342.698 287.05 342.408C287.05 342.122 286.949 341.91 286.747 341.773C286.545 341.637 286.208 341.568 285.736 341.568H284.247V343.292ZM72.3867 354.349C72.3867 353.45 72.6032 352.758 73.0361 352.273C73.4723 351.785 74.0924 351.541 74.8965 351.541C75.1569 351.541 75.4141 351.569 75.668 351.624C75.9251 351.676 76.1367 351.744 76.3027 351.829L76.0342 352.562C75.5817 352.392 75.196 352.308 74.877 352.308C74.3366 352.308 73.9378 352.479 73.6807 352.82C73.4235 353.159 73.2949 353.665 73.2949 354.339C73.2949 354.987 73.4235 355.483 73.6807 355.828C73.9378 356.17 74.3187 356.341 74.8232 356.341C75.2952 356.341 75.7591 356.237 76.2148 356.028V356.81C75.8438 357.002 75.3831 357.098 74.833 357.098C74.0615 357.098 73.4609 356.862 73.0312 356.39C72.6016 355.914 72.3867 355.234 72.3867 354.349Z" fill="white"/>
<path d="M80.0186 357V351.541H84.9795V357H83.4854V352.659H81.5078V357H80.0186ZM86.21 354.261C86.21 353.369 86.4427 352.675 86.9082 352.181C87.3737 351.686 88.028 351.438 88.8711 351.438C89.3952 351.438 89.8574 351.552 90.2578 351.78C90.6582 352.008 90.9658 352.335 91.1807 352.762C91.3955 353.188 91.5029 353.688 91.5029 354.261C91.5029 355.149 91.2686 355.844 90.7998 356.346C90.3311 356.847 89.6784 357.098 88.8418 357.098C88.3177 357.098 87.8555 356.984 87.4551 356.756C87.0547 356.525 86.7471 356.194 86.5322 355.765C86.3174 355.335 86.21 354.834 86.21 354.261ZM87.7285 354.261C87.7285 354.801 87.8164 355.21 87.9922 355.486C88.1712 355.763 88.4609 355.901 88.8613 355.901C89.2585 355.901 89.5433 355.765 89.7158 355.491C89.8916 355.215 89.9795 354.804 89.9795 354.261C89.9795 353.72 89.8916 353.315 89.7158 353.045C89.54 352.775 89.252 352.64 88.8516 352.64C88.4544 352.64 88.168 352.775 87.9922 353.045C87.8164 353.312 87.7285 353.717 87.7285 354.261ZM91.9521 356.941V355.75C92.1117 355.815 92.2712 355.848 92.4307 355.848C92.6162 355.848 92.7708 355.714 92.8945 355.447C93.0215 355.18 93.1338 354.736 93.2314 354.114C93.3324 353.489 93.4186 352.632 93.4902 351.541H97.6211V357H96.1318V352.659H94.7598C94.6556 353.88 94.5286 354.791 94.3789 355.394C94.2292 355.993 94.029 356.427 93.7783 356.697C93.5309 356.964 93.2054 357.098 92.8018 357.098C92.4567 357.098 92.1735 357.046 91.9521 356.941ZM99.1885 357V351.541H100.629V353.699C100.629 353.927 100.591 354.484 100.517 355.369L103.036 351.541H104.828V357H103.388V354.822C103.388 354.435 103.42 353.888 103.485 353.182L100.976 357H99.1885ZM105.844 352.659V351.541H110.912V352.659H109.125V357H107.636V352.659H105.844ZM111.933 357V351.541H113.373V353.699C113.373 353.927 113.336 354.484 113.261 355.369L115.78 351.541H117.572V357H116.132V354.822C116.132 354.435 116.164 353.888 116.229 353.182L113.72 357H111.933ZM119.14 357V351.541H120.629V354.192L122.719 351.541H124.359L122.196 354.158L124.55 357H122.86L120.629 354.231V357H119.14ZM124.901 354.261C124.901 353.369 125.134 352.675 125.6 352.181C126.065 351.686 126.719 351.438 127.562 351.438C128.087 351.438 128.549 351.552 128.949 351.78C129.35 352.008 129.657 352.335 129.872 352.762C130.087 353.188 130.194 353.688 130.194 354.261C130.194 355.149 129.96 355.844 129.491 356.346C129.022 356.847 128.37 357.098 127.533 357.098C127.009 357.098 126.547 356.984 126.146 356.756C125.746 356.525 125.438 356.194 125.224 355.765C125.009 355.335 124.901 354.834 124.901 354.261ZM126.42 354.261C126.42 354.801 126.508 355.21 126.684 355.486C126.863 355.763 127.152 355.901 127.553 355.901C127.95 355.901 128.235 355.765 128.407 355.491C128.583 355.215 128.671 354.804 128.671 354.261C128.671 353.72 128.583 353.315 128.407 353.045C128.231 352.775 127.943 352.64 127.543 352.64C127.146 352.64 126.859 352.775 126.684 353.045C126.508 353.312 126.42 353.717 126.42 354.261ZM131.425 357V351.541H132.865V353.699C132.865 353.927 132.828 354.484 132.753 355.369L135.272 351.541H137.064V357H135.624V354.822C135.624 354.435 135.657 353.888 135.722 353.182L133.212 357H131.425ZM131.884 349.192H133.217C133.24 349.528 133.323 349.764 133.466 349.9C133.612 350.034 133.873 350.101 134.247 350.101C134.576 350.101 134.82 350.027 134.979 349.881C135.142 349.731 135.242 349.502 135.277 349.192H136.625C136.563 349.801 136.334 350.245 135.937 350.525C135.539 350.802 134.966 350.94 134.218 350.94C133.446 350.94 132.875 350.807 132.504 350.54C132.136 350.273 131.929 349.824 131.884 349.192ZM141.229 357V351.541H142.719V354.192L144.809 351.541H146.449L144.286 354.158L146.64 357H144.95L142.719 354.231V357H141.229ZM146.991 354.261C146.991 353.369 147.224 352.675 147.689 352.181C148.155 351.686 148.809 351.438 149.652 351.438C150.176 351.438 150.639 351.552 151.039 351.78C151.439 352.008 151.747 352.335 151.962 352.762C152.177 353.188 152.284 353.688 152.284 354.261C152.284 355.149 152.05 355.844 151.581 356.346C151.112 356.847 150.46 357.098 149.623 357.098C149.099 357.098 148.637 356.984 148.236 356.756C147.836 356.525 147.528 356.194 147.313 355.765C147.099 355.335 146.991 354.834 146.991 354.261ZM148.51 354.261C148.51 354.801 148.598 355.21 148.773 355.486C148.952 355.763 149.242 355.901 149.643 355.901C150.04 355.901 150.325 355.765 150.497 355.491C150.673 355.215 150.761 354.804 150.761 354.261C150.761 353.72 150.673 353.315 150.497 353.045C150.321 352.775 150.033 352.64 149.633 352.64C149.236 352.64 148.949 352.775 148.773 353.045C148.598 353.312 148.51 353.717 148.51 354.261ZM153.515 357V351.541H155.004V353.641H157.084V351.541H158.573V357H157.084V354.749H155.004V357H153.515ZM159.804 354.271C159.804 353.447 160.054 352.798 160.556 352.322C161.057 351.844 161.786 351.574 162.743 351.512V349.402H164.125V351.512C165.036 351.587 165.751 351.868 166.269 352.356C166.786 352.845 167.045 353.483 167.045 354.271C167.045 355.075 166.789 355.719 166.278 356.204C165.767 356.686 165.049 356.964 164.125 357.039V359.402H162.743V357.039C161.822 356.954 161.101 356.666 160.58 356.175C160.062 355.68 159.804 355.045 159.804 354.271ZM161.337 354.271C161.337 354.729 161.462 355.104 161.713 355.394C161.964 355.68 162.307 355.853 162.743 355.911V352.63C162.323 352.685 161.983 352.863 161.723 353.162C161.465 353.462 161.337 353.831 161.337 354.271ZM164.125 355.911C164.558 355.853 164.898 355.678 165.146 355.389C165.393 355.099 165.517 354.726 165.517 354.271C165.517 353.841 165.395 353.479 165.15 353.187C164.906 352.89 164.564 352.711 164.125 352.649V355.911ZM168.28 357V351.541H169.721V353.699C169.721 353.927 169.683 354.484 169.608 355.369L172.128 351.541H173.92V357H172.479V354.822C172.479 354.435 172.512 353.888 172.577 353.182L170.067 357H168.28ZM174.848 355.911H175.307C175.619 355.426 175.881 354.814 176.093 354.075C176.304 353.336 176.452 352.492 176.537 351.541H180.395V355.911H181.195V358.958H179.857V357H176.186V358.958H174.848V355.911ZM176.864 355.911H178.905V352.659H177.787C177.706 353.265 177.593 353.839 177.45 354.383C177.31 354.926 177.115 355.436 176.864 355.911ZM181.796 354.31C181.796 353.395 182.024 352.688 182.479 352.19C182.938 351.689 183.572 351.438 184.379 351.438C185.15 351.438 185.751 351.658 186.181 352.098C186.61 352.537 186.825 353.144 186.825 353.919V354.642H183.305C183.321 355.065 183.446 355.395 183.681 355.633C183.915 355.87 184.244 355.989 184.667 355.989C184.996 355.989 185.307 355.955 185.6 355.887C185.893 355.818 186.199 355.709 186.518 355.56V356.712C186.257 356.842 185.979 356.938 185.683 357C185.386 357.065 185.025 357.098 184.599 357.098C183.72 357.098 183.033 356.855 182.538 356.37C182.043 355.885 181.796 355.198 181.796 354.31ZM183.339 353.65H185.429C185.422 353.283 185.326 352.999 185.141 352.801C184.955 352.599 184.704 352.498 184.389 352.498C184.073 352.498 183.826 352.599 183.646 352.801C183.467 352.999 183.365 353.283 183.339 353.65ZM188.036 357V351.541H189.525V353.641H191.605V351.541H193.095V357H191.605V354.749H189.525V357H188.036ZM194.657 357V351.541H196.146V355.882H198.324V351.541H199.818V355.911H200.614V358.958H199.276V357H194.657ZM201.542 357V351.541H202.982V353.699C202.982 353.927 202.945 354.484 202.87 355.369L205.39 351.541H207.182V357H205.741V354.822C205.741 354.435 205.774 353.888 205.839 353.182L203.329 357H201.542ZM208.388 355.369C208.388 354.79 208.59 354.363 208.993 354.09C209.4 353.813 210.012 353.66 210.829 353.631L211.776 353.602V353.362C211.776 352.809 211.493 352.532 210.927 352.532C210.491 352.532 209.978 352.664 209.389 352.928L208.896 351.922C209.524 351.593 210.22 351.429 210.985 351.429C211.718 351.429 212.279 351.588 212.67 351.907C213.061 352.226 213.256 352.711 213.256 353.362V357H212.216L211.928 356.258H211.889C211.638 356.574 211.379 356.793 211.112 356.917C210.849 357.037 210.504 357.098 210.077 357.098C209.553 357.098 209.14 356.948 208.837 356.648C208.537 356.349 208.388 355.923 208.388 355.369ZM209.916 355.379C209.916 355.799 210.157 356.009 210.639 356.009C210.984 356.009 211.259 355.91 211.464 355.711C211.672 355.512 211.776 355.249 211.776 354.92V354.471L211.2 354.49C210.767 354.503 210.445 354.581 210.233 354.725C210.022 354.868 209.916 355.086 209.916 355.379ZM214.013 356.941V355.75C214.172 355.815 214.332 355.848 214.491 355.848C214.677 355.848 214.831 355.714 214.955 355.447C215.082 355.18 215.194 354.736 215.292 354.114C215.393 353.489 215.479 352.632 215.551 351.541H219.682V357H218.192V352.659H216.82C216.716 353.88 216.589 354.791 216.439 355.394C216.29 355.993 216.09 356.427 215.839 356.697C215.591 356.964 215.266 357.098 214.862 357.098C214.517 357.098 214.234 357.046 214.013 356.941ZM221.249 357V351.541H222.738V353.65H223.788C224.628 353.65 225.25 353.784 225.653 354.051C226.057 354.318 226.259 354.721 226.259 355.262C226.259 356.421 225.455 357 223.847 357H221.249ZM222.738 355.97H223.778C224.439 355.97 224.77 355.74 224.77 355.281C224.77 355.07 224.685 354.917 224.516 354.822C224.346 354.728 224.094 354.681 223.759 354.681H222.738V355.97ZM227.392 357V351.541H228.881V353.641H230.961V351.541H232.45V357H230.961V354.749H228.881V357H227.392ZM233.681 354.261C233.681 353.369 233.913 352.675 234.379 352.181C234.844 351.686 235.499 351.438 236.342 351.438C236.866 351.438 237.328 351.552 237.729 351.78C238.129 352.008 238.437 352.335 238.651 352.762C238.866 353.188 238.974 353.688 238.974 354.261C238.974 355.149 238.739 355.844 238.271 356.346C237.802 356.847 237.149 357.098 236.312 357.098C235.788 357.098 235.326 356.984 234.926 356.756C234.525 356.525 234.218 356.194 234.003 355.765C233.788 355.335 233.681 354.834 233.681 354.261ZM235.199 354.261C235.199 354.801 235.287 355.21 235.463 355.486C235.642 355.763 235.932 355.901 236.332 355.901C236.729 355.901 237.014 355.765 237.187 355.491C237.362 355.215 237.45 354.804 237.45 354.261C237.45 353.72 237.362 353.315 237.187 353.045C237.011 352.775 236.723 352.64 236.322 352.64C235.925 352.64 235.639 352.775 235.463 353.045C235.287 353.312 235.199 353.717 235.199 354.261ZM239.872 354.3C239.872 353.372 240.103 352.664 240.565 352.176C241.028 351.684 241.69 351.438 242.553 351.438C243.184 351.438 243.751 351.562 244.252 351.81L243.812 352.962C243.578 352.868 243.36 352.791 243.158 352.732C242.956 352.671 242.755 352.64 242.553 352.64C241.778 352.64 241.391 353.19 241.391 354.29C241.391 355.358 241.778 355.892 242.553 355.892C242.839 355.892 243.104 355.854 243.349 355.779C243.593 355.701 243.837 355.581 244.081 355.418V356.692C243.84 356.845 243.596 356.951 243.349 357.01C243.104 357.068 242.795 357.098 242.421 357.098C240.722 357.098 239.872 356.165 239.872 354.3ZM244.799 352.659V351.541H249.867V352.659H248.08V357H246.591V352.659H244.799ZM250.888 357V351.541H252.328V353.699C252.328 353.927 252.291 354.484 252.216 355.369L254.735 351.541H256.527V357H255.087V354.822C255.087 354.435 255.119 353.888 255.185 353.182L252.675 357H250.888ZM257.885 356.302C257.885 356.028 257.958 355.822 258.104 355.682C258.251 355.542 258.464 355.472 258.744 355.472C259.014 355.472 259.223 355.543 259.369 355.687C259.519 355.83 259.594 356.035 259.594 356.302C259.594 356.559 259.519 356.762 259.369 356.912C259.219 357.059 259.011 357.132 258.744 357.132C258.471 357.132 258.259 357.06 258.109 356.917C257.96 356.771 257.885 356.565 257.885 356.302Z" fill="#DFC271"/>
<path d="M70.9463 59.97C72.3763 59.376 73.2563 58.188 73.2563 56.648C73.2563 53.92 70.3303 52.314 66.9423 52.314C65.2263 52.314 63.4003 52.71 61.7723 53.59L62.6743 55.9C64.0163 55.108 65.5563 54.734 66.8763 54.734C68.8123 54.734 70.3523 55.526 70.3523 57C70.3523 58.21 69.3403 58.958 67.6243 58.958H64.2583V61.202H67.8443C69.7803 61.202 70.9903 61.884 70.9903 63.27C70.9903 64.92 69.1423 65.822 66.9423 65.822C65.3803 65.822 63.6423 65.36 62.2563 64.414L61.3323 66.504C63.1363 67.67 65.2923 68.22 67.2943 68.22C70.8143 68.22 73.8943 66.548 73.8943 63.688C73.8943 61.906 72.7723 60.542 70.9463 59.97ZM81.2074 56.12C79.3154 56.12 77.4894 56.604 76.2354 57.572L77.3134 59.574C78.1934 58.848 79.5574 58.408 80.8774 58.408C82.8354 58.408 83.8034 59.354 83.8034 60.96V61.136H80.7674C77.2034 61.136 75.8834 62.676 75.8834 64.634C75.8834 66.68 77.5774 68.154 80.2614 68.154C82.0214 68.154 83.2974 67.582 83.9574 66.57V68H86.5534V61.114C86.5534 57.726 84.5954 56.12 81.2074 56.12ZM80.8334 66.152C79.4254 66.152 78.5894 65.514 78.5894 64.524C78.5894 63.666 79.0954 62.962 80.9654 62.962H83.8034V64.326C83.3414 65.536 82.1754 66.152 80.8334 66.152ZM89.9564 56.252V68H92.7064V58.584H98.4924V68H101.22V56.252H89.9564ZM110.167 68.154C113.819 68.154 116.437 65.646 116.437 62.126C116.437 58.606 113.819 56.12 110.167 56.12C106.559 56.12 103.919 58.606 103.919 62.126C103.919 65.646 106.559 68.154 110.167 68.154ZM110.167 65.8C108.187 65.8 106.691 64.37 106.691 62.126C106.691 59.882 108.187 58.452 110.167 58.452C112.169 58.452 113.665 59.882 113.665 62.126C113.665 64.37 112.169 65.8 110.167 65.8ZM120.169 56.252L119.971 60.784C119.839 63.226 119.773 65.734 117.969 65.734C117.815 65.734 117.639 65.712 117.441 65.668L117.309 67.978C117.881 68.132 118.387 68.22 118.827 68.22C121.599 68.22 122.215 65.096 122.413 60.916L122.523 58.584H126.923V68H129.673V56.252H120.169ZM133.376 68H136.126V63.358H142.044V68H144.794V56.252H142.044V61.026H136.126V56.252H133.376V68ZM148.48 68H151.01L157.478 60.256V68H160.228V56.252H157.72L151.23 63.996V56.252H148.48V68ZM173.233 56.252H162.233V58.584H166.369V68H169.119V58.584H173.233V56.252ZM185.712 62.192C185.712 58.518 183.204 56.12 179.772 56.12C176.274 56.12 173.7 58.628 173.7 62.126C173.7 65.624 176.252 68.154 180.19 68.154C182.214 68.154 183.864 67.494 184.92 66.24L183.446 64.546C182.61 65.404 181.576 65.822 180.256 65.822C178.21 65.822 176.78 64.722 176.45 63.006H185.668C185.69 62.742 185.712 62.412 185.712 62.192ZM179.772 58.32C181.576 58.32 182.874 59.486 183.094 61.18H176.428C176.692 59.464 177.99 58.32 179.772 58.32ZM210.332 62.104C210.332 58.474 207.78 56.384 203.336 56.098V51.676H200.74V56.098C196.274 56.384 193.766 58.452 193.766 62.104C193.766 65.8 196.296 67.912 200.74 68.198V72.268H203.336V68.176C207.78 67.89 210.332 65.778 210.332 62.104ZM196.472 62.104C196.472 59.926 197.792 58.672 200.74 58.43V65.888C197.814 65.624 196.472 64.348 196.472 62.104ZM203.336 65.888V58.43C206.262 58.672 207.648 59.882 207.648 62.104C207.648 64.348 206.262 65.624 203.336 65.888ZM218.233 68.154C221.885 68.154 224.503 65.646 224.503 62.126C224.503 58.606 221.885 56.12 218.233 56.12C214.625 56.12 211.985 58.606 211.985 62.126C211.985 65.646 214.625 68.154 218.233 68.154ZM218.233 65.8C216.253 65.8 214.757 64.37 214.757 62.126C214.757 59.882 216.253 58.452 218.233 58.452C220.235 58.452 221.731 59.882 221.731 62.126C221.731 64.37 220.235 65.8 218.233 65.8ZM233.732 56.12C232.126 56.12 230.762 56.67 229.838 57.792V56.252H227.22V72.268H229.97V66.57C230.916 67.648 232.236 68.154 233.732 68.154C237.164 68.154 239.694 65.778 239.694 62.126C239.694 58.496 237.164 56.12 233.732 56.12ZM233.424 65.8C231.444 65.8 229.926 64.37 229.926 62.126C229.926 59.882 231.444 58.452 233.424 58.452C235.404 58.452 236.9 59.882 236.9 62.126C236.9 64.37 235.404 65.8 233.424 65.8ZM256.467 68L256.445 56.252H253.871L249.493 63.6L245.313 56.252H242.431V68H244.939V60.19L248.833 66.768H250.021L253.981 60.212V68H256.467ZM268.604 56.252L264.886 64.942L261.19 56.252H258.33L263.456 68.044L263.258 68.506C262.73 69.672 262.158 70.134 261.19 70.134C260.442 70.134 259.694 69.826 259.166 69.32L258.066 71.344C258.814 72.026 260.046 72.422 261.212 72.422C263.17 72.422 264.666 71.608 265.744 68.946L271.244 56.252H268.604Z" fill="white"/>
<defs>
<linearGradient id="paint0_linear" x1="332" y1="-9.39594" x2="155.734" y2="400.586" gradientUnits="userSpaceOnUse">
<stop stop-color="#206989"/>
<stop offset="0.0001" stop-color="#428DAD"/>
<stop offset="1" stop-color="#206989"/>
</linearGradient>
<linearGradient id="paint1_linear" x1="166" y1="12.3594" x2="166" y2="393.676" gradientUnits="userSpaceOnUse">
<stop stop-color="#F2DF9A"/>
<stop offset="1" stop-color="#DABB68"/>
</linearGradient>
<linearGradient id="paint2_linear" x1="166" y1="246" x2="166" y2="304" gradientUnits="userSpaceOnUse">
<stop stop-color="#F2DF9A"/>
<stop offset="1" stop-color="#DABB68"/>
</linearGradient>
</defs>
</svg>
